<?xml version="1.0" encoding="utf-8"?>
<!-- Generator: Adobe Illustrator 16.0.0, SVG Export Plug-In . SVG Version: 6.00 Build 0)  -->
<!DOCTYPE svg PUBLIC "-//W3C//DTD SVG 1.1//EN" "http://www.w3.org/Graphics/SVG/1.1/DTD/svg11.dtd">
<svg version="1.1" id="Layer_1" xmlns="http://www.w3.org/2000/svg" xmlns:xlink="http://www.w3.org/1999/xlink" x="0px" y="0px"
	 width="14.173px" height="14.173px" viewBox="7.087 7.087 14.173 14.173" enable-background="new 0 0 14.173 14.173" xml:space="preserve">
<g>
	<path fill-rule="evenodd" clip-rule="evenodd" d="M14.069,5.644c-0.233,0.219-0.467,0.438-0.713,0.668
		c-0.076-0.05-0.15-0.101-0.227-0.147c-0.54-0.339-1.154-0.282-1.632,0.15c-1.082,0.978-2.333,0.977-3.427-0.003
		C7.525,5.822,6.769,5.79,6.247,6.32c-0.91,0.926-2.505,0.951-3.46-0.025C2.308,5.806,1.714,5.839,0.958,6.308
		c-0.222-0.236-0.447-0.477-0.7-0.748c0.546-0.519,1.21-0.738,1.983-0.64c0.51,0.065,0.943,0.293,1.32,0.639
		C4.18,6.125,4.864,6.133,5.479,5.584C6.523,4.648,7.812,4.658,8.862,5.61c0.545,0.494,1.291,0.498,1.83,0.01
		c1.003-0.91,2.168-0.971,3.244-0.171c0.04,0.029,0.089,0.047,0.133,0.07C14.069,5.561,14.069,5.603,14.069,5.644z"/>
	<path fill-rule="evenodd" clip-rule="evenodd" d="M14.069,8.259c-0.238,0.228-0.478,0.454-0.714,0.679
		c-0.827-0.531-1.284-0.496-2.01,0.145c-0.882,0.779-2.282,0.757-3.184-0.05c-0.688-0.617-1.319-0.62-2.005-0.009
		C5.245,9.838,3.869,9.865,2.975,9.087c-0.74-0.644-1.18-0.68-2.005-0.157C0.734,8.693,0.497,8.454,0.261,8.216
		C1,7.383,2.402,7.285,3.341,8.002c0.1,0.075,0.192,0.158,0.285,0.241C4.16,8.725,4.884,8.729,5.43,8.254
		c1.137-0.99,2.32-0.991,3.452-0.002c0.561,0.49,1.27,0.472,1.851-0.048c1.024-0.917,2.332-0.92,3.337-0.007
		C14.069,8.218,14.069,8.238,14.069,8.259z"/>
</g>
</svg>
