<?xml version="1.0" encoding="utf-8"?>
<!-- Generator: Adobe Illustrator 16.0.0, SVG Export Plug-In . SVG Version: 6.00 Build 0)  -->
<!DOCTYPE svg PUBLIC "-//W3C//DTD SVG 1.1//EN" "http://www.w3.org/Graphics/SVG/1.1/DTD/svg11.dtd">
<svg version="1.1" id="Layer_1" xmlns="http://www.w3.org/2000/svg" xmlns:xlink="http://www.w3.org/1999/xlink" x="0px" y="0px"
	width="14.173px" height="14.173px" viewBox="7.087 7.087 14.173 14.173" enable-background="new 0 0 14.173 14.173" xml:space="preserve">
<g>
	<path fill-rule="evenodd" clip-rule="evenodd" d="M7.119,13.096c-0.165-0.694-0.304-1.396-0.501-2.082
		C5.989,8.826,5.354,6.64,4.685,4.464C4.508,3.889,4.241,3.331,3.946,2.803C3.606,2.193,2.885,1.949,2.226,2.14
		C1.602,2.32,1.146,2.922,1.134,3.58c-0.012,0.663,0.42,1.275,1.043,1.471c0.144,0.046,0.295,0.07,0.479,0.114
		c0,0.132,0,0.28,0,0.43c0,0.142,0,0.284,0,0.453C1.815,6.011,1.146,5.691,0.675,5.02c-1.098-1.563-0.084-3.639,1.693-3.823
		c0.043-0.005,0.084-0.027,0.125-0.042c0.107,0,0.216,0,0.323,0c0.25,0.063,0.509,0.103,0.748,0.193
		c0.765,0.291,1.202,0.9,1.514,1.62c0.701,1.618,1.178,3.312,1.666,5.001C6.88,8.441,7.01,8.916,7.143,9.389
		c0.086-0.097,0.114-0.188,0.14-0.278C7.48,8.405,7.656,7.692,7.883,6.996c0.416-1.283,0.846-2.562,1.302-3.83
		c0.223-0.619,0.557-1.182,1.122-1.571c0.372-0.256,0.791-0.362,1.224-0.44c0.107,0,0.215,0,0.322,0
		c0.489,0.082,0.957,0.22,1.348,0.545c0.791,0.66,1.084,1.512,0.844,2.498c-0.235,0.967-0.887,1.567-1.865,1.796
		c-0.104,0.024-0.211,0.038-0.316,0.052c-0.044,0.006-0.09,0.001-0.152,0.001c0-0.298,0-0.589,0-0.896
		c0.525-0.054,0.967-0.264,1.257-0.718c0.461-0.723,0.243-1.685-0.472-2.116c-0.783-0.473-1.77-0.23-2.176,0.609
		C9.954,3.678,9.622,4.458,9.388,5.259c-0.738,2.524-1.425,5.064-2.129,7.6c-0.021,0.076-0.021,0.157-0.032,0.237
		C7.19,13.096,7.155,13.096,7.119,13.096z"/>
</g>
</svg>
