<?xml version="1.0" encoding="utf-8"?>
<!-- Generator: Adobe Illustrator 16.0.0, SVG Export Plug-In . SVG Version: 6.00 Build 0)  -->
<!DOCTYPE svg PUBLIC "-//W3C//DTD SVG 1.1//EN" "http://www.w3.org/Graphics/SVG/1.1/DTD/svg11.dtd">
<svg version="1.1" id="Layer_1" xmlns="http://www.w3.org/2000/svg" xmlns:xlink="http://www.w3.org/1999/xlink" x="0px" y="0px"
	 width="14.173px" height="14.173px" viewBox="7.087 7.087 14.173 14.173" enable-background="new 0 0 14.173 14.173" xml:space="preserve">
<g>
	<path fill-rule="evenodd" clip-rule="evenodd" d="M7.409,0.802c0.55,0.092,1.108,0.152,1.649,0.281
		c1.488,0.354,2.803,1.052,3.892,2.131C14.017,4.271,13.93,5.994,12.794,7c-1.072,0.951-2.85,0.783-3.734-0.352
		C8.129,5.454,8.379,3.754,9.611,2.892c0.11-0.077,0.224-0.149,0.352-0.329C9.426,2.411,8.896,2.215,8.35,2.116
		C5.908,1.68,3.752,2.309,1.887,3.931c-0.215,0.187-0.343,0.213-0.52-0.017C1.257,3.771,1.115,3.65,0.988,3.518
		C0.941,3.469,0.897,3.416,0.828,3.34c0.479-0.521,1.038-0.928,1.635-1.283C3.641,1.357,4.91,0.939,6.283,0.85
		c0.078-0.005,0.155-0.031,0.232-0.048C6.813,0.802,7.111,0.802,7.409,0.802z M9.671,5.023c-0.002,0.808,0.628,1.438,1.434,1.433
		c0.776-0.005,1.419-0.638,1.435-1.415c0.014-0.761-0.667-1.459-1.434-1.469C10.331,3.563,9.673,4.229,9.671,5.023z"/>
	<path fill-rule="evenodd" clip-rule="evenodd" d="M6.928,13.521c-0.55-0.092-1.107-0.152-1.648-0.282
		c-1.533-0.368-2.885-1.085-3.988-2.222C0.58,10.285,0.435,9.043,0.902,8.137C1.428,7.121,2.465,6.578,3.607,6.72
		c1.008,0.125,1.92,0.956,2.152,1.959c0.255,1.104-0.172,2.174-1.121,2.804c-0.084,0.056-0.167,0.112-0.255,0.173
		c1.743,1.005,5.499,1.21,8.28-1.445c0.271,0.254,0.542,0.507,0.835,0.779c-0.642,0.665-1.37,1.169-2.169,1.571
		c-1.02,0.513-2.096,0.834-3.241,0.906c-0.09,0.006-0.178,0.036-0.267,0.055C7.523,13.521,7.227,13.521,6.928,13.521z M4.667,9.298
		C4.666,8.506,4.012,7.854,3.223,7.861C2.436,7.868,1.775,8.537,1.788,9.315c0.013,0.764,0.672,1.419,1.436,1.427
		C4.004,10.752,4.668,10.086,4.667,9.298z"/>
	<path fill-rule="evenodd" clip-rule="evenodd" fill="#FFFFFF" d="M9.671,5.023c0.002-0.795,0.66-1.461,1.435-1.451
		c0.767,0.01,1.447,0.708,1.434,1.469c-0.016,0.777-0.658,1.41-1.435,1.415C10.299,6.461,9.669,5.831,9.671,5.023z"/>
	<path fill-rule="evenodd" clip-rule="evenodd" fill="#FFFFFF" d="M4.667,9.298c0.001,0.788-0.663,1.454-1.443,1.444
		c-0.764-0.008-1.423-0.663-1.436-1.427C1.775,8.537,2.436,7.868,3.223,7.861C4.012,7.854,4.666,8.506,4.667,9.298z"/>
</g>
</svg>
