<?xml version="1.0" encoding="utf-8"?>
<!-- Generator: Adobe Illustrator 16.0.0, SVG Export Plug-In . SVG Version: 6.00 Build 0)  -->
<!DOCTYPE svg PUBLIC "-//W3C//DTD SVG 1.1//EN" "http://www.w3.org/Graphics/SVG/1.1/DTD/svg11.dtd">
<svg version="1.1" id="Layer_1" xmlns="http://www.w3.org/2000/svg" xmlns:xlink="http://www.w3.org/1999/xlink" x="0px" y="0px"
	 width="14.173px" height="14.173px" viewBox="7.087 7.087 14.173 14.173" enable-background="new 0 0 14.173 14.173" xml:space="preserve">
<g>
	<path fill-rule="evenodd" clip-rule="evenodd" d="M4.689,13.059c0-0.377,0-0.755,0-1.134c1.235-0.259,1.806-1.204,2.346-2.175
		c0.052-0.093,0.053-0.222,0.053-0.334c0.003-1.688,0.006-3.375,0-5.062C7.086,3.493,6.705,2.937,5.992,2.717
		c-0.897-0.277-1.859,0.44-1.859,1.381c0,1.94-0.003,3.88-0.005,5.819c0,0.103,0,0.204,0,0.334c-0.387,0-0.747,0-1.137,0
		c-0.009-0.101-0.024-0.198-0.024-0.296C2.963,8.061,2.959,6.167,2.96,4.272c0-0.891-0.448-1.443-1.319-1.616
		C1.575,2.644,1.515,2.61,1.451,2.586c0-0.367,0-0.735,0-1.103c0.139,0,0.275,0,0.414,0C2.497,1.662,3.092,1.909,3.539,2.47
		c0.442-0.542,1.025-0.786,1.633-0.986c0.275,0,0.552,0,0.827,0c0.038,0.021,0.074,0.054,0.115,0.062
		c1.222,0.234,2.148,1.374,2.108,2.642C8.188,5.345,8.215,6.504,8.217,7.663c0,0.12,0.011,0.239,0.02,0.415
		c0.746-0.411,1.485-0.534,2.257-0.296c0.779,0.24,1.319,0.756,1.646,1.5c0.505,1.146,0.054,2.564-1.036,3.251
		c-1.261,0.795-2.543,0.453-3.798-1.035c-0.601,0.793-1.347,1.367-2.34,1.561C4.874,13.059,4.781,13.059,4.689,13.059z
		 M9.721,11.765c0.806-0.007,1.454-0.669,1.45-1.479C11.167,9.48,10.5,8.814,9.701,8.816C8.967,8.817,8.21,9.513,8.217,10.179
		C8.227,11.096,8.867,11.771,9.721,11.765z"/>
	<path fill-rule="evenodd" clip-rule="evenodd" fill="#FFFFFF" d="M9.721,11.765c-0.854,0.006-1.494-0.669-1.504-1.586
		C8.21,9.513,8.967,8.817,9.701,8.816c0.799-0.002,1.466,0.664,1.47,1.469C11.175,11.096,10.526,11.758,9.721,11.765z"/>
</g>
</svg>
