<?xml version="1.0" encoding="utf-8"?>
<!-- Generator: Adobe Illustrator 16.0.0, SVG Export Plug-In . SVG Version: 6.00 Build 0)  -->
<!DOCTYPE svg PUBLIC "-//W3C//DTD SVG 1.1//EN" "http://www.w3.org/Graphics/SVG/1.1/DTD/svg11.dtd">
<svg version="1.1" id="Layer_1" xmlns="http://www.w3.org/2000/svg" xmlns:xlink="http://www.w3.org/1999/xlink" x="0px" y="0px"
	 width="14.173px" height="14.173px" viewBox="7.087 7.087 14.173 14.173" enable-background="new 0 0 14.173 14.173" xml:space="preserve">
<g>
	<path fill-rule="evenodd" clip-rule="evenodd" fill="#FFFFFF" d="M7.173,1.858c2.982-0.002,5.423,2.429,5.424,5.403
		c0.001,3.007-2.42,5.44-5.416,5.44c-2.985,0-5.424-2.429-5.428-5.404C1.749,4.299,4.18,1.859,7.173,1.858z"/>
	<path fill-rule="evenodd" clip-rule="evenodd" d="M6.843,0.876c0.185,0,0.37,0,0.555,0c0.352,0.056,0.707,0.092,1.054,0.17
		c3.214,0.718,5.416,3.786,4.806,7.203c-0.586,3.28-3.645,5.53-7.019,5.068c-2.443-0.334-4.595-2.234-5.164-4.628
		C0.976,8.273,0.923,7.847,0.849,7.425c0-0.186,0-0.37,0-0.555c0.035-0.225,0.07-0.448,0.104-0.672
		C1.332,3.718,3.151,1.704,5.576,1.1C5.991,0.996,6.42,0.949,6.843,0.876z M7.113,2.033C4.295,2.034,2.005,4.332,2.009,7.156
		c0.004,2.802,2.301,5.09,5.112,5.09c2.821,0,5.102-2.292,5.101-5.124C12.221,4.321,9.922,2.031,7.113,2.033z"/>
	<line fill="none" stroke="#000000" stroke-miterlimit="10" x1="2.921" y1="11.295" x2="10.979" y2="3.237"/>
	<line fill="none" stroke="#000000" stroke-miterlimit="10" x1="3.292" y1="3.312" x2="11.048" y2="11.067"/>
</g>
</svg>
