<?xml version="1.0" encoding="utf-8"?>
<!-- Generator: Adobe Illustrator 16.0.0, SVG Export Plug-In . SVG Version: 6.00 Build 0)  -->
<!DOCTYPE svg PUBLIC "-//W3C//DTD SVG 1.1//EN" "http://www.w3.org/Graphics/SVG/1.1/DTD/svg11.dtd">
<svg version="1.1" id="Layer_1" xmlns="http://www.w3.org/2000/svg" xmlns:xlink="http://www.w3.org/1999/xlink" x="0px" y="0px"
	 width="14.173px" height="14.173px" viewBox="7.087 7.087 14.173 14.173" enable-background="new 0 0 14.173 14.173" xml:space="preserve">
<g>
	<path fill-rule="evenodd" clip-rule="evenodd" d="M3.576,6.229c-0.169,0.297-0.334,0.588-0.499,0.88
		C1.961,6.416,1.343,5.18,1.528,4.042C1.752,2.667,2.627,1.669,3.87,1.368c2.1-0.509,4.076,1.18,3.872,3.32
		C7.672,5.424,7.378,6.071,6.846,6.6C6.177,7.265,5.511,7.934,4.845,8.602C4.778,8.668,4.717,8.737,4.615,8.846
		c1.497,0,2.938,0,4.427,0c0-2.328,0-4.664,0-7.019c0.36,0,0.677,0,1.022,0c0,2.334,0,4.663,0,7.033c0.897,0,1.766,0,2.644,0
		c0,0.365,0,0.689,0,1.037c-0.873,0-1.726,0-2.617,0c0,0.891,0,1.76,0,2.65c-0.36,0-0.683,0-1.036,0c0-0.881,0-1.742,0-2.643
		c-0.144,0-0.257,0-0.37,0c-1.683,0-3.366-0.004-5.049,0.005C3.416,9.911,3.311,9.843,3.23,9.638
		C2.985,9.011,2.977,9.015,3.448,8.543c0.895-0.894,1.793-1.781,2.68-2.682C6.704,5.276,6.863,4.563,6.635,3.79
		c-0.23-0.781-0.787-1.271-1.57-1.446c-0.979-0.22-1.961,0.313-2.366,1.226C2.305,4.457,2.602,5.516,3.412,6.11
		C3.458,6.144,3.504,6.178,3.576,6.229z"/>
</g>
</svg>
