<?xml version="1.0" encoding="utf-8"?>
<!-- Generator: Adobe Illustrator 16.0.0, SVG Export Plug-In . SVG Version: 6.00 Build 0)  -->
<!DOCTYPE svg PUBLIC "-//W3C//DTD SVG 1.1//EN" "http://www.w3.org/Graphics/SVG/1.1/DTD/svg11.dtd">
<svg version="1.1" id="Layer_1" xmlns="http://www.w3.org/2000/svg" xmlns:xlink="http://www.w3.org/1999/xlink" x="0px" y="0px"
	 width="14.173px" height="14.173px" viewBox="7.087 7.087 14.173 14.173" enable-background="new 0 0 14.173 14.173" xml:space="preserve">
<g>
	<path fill-rule="evenodd" clip-rule="evenodd" d="M11.341,12.079c-0.151,0.487-0.331,0.958-0.723,1.314
		c-0.684,0.622-1.477,0.819-2.352,0.531c-0.911-0.301-1.457-0.949-1.586-1.909c-0.119-0.9,0.125-1.75,0.523-2.535
		c0.497-0.98,1.074-1.92,1.615-2.878c0.426-0.755,0.846-1.51,1.021-2.375c0.264-1.305-0.615-2.665-1.9-2.915
		c-1.368-0.267-2.679,0.642-2.896,2.02C4.971,3.806,5.078,4.261,5.242,4.708C5.617,5.729,6.028,6.739,6.334,7.78
		c0.258,0.877,0.202,1.755-0.424,2.517c-0.581,0.708-1.651,1.011-2.556,0.701c-0.921-0.315-1.535-1.183-1.578-2.121
		c-0.068-1.472,1.292-2.709,2.81-2.386c0.067,0.015,0.138,0.016,0.249,0.026c-0.212-0.55-0.422-1.063-0.609-1.583
		C3.547,3.05,4.409,1.138,6.267,0.444C6.632,0.309,7.034,0.276,7.42,0.195c0.021,0,0.041,0,0.062,0
		c0.077,0.019,0.153,0.047,0.23,0.052c1.451,0.101,2.716,1.152,3.087,2.557c0.287,1.088,0.058,2.111-0.434,3.072
		C9.866,6.854,9.288,7.791,8.746,8.747c-0.488,0.86-0.958,1.729-1.058,2.738c-0.055,0.563,0.138,1.021,0.628,1.33
		c0.448,0.281,1.006,0.259,1.437-0.051c0.352-0.253,0.518-0.613,0.568-1.054c0.35,0,0.685,0,1.02,0
		C11.341,11.834,11.341,11.956,11.341,12.079z M5.411,8.771c-0.034-0.798-0.596-1.317-1.39-1.286
		C3.313,7.512,2.788,8.13,2.823,8.899c0.029,0.665,0.651,1.214,1.343,1.184C4.885,10.052,5.441,9.465,5.411,8.771z"/>
	<path fill-rule="evenodd" clip-rule="evenodd" fill="#FFFFFF" d="M5.411,8.771c0.03,0.694-0.526,1.281-1.245,1.313
		c-0.691,0.03-1.313-0.519-1.343-1.184C2.788,8.13,3.313,7.512,4.021,7.484C4.815,7.453,5.377,7.973,5.411,8.771z"/>
</g>
</svg>
