<?xml version="1.0" encoding="utf-8"?>
<!-- Generator: Adobe Illustrator 16.0.0, SVG Export Plug-In . SVG Version: 6.00 Build 0)  -->
<!DOCTYPE svg PUBLIC "-//W3C//DTD SVG 1.1//EN" "http://www.w3.org/Graphics/SVG/1.1/DTD/svg11.dtd">
<svg version="1.1" id="Layer_1" xmlns="http://www.w3.org/2000/svg" xmlns:xlink="http://www.w3.org/1999/xlink" x="0px" y="0px"
	 width="14.173px" height="14.173px" viewBox="7.087 7.087 14.173 14.173" enable-background="new 0 0 14.173 14.173" xml:space="preserve">
<g>
	<path fill-rule="evenodd" clip-rule="evenodd" d="M0.237,11.472c0-0.317,0-0.635,0-0.971c4.6,0,9.176,0,13.791,0
		c0,0.321,0,0.646,0,0.971C9.431,11.472,4.834,11.472,0.237,11.472z"/>
	<path fill-rule="evenodd" clip-rule="evenodd" d="M10.465,8.15c1.239,0,2.416,0,3.61,0c0,0.335,0,0.641,0,0.97
		c-2.018,0-4.036,0-6.129,0C8.343,8.8,8.695,8.524,9.038,8.236c0.726-0.608,1.101-1.386,1.096-2.338
		c-0.009-1.44-1.085-2.683-2.519-2.91c-1.428-0.228-2.856,0.66-3.291,2.045C3.953,6.216,4.327,7.458,5.296,8.246
		C5.639,8.525,5.983,8.802,6.379,9.12c-2.076,0-4.085,0-6.121,0c0-0.304,0-0.616,0-0.958c1.176,0,2.354,0,3.555,0
		C2.744,5.969,2.988,4.058,5.019,2.613c1.326-0.942,3.178-0.844,4.45,0.093c0.856,0.631,1.398,1.466,1.59,2.514
		C11.246,6.251,11.034,7.215,10.465,8.15z"/>
</g>
</svg>
