<?xml version="1.0" encoding="utf-8"?>
<!-- Generator: Adobe Illustrator 16.0.0, SVG Export Plug-In . SVG Version: 6.00 Build 0)  -->
<!DOCTYPE svg PUBLIC "-//W3C//DTD SVG 1.1//EN" "http://www.w3.org/Graphics/SVG/1.1/DTD/svg11.dtd">
<svg version="1.1" id="Layer_1" xmlns="http://www.w3.org/2000/svg" xmlns:xlink="http://www.w3.org/1999/xlink" x="0px" y="0px"
	 width="14.173px" height="14.173px" viewBox="7.087 7.087 14.173 14.173" enable-background="new 0 0 14.173 14.173" xml:space="preserve">
<g>
	<path fill-rule="evenodd" clip-rule="evenodd" d="M1.196,4.371C1.648,3.6,2.167,2.888,2.863,2.307
		c3.573-2.98,9.18-1.024,10.132,3.521c0.732,3.494-1.498,6.867-5.057,7.544c-2.511,0.478-5.358-0.863-6.563-3.125
		c-0.041-0.078-0.078-0.158-0.131-0.265c0.31-0.204,0.607-0.4,0.934-0.615c0.856,0.968,1.93,1.396,3.206,1.224
		c0.886-0.12,1.613-0.562,2.173-1.257c1.156-1.435,0.957-3.552-0.445-4.755c-1.37-1.175-3.541-1.19-4.969,0.478
		c-0.313-0.181-0.63-0.364-0.947-0.549C1.196,4.462,1.196,4.416,1.196,4.371z M4.724,11.771c1.522,0.916,4.396,0.751,6.12-1.361
		c1.756-2.151,1.444-5.387-0.665-7.172C8.337,1.679,5.708,1.832,4.711,2.58c2.771-0.016,4.636,2.077,4.741,4.398
		c0.052,1.156-0.282,2.209-1.024,3.105C7.483,11.223,6.255,11.785,4.724,11.771z"/>
	<path fill-rule="evenodd" clip-rule="evenodd" fill="#FFFFFF" d="M4.724,11.771c1.531,0.014,2.76-0.549,3.704-1.688
		C9.17,9.188,9.504,8.135,9.452,6.979C9.347,4.657,7.481,2.564,4.711,2.58c0.997-0.748,3.626-0.901,5.468,0.658
		c2.109,1.785,2.421,5.021,0.665,7.172C9.12,12.522,6.246,12.688,4.724,11.771z"/>
</g>
</svg>
