<?xml version="1.0" encoding="utf-8"?>
<!-- Generator: Adobe Illustrator 16.0.0, SVG Export Plug-In . SVG Version: 6.00 Build 0)  -->
<!DOCTYPE svg PUBLIC "-//W3C//DTD SVG 1.1//EN" "http://www.w3.org/Graphics/SVG/1.1/DTD/svg11.dtd">
<svg version="1.1" id="Layer_1" xmlns="http://www.w3.org/2000/svg" xmlns:xlink="http://www.w3.org/1999/xlink" x="0px" y="0px"
	 width="14.173px" height="14.173px" viewBox="7.087 7.087 14.173 14.173" enable-background="new 0 0 14.173 14.173" xml:space="preserve">
<g>
	<path fill-rule="evenodd" clip-rule="evenodd" d="M9.308,4.089c0.553-0.564,1.085-1.108,1.638-1.673c-0.5,0-1.011,0-1.544,0
		c0-0.448,0-0.845,0-1.278c1.29,0,2.57,0,3.885,0c0,1.282,0,2.565,0,3.879c-0.405,0-0.813,0-1.271,0c0-0.503,0-1.002,0-1.551
		c-0.57,0.6-1.091,1.146-1.624,1.708c1.979,2.788,0.853,6.05-1.188,7.515c-2.13,1.528-5.132,1.261-6.986-0.662
		C0.41,10.155,0.264,7.12,1.871,5.082C3.492,3.025,6.614,2.18,9.308,4.089z M6.068,12.342c2.234,0.001,4.009-1.755,4.011-3.968
		c0.002-2.227-1.792-4.029-4.009-4.028C3.883,4.347,2.082,6.153,2.079,8.352C2.076,10.566,3.851,12.341,6.068,12.342z"/>
	<path fill-rule="evenodd" clip-rule="evenodd" fill="#FFFFFF" d="M6.068,12.342c-2.218-0.001-3.992-1.775-3.989-3.99
		C2.082,6.153,3.883,4.347,6.07,4.346c2.217-0.001,4.011,1.802,4.009,4.028C10.077,10.587,8.303,12.343,6.068,12.342z"/>
</g>
</svg>
