<?xml version="1.0" encoding="utf-8"?>
<!-- Generator: Adobe Illustrator 16.0.0, SVG Export Plug-In . SVG Version: 6.00 Build 0)  -->
<!DOCTYPE svg PUBLIC "-//W3C//DTD SVG 1.1//EN" "http://www.w3.org/Graphics/SVG/1.1/DTD/svg11.dtd">
<svg version="1.1" id="Layer_1" xmlns="http://www.w3.org/2000/svg" xmlns:xlink="http://www.w3.org/1999/xlink" x="0px" y="0px"
	 width="14.173px" height="14.173px" viewBox="7.087 7.087 14.173 14.173" enable-background="new 0 0 14.173 14.173" xml:space="preserve">
<g>
	<path fill-rule="evenodd" clip-rule="evenodd" d="M7.554,13.594c-0.307,0-0.577,0-0.896,0c0-0.351-0.014-0.702,0.005-1.052
		c0.014-0.24-0.06-0.325-0.306-0.307c-0.279,0.021-0.562,0.005-0.881,0.005c0-0.275-0.012-0.528,0.009-0.778
		c0.005-0.054,0.127-0.136,0.198-0.14c0.309-0.015,0.617-0.006,0.92-0.006c0.12-0.393,0.092-0.415-0.299-0.514
		c-1.388-0.351-2.345-1.189-2.758-2.57c-0.41-1.368-0.098-2.594,0.872-3.639c0.239-0.257,0.533-0.463,0.827-0.715
		c-0.557-0.341-1.03-0.783-1.359-1.358C3.563,1.951,3.373,1.343,3.386,0.659c0.306,0,0.592,0,0.901,0
		c0.061,0.938,0.436,1.716,1.214,2.27C6.075,3.338,6.723,3.489,7.417,3.42c1.061-0.104,2.39-0.959,2.503-2.759
		c0.284,0,0.571,0,0.907,0C10.788,2.07,10.15,3.126,8.943,3.896c0.094,0.068,0.168,0.127,0.246,0.18
		c1.252,0.841,1.879,2.392,1.563,3.868c-0.318,1.479-1.487,2.614-2.978,2.874c-0.22,0.038-0.223,0.157-0.224,0.325
		c-0.001,0.21,0.143,0.172,0.265,0.173c0.298,0.002,0.596,0.001,0.909,0.001c0,0.314,0,0.593,0,0.924
		c-0.301,0-0.606,0.012-0.911-0.004c-0.206-0.011-0.271,0.062-0.264,0.265C7.563,12.855,7.554,13.211,7.554,13.594z M7.108,9.949
		c1.556,0,2.794-1.235,2.792-2.786C9.898,5.621,8.646,4.362,7.113,4.361c-1.551,0-2.809,1.26-2.806,2.811
		C4.31,8.717,5.554,9.95,7.108,9.949z"/>
	<path fill-rule="evenodd" clip-rule="evenodd" fill="#FFFFFF" d="M7.108,9.949C5.554,9.95,4.31,8.717,4.308,7.172
		C4.305,5.621,5.563,4.361,7.113,4.361C8.646,4.362,9.898,5.621,9.9,7.163C9.902,8.714,8.664,9.949,7.108,9.949z"/>
</g>
</svg>
