<?xml version="1.0" encoding="utf-8"?>
<!-- Generator: Adobe Illustrator 16.0.0, SVG Export Plug-In . SVG Version: 6.00 Build 0)  -->
<!DOCTYPE svg PUBLIC "-//W3C//DTD SVG 1.1//EN" "http://www.w3.org/Graphics/SVG/1.1/DTD/svg11.dtd">
<svg version="1.1" id="Layer_1" xmlns="http://www.w3.org/2000/svg" xmlns:xlink="http://www.w3.org/1999/xlink" x="0px" y="0px"
	 width="14.173px" height="14.173px" viewBox="7.087 7.087 14.173 14.173" enable-background="new 0 0 14.173 14.173" xml:space="preserve">
<g>
	<path fill-rule="evenodd" clip-rule="evenodd" d="M2.589,8.869C1.195,6.173,2.205,3.495,3.928,2.148
		c1.867-1.459,4.451-1.488,6.395-0.074c1.579,1.15,2.959,3.843,1.441,6.79c0.148,0.039,0.293,0.071,0.434,0.117
		c1.014,0.331,1.646,1.376,1.47,2.424c-0.178,1.051-1.144,1.843-2.21,1.813c-0.869-0.024-1.655-0.591-1.971-1.419
		c-0.312-0.817-0.096-1.739,0.568-2.356c0.762-0.707,1.236-1.563,1.357-2.599c0.202-1.731-0.411-3.131-1.838-4.108
		C6.922,0.92,3.412,2.574,2.955,5.584C2.729,7.074,3.138,8.362,4.269,9.39c0.688,0.623,0.943,1.542,0.644,2.364
		c-0.316,0.865-1.101,1.442-1.993,1.465c-1.105,0.027-2.052-0.786-2.216-1.903c-0.156-1.071,0.575-2.116,1.676-2.394
		C2.44,8.906,2.501,8.891,2.589,8.869z M1.656,11.034c-0.003,0.665,0.532,1.214,1.19,1.223c0.66,0.009,1.235-0.562,1.23-1.222
		C4.072,10.39,3.505,9.824,2.862,9.824C2.205,9.825,1.659,10.372,1.656,11.034z M10.31,11.05c0.005,0.653,0.56,1.206,1.212,1.207
		c0.654,0.001,1.201-0.549,1.205-1.21c0.004-0.667-0.564-1.234-1.224-1.223C10.854,9.836,10.305,10.399,10.31,11.05z"/>
	<path fill-rule="evenodd" clip-rule="evenodd" fill="#FFFFFF" d="M1.656,11.034c0.003-0.662,0.549-1.209,1.206-1.21
		c0.643,0,1.21,0.565,1.215,1.211c0.005,0.66-0.57,1.23-1.23,1.222C2.188,12.248,1.653,11.699,1.656,11.034z"/>
	<path fill-rule="evenodd" clip-rule="evenodd" fill="#FFFFFF" d="M10.31,11.05c-0.005-0.65,0.544-1.214,1.193-1.226
		c0.659-0.012,1.228,0.556,1.224,1.223c-0.004,0.661-0.551,1.211-1.205,1.21C10.869,12.256,10.314,11.703,10.31,11.05z"/>
</g>
</svg>
