<?xml version="1.0" encoding="utf-8"?>
<!-- Generator: Adobe Illustrator 16.0.0, SVG Export Plug-In . SVG Version: 6.00 Build 0)  -->
<!DOCTYPE svg PUBLIC "-//W3C//DTD SVG 1.1//EN" "http://www.w3.org/Graphics/SVG/1.1/DTD/svg11.dtd">
<svg version="1.1" id="Layer_1" xmlns="http://www.w3.org/2000/svg" xmlns:xlink="http://www.w3.org/1999/xlink" x="0px" y="0px"
	 width="14.173px" height="14.173px" viewBox="7.087 7.087 14.173 14.173" enable-background="new 0 0 14.173 14.173" xml:space="preserve">
<g>
	<path fill-rule="evenodd" clip-rule="evenodd" d="M11.465,0.393c0.272,0.285,0.546,0.571,0.85,0.89
		c-1.362,1.449-2.206,3.139-2.359,5.194c0.515,0,0.992,0,1.498,0c0,0.42,0,0.797,0,1.23c-0.48,0-0.969,0-1.502,0
		c0.15,2.07,0.965,3.771,2.361,5.232c-0.301,0.276-0.596,0.548-0.917,0.843c-0.595-0.545-1.087-1.236-1.509-1.98
		C9.217,10.621,8.816,9.354,8.708,8C8.69,7.773,8.599,7.705,8.382,7.707C7.513,7.715,6.644,7.719,5.774,7.706
		C5.512,7.702,5.447,7.805,5.422,8.052c-0.225,2.181-1.083,4.074-2.604,5.661c-0.034,0.035-0.075,0.063-0.106,0.089
		c-0.291-0.29-0.577-0.574-0.879-0.874c1.378-1.433,2.183-3.142,2.354-5.203c-0.525,0-1.013,0-1.524,0c0-0.43,0-0.807,0-1.235
		c0.502,0,0.991,0,1.521,0C4.012,4.44,3.2,2.748,1.816,1.287C2.11,0.979,2.39,0.686,2.669,0.393c0.024,0,0.05,0,0.075,0
		c0.058,0.078,0.108,0.162,0.174,0.234C4.38,2.21,5.214,4.076,5.424,6.218c0.023,0.246,0.142,0.276,0.339,0.275
		c0.868-0.005,1.738-0.008,2.606,0.001c0.231,0.003,0.323-0.063,0.344-0.311c0.101-1.199,0.396-2.359,1.002-3.396
		c0.49-0.839,1.111-1.601,1.676-2.396C11.415,0.393,11.439,0.393,11.465,0.393z"/>
</g>
</svg>
