<?xml version="1.0" encoding="utf-8"?>
<!-- Generator: Adobe Illustrator 16.0.0, SVG Export Plug-In . SVG Version: 6.00 Build 0)  -->
<!DOCTYPE svg PUBLIC "-//W3C//DTD SVG 1.1//EN" "http://www.w3.org/Graphics/SVG/1.1/DTD/svg11.dtd">
<svg version="1.1" id="Layer_1" xmlns="http://www.w3.org/2000/svg" xmlns:xlink="http://www.w3.org/1999/xlink" x="0px" y="0px"
	 width="14.173px" height="14.173px" viewBox="7.087 7.087 14.173 14.173" enable-background="new 0 0 14.173 14.173" xml:space="preserve">
<g>
	<path fill-rule="evenodd" clip-rule="evenodd" d="M13.378,0.784c0,1.623,0,3.246,0,4.887c-0.271,0-0.533,0-0.828,0
		c0-1.105,0-2.208,0-3.308c-1.635,1.638-3.255,3.259-4.898,4.905c0.848,0.834,1.729,1.703,2.625,2.584
		c-0.223,0.211-0.412,0.392-0.615,0.584c-0.86-0.869-1.73-1.748-2.627-2.653c-1.905,1.915-3.776,3.793-5.657,5.684
		c-0.209-0.226-0.389-0.42-0.577-0.625c1.855-1.851,3.729-3.718,5.6-5.585C5.492,6.36,4.612,5.491,3.743,4.632
		c0.248-0.242,0.44-0.43,0.655-0.641c0.841,0.853,1.711,1.733,2.567,2.602C8.62,4.938,10.248,3.308,11.9,1.654
		c-1.12,0-2.234,0-3.397,0c0.028-0.318,0.052-0.595,0.076-0.87C10.179,0.784,11.778,0.784,13.378,0.784z"/>
</g>
</svg>
