<?xml version="1.0" encoding="utf-8"?>
<!-- Generator: Adobe Illustrator 16.0.0, SVG Export Plug-In . SVG Version: 6.00 Build 0)  -->
<!DOCTYPE svg PUBLIC "-//W3C//DTD SVG 1.1//EN" "http://www.w3.org/Graphics/SVG/1.1/DTD/svg11.dtd">
<svg version="1.1" id="Layer_1" xmlns="http://www.w3.org/2000/svg" xmlns:xlink="http://www.w3.org/1999/xlink" x="0px" y="0px"
	 width="14.173px" height="14.173px" viewBox="7.087 7.087 14.173 14.173" enable-background="new 0 0 14.173 14.173" xml:space="preserve">
<g>
	<path fill-rule="evenodd" clip-rule="evenodd" d="M12.438,12.972c-0.007-0.097-0.015-0.192-0.021-0.289
		c-0.018,0.026-0.035,0.052-0.053,0.077c-0.477-0.196-0.992-0.331-1.42-0.604c-0.734-0.467-1.065-1.203-1.068-2.069
		C9.869,8.255,9.878,6.422,9.876,4.59C9.875,3.87,9.355,3.263,8.668,3.164C8.013,3.069,7.319,3.501,7.141,4.144
		c-0.066,0.239-0.088,0.497-0.09,0.747c-0.007,1.711-0.004,3.423-0.004,5.134c0,0.129,0,0.257,0,0.397c-0.374,0-0.708,0-1.073,0
		c0-0.152,0-0.282,0-0.411c0-1.734,0-3.468-0.001-5.201c0-0.702-0.237-1.268-0.928-1.556c-0.878-0.365-1.9,0.331-1.9,1.284
		C3.146,6.392,3.143,8.246,3.141,10.1c0,0.098,0,0.194,0,0.318c-0.371,0-0.715,0-1.087,0c-0.008-0.098-0.022-0.191-0.022-0.285
		c-0.004-1.81-0.007-3.62-0.006-5.431c0-0.85-0.432-1.381-1.263-1.544C0.7,3.146,0.643,3.114,0.582,3.092c0-0.352,0-0.703,0-1.054
		c0.132,0,0.264,0,0.396,0c0.604,0.174,1.174,0.406,1.601,0.944C3,2.462,3.559,2.231,4.139,2.038c0.264,0,0.527,0,0.791,0
		c0.598,0.18,1.158,0.427,1.553,0.905C6.76,2.734,6.986,2.522,7.25,2.376c0.262-0.146,0.56-0.229,0.841-0.338
		c0.241,0,0.483,0,0.725,0c0.039,0.019,0.077,0.045,0.118,0.055c1.289,0.293,2.052,1.242,2.054,2.564
		c0.003,1.811-0.001,3.622,0.002,5.434c0.001,0.672,0.406,1.19,1.047,1.393c0.245,0.076,0.426,0.09,0.425-0.266
		c0.521,0.29,1.006,0.561,1.492,0.832c0,0.021,0,0.044,0,0.065c-0.482,0.285-0.966,0.571-1.449,0.856
		C12.482,12.972,12.46,12.972,12.438,12.972z"/>
</g>
</svg>
