<?xml version="1.0" encoding="utf-8"?>
<!-- Generator: Adobe Illustrator 16.0.0, SVG Export Plug-In . SVG Version: 6.00 Build 0)  -->
<!DOCTYPE svg PUBLIC "-//W3C//DTD SVG 1.1//EN" "http://www.w3.org/Graphics/SVG/1.1/DTD/svg11.dtd">
<svg version="1.1" id="Layer_1" xmlns="http://www.w3.org/2000/svg" xmlns:xlink="http://www.w3.org/1999/xlink" x="0px" y="0px"
	 width="14.173px" height="14.173px" viewBox="7.087 7.087 14.173 14.173" enable-background="new 0 0 14.173 14.173" xml:space="preserve">
<g>
	<path fill-rule="evenodd" clip-rule="evenodd" d="M6.587,1.04c0.46,0,0.92,0,1.38,0c0.063,0.027,0.122,0.068,0.187,0.08
		c1.879,0.323,3.335,1.289,4.215,2.977c0.38,0.729,0.523,1.581,0.774,2.377c0,0.288,0,0.575,0,0.863
		c-0.024,0.096-0.061,0.19-0.072,0.288c-0.412,3.432-3.73,5.783-7.076,5.012c-2.451-0.565-4.252-2.546-4.563-5.021
		c-0.31-2.456,1-4.871,3.293-5.967C5.309,1.37,5.965,1.239,6.587,1.04z M2.865,6.903c-0.002,2.437,1.963,4.405,4.399,4.407
		c2.402,0.002,4.392-1.971,4.406-4.37c0.015-2.405-1.987-4.428-4.392-4.434C4.859,2.5,2.868,4.483,2.865,6.903z"/>
	<path fill-rule="evenodd" clip-rule="evenodd" fill="#FFFFFF" d="M2.865,6.903C2.868,4.483,4.859,2.5,7.279,2.507
		c2.404,0.006,4.406,2.028,4.392,4.434c-0.015,2.399-2.004,4.372-4.406,4.37C4.828,11.309,2.863,9.34,2.865,6.903z"/>
	<path fill-rule="evenodd" clip-rule="evenodd" d="M6.18,6.911c0-0.556,0.457-1.011,1.012-1.009
		c0.552,0.001,1.011,0.465,1.008,1.017C8.195,7.47,7.739,7.922,7.188,7.922C6.629,7.921,6.179,7.47,6.18,6.911z"/>
</g>
</svg>
