<?xml version="1.0" encoding="utf-8"?>
<!-- Generator: Adobe Illustrator 16.0.0, SVG Export Plug-In . SVG Version: 6.00 Build 0)  -->
<!DOCTYPE svg PUBLIC "-//W3C//DTD SVG 1.1//EN" "http://www.w3.org/Graphics/SVG/1.1/DTD/svg11.dtd">
<svg version="1.1" id="Layer_1" xmlns="http://www.w3.org/2000/svg" xmlns:xlink="http://www.w3.org/1999/xlink" x="0px" y="0px"
	 width="14.173px" height="14.173px" viewBox="7.087 7.087 14.173 14.173" enable-background="new 0 0 14.173 14.173" xml:space="preserve">
<g>
	<path fill-rule="evenodd" clip-rule="evenodd" d="M3.019,0.86c0.373,0.168,0.8,0.268,1.11,0.515
		c1.108,0.88,1.132,2.448,0.073,3.395C3.513,5.386,3.08,6.139,2.877,7.03c-0.561,2.457,1.113,4.898,3.586,5.292
		c2.733,0.435,5.226-1.718,5.094-4.556c-0.056-1.189-0.543-2.197-1.421-3.018C8.95,3.644,9.224,1.8,10.678,1.089
		c0.222-0.107,0.474-0.153,0.711-0.229c0.155,0,0.31,0,0.465,0c0.045,0.017,0.089,0.04,0.135,0.049
		c1.116,0.214,1.851,1.084,1.851,2.193c-0.002,1.106-0.734,1.968-1.858,2.187c-0.034,0.007-0.065,0.032-0.111,0.056
		c0.58,1.143,0.822,2.326,0.588,3.596c-0.235,1.27-0.845,2.314-1.813,3.153c-1.639,1.421-4.103,1.753-6.013,0.612
		C1.688,10.95,1.179,8.37,2.423,5.304C2.379,5.295,2.332,5.285,2.286,5.275C1.35,5.07,0.671,4.338,0.529,3.379
		C0.398,2.491,0.874,1.567,1.712,1.137C1.956,1.011,2.233,0.95,2.495,0.86C2.67,0.86,2.845,0.86,3.019,0.86z M1.507,3.108
		c0.003,0.675,0.567,1.236,1.24,1.234c0.666-0.001,1.242-0.576,1.242-1.242c0.001-0.664-0.57-1.242-1.235-1.249
		C2.071,1.844,1.505,2.415,1.507,3.108z M12.86,3.096c-0.002-0.677-0.563-1.243-1.232-1.244c-0.68-0.001-1.258,0.583-1.247,1.262
		c0.011,0.673,0.584,1.236,1.25,1.229C12.307,4.336,12.862,3.772,12.86,3.096z"/>
	<path fill-rule="evenodd" clip-rule="evenodd" fill="#FFFFFF" d="M1.507,3.108C1.505,2.415,2.071,1.844,2.754,1.852
		C3.419,1.858,3.99,2.437,3.989,3.101c0,0.666-0.576,1.241-1.242,1.242C2.074,4.345,1.51,3.783,1.507,3.108z"/>
	<path fill-rule="evenodd" clip-rule="evenodd" fill="#FFFFFF" d="M12.86,3.096c0.002,0.677-0.554,1.24-1.229,1.247
		c-0.666,0.007-1.239-0.557-1.25-1.229c-0.011-0.679,0.567-1.263,1.247-1.262C12.297,1.853,12.858,2.419,12.86,3.096z"/>
</g>
</svg>
