<?xml version="1.0" encoding="utf-8"?>
<!-- Generator: Adobe Illustrator 16.0.0, SVG Export Plug-In . SVG Version: 6.00 Build 0)  -->
<!DOCTYPE svg PUBLIC "-//W3C//DTD SVG 1.1//EN" "http://www.w3.org/Graphics/SVG/1.1/DTD/svg11.dtd">
<svg version="1.1" id="Layer_1" xmlns="http://www.w3.org/2000/svg" xmlns:xlink="http://www.w3.org/1999/xlink" x="0px" y="0px"
	 width="14.173px" height="14.173px" viewBox="7.087 7.087 14.173 14.173" enable-background="new 0 0 14.173 14.173" xml:space="preserve">
<g>
	<path fill-rule="evenodd" clip-rule="evenodd" d="M4.783,4.771c-1.475-0.936-2.287-2.25-2.357-4.033c0.387,0,0.746,0,1.143,0
		c0.077,1.187,0.563,2.177,1.574,2.863C5.826,4.064,6.59,4.271,7.413,4.192c1.343-0.128,3.034-1.135,3.208-3.458
		c0.357,0,0.717,0,1.131,0c-0.051,1.771-0.859,3.088-2.338,4.029c3.138,1.934,2.75,5.745,0.936,7.457
		c-1.91,1.803-4.94,1.717-6.715-0.219C1.854,10.061,1.915,6.54,4.783,4.771z M3.593,8.867c0.003,1.931,1.575,3.504,3.503,3.502
		c1.934-0.002,3.498-1.57,3.497-3.508S9.03,5.366,7.09,5.368C5.152,5.37,3.59,6.933,3.593,8.867z"/>
	<path fill-rule="evenodd" clip-rule="evenodd" fill="#FFFFFF" d="M3.593,8.867C3.59,6.933,5.152,5.37,7.09,5.368
		c1.94-0.002,3.502,1.556,3.503,3.493s-1.563,3.506-3.497,3.508C5.168,12.371,3.596,10.798,3.593,8.867z"/>
</g>
</svg>
