<?xml version="1.0" encoding="utf-8"?>
<!-- Generator: Adobe Illustrator 16.0.0, SVG Export Plug-In . SVG Version: 6.00 Build 0)  -->
<!DOCTYPE svg PUBLIC "-//W3C//DTD SVG 1.1//EN" "http://www.w3.org/Graphics/SVG/1.1/DTD/svg11.dtd">
<svg version="1.1" id="Layer_1" xmlns="http://www.w3.org/2000/svg" xmlns:xlink="http://www.w3.org/1999/xlink" x="0px" y="0px"
	 width="14.173px" height="14.173px" viewBox="7.087 7.087 14.173 14.173" enable-background="new 0 0 14.173 14.173" xml:space="preserve">
<g>
	<path fill-rule="evenodd" clip-rule="evenodd" d="M7.723,0.876c0.512,0.169,1.05,0.285,1.532,0.517
		c1.71,0.819,2.751,2.712,2.553,4.556c-0.219,2.04-1.604,3.649-3.537,4.11c-0.088,0.021-0.178,0.043-0.268,0.046
		c-0.287,0.01-0.269,0.205-0.271,0.408c-0.003,0.235,0.153,0.21,0.301,0.21c0.308,0,0.615,0.007,0.922-0.002
		c0.182-0.006,0.275,0.041,0.267,0.245c-0.013,0.283-0.003,0.566-0.003,0.91c-0.401,0-0.783,0.015-1.163-0.005
		c-0.262-0.014-0.335,0.084-0.325,0.333c0.017,0.442,0.005,0.886,0.005,1.353c-0.366,0-0.713,0-1.116,0
		c0-0.43-0.019-0.869,0.006-1.305c0.018-0.303-0.078-0.405-0.382-0.383c-0.349,0.026-0.701,0.007-1.101,0.007
		c0-0.344-0.015-0.659,0.012-0.972c0.006-0.066,0.158-0.169,0.248-0.173c0.385-0.02,0.771-0.009,1.148-0.009
		c0.15-0.49,0.113-0.519-0.371-0.641C4.446,9.646,3.252,8.6,2.734,6.878C2.221,5.172,2.609,3.643,3.813,2.334
		c0.726-0.788,1.641-1.24,2.699-1.399C6.554,0.928,6.591,0.896,6.63,0.876C6.993,0.876,7.358,0.876,7.723,0.876z M7.167,9.017
		c1.948,0.001,3.496-1.533,3.498-3.466c0-1.942-1.566-3.515-3.502-3.514C5.255,2.038,3.684,3.618,3.682,5.536
		C3.68,7.469,5.229,9.017,7.167,9.017z"/>
	<path fill-rule="evenodd" clip-rule="evenodd" fill="#FFFFFF" d="M7.167,9.017c-1.938,0-3.487-1.548-3.485-3.48
		c0.002-1.918,1.573-3.498,3.481-3.499c1.936-0.001,3.502,1.571,3.502,3.514C10.663,7.483,9.115,9.018,7.167,9.017z"/>
</g>
</svg>
