<?xml version="1.0" encoding="utf-8"?>
<!-- Generator: Adobe Illustrator 16.0.0, SVG Export Plug-In . SVG Version: 6.00 Build 0)  -->
<!DOCTYPE svg PUBLIC "-//W3C//DTD SVG 1.1//EN" "http://www.w3.org/Graphics/SVG/1.1/DTD/svg11.dtd">
<svg version="1.1" id="Layer_1" xmlns="http://www.w3.org/2000/svg" xmlns:xlink="http://www.w3.org/1999/xlink" x="0px" y="0px"
	 width="14.173px" height="14.173px" viewBox="7.087 7.087 14.173 14.173" enable-background="new 0 0 14.173 14.173" xml:space="preserve">
<g>
	<path fill-rule="evenodd" clip-rule="evenodd" d="M13.898,11.909c-0.135,0.544-0.336,1.048-0.762,1.442
		c-1.285,1.192-3.34,0.691-3.924-0.962c-0.027-0.076-0.059-0.15-0.115-0.298c-0.316,0.368-0.601,0.698-0.906,1.053
		c-0.29-0.329-0.514-0.583-0.77-0.875c0.432-0.423,0.917-0.91,1.416-1.384c0.164-0.156,0.234-0.316,0.234-0.548
		C9.063,8.4,9.067,6.463,9.068,4.524c0-0.814-0.58-1.424-1.35-1.418C6.973,3.112,6.395,3.731,6.395,4.524
		c0,1.718-0.009,3.436,0.011,5.153c0.004,0.332-0.099,0.425-0.407,0.391c-0.205-0.022-0.414-0.005-0.658-0.005
		c0-0.159,0-0.281,0-0.404c0-1.718,0.002-3.436-0.001-5.153C5.338,3.893,4.977,3.384,4.415,3.179
		C3.92,2.997,3.291,3.137,2.979,3.591C2.794,3.858,2.66,4.218,2.654,4.539C2.623,6.246,2.639,7.953,2.639,9.661
		c0,0.114,0,0.229,0,0.373c-0.354,0-0.691,0-1.064,0c0-0.122,0-0.234,0-0.346c0-1.645-0.022-3.29,0.01-4.934
		C1.6,3.949,1.338,3.296,0.254,3.065c0-0.34,0-0.684,0-1.027c0.104,0,0.209,0,0.314,0c0.589,0.156,1.131,0.398,1.547,0.896
		C2.529,2.426,3.071,2.2,3.649,2.038c0.23,0,0.461,0,0.691,0C4.917,2.203,5.453,2.44,5.866,2.946
		C6.264,2.43,6.804,2.221,7.359,2.038c0.23,0,0.461,0,0.691,0c0.336,0.135,0.698,0.227,1.002,0.413
		c0.671,0.413,1.001,1.061,1.092,1.854c0.128-0.061,0.23-0.108,0.333-0.156c0.915-0.429,1.999-0.231,2.716,0.482
		c0.385,0.382,0.564,0.863,0.705,1.367c0,0.23,0,0.461,0,0.691c-0.155,0.498-0.339,0.977-0.724,1.357
		c-0.907,0.897-1.795,1.815-2.713,2.701c-0.26,0.25-0.356,0.503-0.337,0.854c0.057,1.035,1.116,1.666,2.01,1.177
		c0.447-0.245,0.645-0.659,0.727-1.182c0.355,0.021,0.696,0.04,1.037,0.061C13.898,11.742,13.898,11.826,13.898,11.909z
		 M10.13,9.476c0.033,0.016,0.066,0.032,0.1,0.049c0.675-0.686,1.35-1.371,2.022-2.059c0.103-0.104,0.211-0.206,0.298-0.323
		c0.353-0.473,0.376-1.036,0.071-1.526c-0.293-0.472-0.866-0.72-1.41-0.61c-0.529,0.105-0.957,0.522-1.024,1.092
		c-0.06,0.497-0.048,1.002-0.055,1.504C10.124,8.226,10.13,8.851,10.13,9.476z"/>
	<path fill-rule="evenodd" clip-rule="evenodd" fill="#FFFFFF" d="M10.13,9.476c0-0.625-0.006-1.25,0.002-1.874
		c0.007-0.502-0.005-1.007,0.055-1.504c0.067-0.569,0.495-0.986,1.024-1.092c0.544-0.109,1.117,0.139,1.41,0.61
		c0.305,0.49,0.281,1.054-0.071,1.526c-0.087,0.117-0.195,0.219-0.298,0.323c-0.673,0.688-1.348,1.373-2.022,2.059
		C10.196,9.508,10.163,9.491,10.13,9.476z"/>
</g>
</svg>
