<?xml version="1.0" encoding="utf-8"?>
<!-- Generator: Adobe Illustrator 16.0.0, SVG Export Plug-In . SVG Version: 6.00 Build 0)  -->
<!DOCTYPE svg PUBLIC "-//W3C//DTD SVG 1.1//EN" "http://www.w3.org/Graphics/SVG/1.1/DTD/svg11.dtd">
<svg version="1.1" id="Layer_1" xmlns="http://www.w3.org/2000/svg" xmlns:xlink="http://www.w3.org/1999/xlink" x="0px" y="0px"
	 width="141.732px" height="226.771px" viewBox="0 0 141.732 226.771" enable-background="new 0 0 141.732 226.771"
	 xml:space="preserve">
<g>
	<rect fill="#BF1818" width="141.732" height="226.771"/>
	<g>
		<defs>
			<rect id="SVGID_1_" x="-58.106" y="-15.14" width="343.639" height="257.051"/>
		</defs>
		<clipPath id="SVGID_2_">
			<use xlink:href="#SVGID_1_"  overflow="visible"/>
		</clipPath>
		<path clip-path="url(#SVGID_2_)" fill="#FFFFFF" d="M48.519,131.181c-11.657,0-21.141-9.484-21.141-21.141
			c0-11.657,9.484-21.141,21.141-21.141c11.657,0,21.141,9.484,21.141,21.141C69.66,121.697,60.176,131.181,48.519,131.181
			 M48.519,90.092c-10.999,0-19.948,8.948-19.948,19.948s8.949,19.948,19.948,19.948c11,0,19.948-8.948,19.948-19.948
			S59.519,90.092,48.519,90.092"/>
		<path clip-path="url(#SVGID_2_)" fill="#FFFFFF" d="M77.434,131.181c-0.329,0-0.597-0.268-0.597-0.597V89.495
			c0-0.33,0.268-0.597,0.597-0.597c0.33,0,0.597,0.267,0.597,0.597v41.089C78.03,130.913,77.763,131.181,77.434,131.181"/>
		<path clip-path="url(#SVGID_2_)" fill="#FFFFFF" d="M117.386,103.915c0.013-0.434,0.063-4.305-2.252-8.165
			c-1.646-2.743-4.836-4.715-9.224-5.702c-3.263-0.733-6.011-0.675-6.111-0.672H88.269c-0.33,0-0.596,0.268-0.596,0.597v40.612
			c0,0.329,0.267,0.597,0.596,0.597s0.597-0.268,0.597-0.597v-11.328h11.365c8.838,0,13.02-3.492,14.973-6.42
			C117.638,109.187,117.416,104.399,117.386,103.915 M114.212,112.174c-2.568,3.853-7.403,5.889-13.98,5.889H88.866V90.569h10.947
			c0.105-0.001,10.703-0.195,14.297,5.794c2.213,3.689,2.084,7.497,2.083,7.534c-0.001,0.022,0,0.045,0.001,0.067
			C116.197,104.012,116.493,108.752,114.212,112.174"/>
		<path clip-path="url(#SVGID_2_)" fill="#FFFFFF" d="M26.745,143.97c0,0.225-0.104,0.445-0.308,0.575
			c0.264,0.137,0.438,0.404,0.428,0.672c-0.014,0.424-0.308,0.759-0.956,0.759h-0.943v-2.665h0.956
			C26.36,143.312,26.745,143.509,26.745,143.97 M25.344,143.626v0.795h0.608c0.275,0,0.398-0.154,0.398-0.417
			c0-0.244-0.147-0.378-0.424-0.378H25.344z M25.942,145.662c0.338,0,0.539-0.17,0.539-0.475c0-0.271-0.18-0.461-0.488-0.461h-0.648
			v0.936H25.942z"/>
		<path clip-path="url(#SVGID_2_)" fill="#FFFFFF" d="M28.397,144.656c0-0.746,0.394-1.374,1.203-1.374
			c0.789,0,1.221,0.628,1.221,1.374c0,0.729-0.422,1.36-1.221,1.36C28.788,146.016,28.397,145.384,28.397,144.656 M29.601,145.702
			c0.551,0,0.816-0.511,0.816-1.046c0-0.548-0.277-1.056-0.816-1.056c-0.535,0-0.816,0.504-0.816,1.056
			C28.785,145.191,29.053,145.702,29.601,145.702"/>
		<path clip-path="url(#SVGID_2_)" fill="#FFFFFF" d="M32.347,144.656c0-0.746,0.394-1.374,1.203-1.374
			c0.789,0,1.22,0.628,1.22,1.374c0,0.729-0.421,1.36-1.22,1.36C32.737,146.016,32.347,145.384,32.347,144.656 M33.55,145.702
			c0.551,0,0.815-0.511,0.815-1.046c0-0.548-0.277-1.056-0.815-1.056c-0.535,0-0.816,0.504-0.816,1.056
			C32.734,145.191,33.002,145.702,33.55,145.702"/>
		<polygon clip-path="url(#SVGID_2_)" fill="#FFFFFF" points="36.79,145.976 36.412,145.976 36.412,143.312 36.79,143.312 
			36.79,144.589 37.93,143.312 38.401,143.312 37.318,144.518 38.458,145.976 38.003,145.976 37.074,144.793 36.79,145.111 		"/>
		<path clip-path="url(#SVGID_2_)" fill="#FFFFFF" d="M41.32,143.813c-0.144-0.097-0.397-0.205-0.565-0.205
			c-0.3,0-0.468,0.151-0.468,0.378c0,0.261,0.411,0.409,0.612,0.509c0.445,0.227,0.722,0.371,0.722,0.775
			c0,0.575-0.505,0.745-0.913,0.745c-0.321,0-0.652-0.11-0.959-0.391l0.234-0.261c0.184,0.18,0.472,0.317,0.671,0.317
			c0.251,0,0.548-0.086,0.548-0.411c0-0.177-0.221-0.325-0.488-0.452c-0.388-0.177-0.836-0.381-0.836-0.822
			c0-0.538,0.442-0.719,0.833-0.719c0.314,0,0.592,0.117,0.809,0.274L41.32,143.813z"/>
		<rect x="43.882" y="144.552" clip-path="url(#SVGID_2_)" fill="#FFFFFF" width="0.458" height="0.417"/>
		<path clip-path="url(#SVGID_2_)" fill="#FFFFFF" d="M48.383,143.813c-0.143-0.097-0.397-0.205-0.564-0.205
			c-0.301,0-0.468,0.151-0.468,0.378c0,0.261,0.411,0.409,0.612,0.509c0.444,0.227,0.722,0.371,0.722,0.775
			c0,0.575-0.505,0.745-0.913,0.745c-0.32,0-0.652-0.11-0.959-0.391l0.234-0.261c0.184,0.18,0.471,0.317,0.671,0.317
			c0.251,0,0.548-0.086,0.548-0.411c0-0.177-0.221-0.325-0.488-0.452c-0.388-0.177-0.836-0.381-0.836-0.822
			c0-0.538,0.441-0.719,0.833-0.719c0.314,0,0.592,0.117,0.809,0.274L48.383,143.813z"/>
		<polygon clip-path="url(#SVGID_2_)" fill="#FFFFFF" points="52.108,143.626 51.3,143.626 51.3,145.976 50.922,145.976 
			50.922,143.626 50.11,143.626 50.11,143.312 52.108,143.312 		"/>
		<path clip-path="url(#SVGID_2_)" fill="#FFFFFF" d="M53.517,144.656c0-0.746,0.394-1.374,1.203-1.374
			c0.789,0,1.221,0.628,1.221,1.374c0,0.729-0.421,1.36-1.221,1.36C53.908,146.016,53.517,145.384,53.517,144.656 M54.72,145.702
			c0.552,0,0.816-0.511,0.816-1.046c0-0.548-0.277-1.056-0.816-1.056c-0.534,0-0.815,0.504-0.815,1.056
			C53.905,145.191,54.172,145.702,54.72,145.702"/>
		<path clip-path="url(#SVGID_2_)" fill="#FFFFFF" d="M59.619,145.976h-0.455l-0.745-1.096h-0.458v1.096h-0.377v-2.665h0.939
			c0.492,0,0.913,0.308,0.913,0.779c0,0.368-0.23,0.636-0.585,0.743L59.619,145.976z M58.513,144.569
			c0.26,0,0.518-0.181,0.518-0.479c0-0.29-0.241-0.464-0.501-0.464h-0.568v0.943H58.513z"/>
		<polygon clip-path="url(#SVGID_2_)" fill="#FFFFFF" points="62.946,145.976 61.178,145.976 61.178,143.312 62.909,143.312 
			62.909,143.626 61.556,143.626 61.556,144.432 62.843,144.432 62.843,144.746 61.556,144.746 61.556,145.662 62.946,145.662 		"/>
		<rect x="65.141" y="144.552" clip-path="url(#SVGID_2_)" fill="#FFFFFF" width="0.458" height="0.417"/>
		<path clip-path="url(#SVGID_2_)" fill="#FFFFFF" d="M69.08,143.312h0.391l1,2.665h-0.404l-0.251-0.672h-1.08l-0.25,0.672H68.08
			L69.08,143.312z M69.698,144.99l-0.421-1.173l-0.425,1.173H69.698z"/>
		<path clip-path="url(#SVGID_2_)" fill="#FFFFFF" d="M74.088,145.692c-0.22,0.204-0.521,0.321-0.889,0.321
			c-0.772,0-1.287-0.585-1.287-1.361c0-0.815,0.535-1.36,1.277-1.37c0.324-0.003,0.651,0.087,0.872,0.221l-0.164,0.281
			c-0.167-0.097-0.431-0.17-0.711-0.17c-0.562,0-0.873,0.478-0.873,1.042c0,0.579,0.341,1.027,0.886,1.027
			c0.248,0,0.505-0.074,0.686-0.248L74.088,145.692z"/>
		<path clip-path="url(#SVGID_2_)" fill="#FFFFFF" d="M76.46,143.312h0.391l0.999,2.665h-0.404l-0.251-0.672h-1.08l-0.25,0.672
			H75.46L76.46,143.312z M77.078,144.99l-0.421-1.173l-0.424,1.173H77.078z"/>
		<path clip-path="url(#SVGID_2_)" fill="#FFFFFF" d="M80.298,143.312c0.779,0,1.25,0.629,1.25,1.341
			c0,0.711-0.484,1.323-1.25,1.323h-0.873v-2.665H80.298z M80.278,145.662c0.568,0,0.869-0.458,0.869-1.009
			c0-0.602-0.321-1.027-0.869-1.027h-0.475v2.036H80.278z"/>
		<polygon clip-path="url(#SVGID_2_)" fill="#FFFFFF" points="84.969,145.976 83.201,145.976 83.201,143.312 84.933,143.312 
			84.933,143.626 83.579,143.626 83.579,144.432 84.866,144.432 84.866,144.746 83.579,144.746 83.579,145.662 84.969,145.662 		"/>
		<polygon clip-path="url(#SVGID_2_)" fill="#FFFFFF" points="88.992,145.976 88.628,145.976 88.628,144.021 87.966,145.317 
			87.592,145.317 86.94,144.014 86.94,145.976 86.576,145.976 86.576,143.312 86.953,143.312 87.785,144.933 88.614,143.312 
			88.992,143.312 		"/>
		<polygon clip-path="url(#SVGID_2_)" fill="#FFFFFF" points="90.898,143.312 91.541,144.559 92.186,143.312 92.604,143.312 
			91.731,144.97 91.731,145.976 91.354,145.976 91.354,144.967 90.484,143.312 		"/>
		<rect x="94.73" y="144.552" clip-path="url(#SVGID_2_)" fill="#FFFFFF" width="0.458" height="0.417"/>
		<path clip-path="url(#SVGID_2_)" fill="#FFFFFF" d="M99.576,144.839h-0.685v-0.304h1.066v1.25
			c-0.358,0.178-0.622,0.228-0.916,0.228c-0.775,0-1.291-0.595-1.291-1.34c0-0.816,0.535-1.391,1.277-1.391
			c0.344,0,0.648,0.09,0.876,0.224l-0.177,0.274c-0.164-0.094-0.424-0.17-0.702-0.17c-0.575,0-0.873,0.499-0.873,1.063
			c0,0.559,0.34,1.013,0.889,1.013c0.167,0,0.388-0.054,0.535-0.106V144.839z"/>
		<path clip-path="url(#SVGID_2_)" fill="#FFFFFF" d="M102.509,143.312h0.391l0.999,2.665h-0.404l-0.251-0.672h-1.08l-0.25,0.672
			h-0.405L102.509,143.312z M103.126,144.99l-0.421-1.173l-0.424,1.173H103.126z"/>
		<polygon clip-path="url(#SVGID_2_)" fill="#FFFFFF" points="107.112,145.976 105.475,145.976 105.475,143.312 105.852,143.312 
			105.852,145.662 107.112,145.662 		"/>
		<polygon clip-path="url(#SVGID_2_)" fill="#FFFFFF" points="110.35,145.976 108.712,145.976 108.712,143.312 109.09,143.312 
			109.09,145.662 110.35,145.662 		"/>
		<polygon clip-path="url(#SVGID_2_)" fill="#FFFFFF" points="113.718,145.976 111.949,145.976 111.949,143.312 113.681,143.312 
			113.681,143.626 112.327,143.626 112.327,144.432 113.614,144.432 113.614,144.746 112.327,144.746 112.327,145.662 
			113.718,145.662 		"/>
		<path clip-path="url(#SVGID_2_)" fill="#FFFFFF" d="M117.359,145.976h-0.455l-0.746-1.096h-0.458v1.096h-0.378v-2.665h0.94
			c0.491,0,0.912,0.308,0.912,0.779c0,0.368-0.23,0.636-0.584,0.743L117.359,145.976z M116.253,144.569
			c0.26,0,0.518-0.181,0.518-0.479c0-0.29-0.241-0.464-0.501-0.464h-0.568v0.943H116.253z"/>
		<polygon clip-path="url(#SVGID_2_)" fill="#FFFFFF" points="119.059,143.312 119.701,144.559 120.346,143.312 120.764,143.312 
			119.891,144.97 119.891,145.976 119.514,145.976 119.514,144.967 118.644,143.312 		"/>
	</g>
</g>
</svg>
