<?xml version="1.0" standalone="no"?>
<!DOCTYPE svg PUBLIC "-//W3C//DTD SVG 20010904//EN"
 "http://www.w3.org/TR/2001/REC-SVG-20010904/DTD/svg10.dtd">
<svg version="1.0" xmlns="http://www.w3.org/2000/svg"
 width="353.000000pt" height="612.000000pt" viewBox="0 0 353.000000 612.000000"
 preserveAspectRatio="xMidYMid meet">

<g transform="translate(0.000000,612.000000) scale(0.100000,-0.100000)"
fill="#000000" stroke="none">
<path d="M0 3060 l0 -3060 87 2 88 2 -70 5 -70 6 0 197 -1 197 26 6 c14 3 408
8 875 11 468 3 884 7 925 9 81 4 1107 6 1435 2 l200 -2 3 -207 2 -207 -822 2
c-763 2 -2108 -10 -2117 -19 -2 -2 665 -4 1482 -4 l1487 0 0 1925 c0 1533 -3
1925 -12 1925 -9 0 -9 3 1 9 12 8 13 153 6 957 -5 522 -9 1005 -11 1074 -1 69
-3 149 -3 178 -1 44 -4 52 -20 52 -19 0 -19 -8 -14 -278 l6 -278 -54 -25 c-46
-20 -69 -24 -154 -24 -92 0 -106 3 -167 32 -198 94 -293 306 -224 506 l23 67
-23 0 c-14 0 -25 -8 -29 -21 -5 -16 -12 -19 -31 -15 -46 12 -314 17 -314 6 0
-6 36 -10 93 -10 81 0 185 -12 225 -25 9 -3 10 -10 3 -23 -9 -17 -14 -17 -143
-1 -73 10 -210 23 -305 29 -94 6 -213 14 -265 19 -97 9 -147 -2 -62 -14 27 -4
60 -9 74 -11 14 -2 95 -9 180 -14 85 -6 182 -14 215 -19 33 -6 95 -12 137 -15
137 -10 158 -15 158 -42 0 -24 -1 -24 -112 -25 -62 0 -126 -2 -143 -4 -48 -5
-396 -35 -438 -37 -21 -1 -41 -6 -44 -12 -6 -8 137 -4 357 10 369 24 380 23
380 -5 0 -12 -15 -21 -52 -31 -29 -7 -105 -30 -168 -50 -197 -64 -283 -89
-350 -105 -52 -11 -213 -62 -288 -90 -7 -3 -11 -9 -8 -14 4 -5 40 1 84 15 42
14 104 32 137 40 77 18 226 62 440 129 211 67 210 66 210 37 0 -20 -18 -31
-145 -86 -80 -34 -192 -87 -250 -116 -58 -30 -153 -78 -213 -109 -59 -30 -107
-58 -107 -62 0 -11 46 10 280 124 183 89 451 209 456 204 1 -1 5 -13 8 -27 7
-28 9 -26 -134 -102 -88 -46 -148 -90 -132 -96 6 -2 44 17 84 41 40 24 102 59
137 76 60 31 64 31 82 15 26 -24 25 -29 -20 -61 -95 -68 -141 -106 -141 -114
0 -13 35 6 101 56 86 65 97 70 120 49 10 -9 19 -22 19 -27 0 -6 -21 -36 -48
-66 -88 -104 -124 -152 -118 -158 8 -9 42 23 87 82 21 28 53 67 71 88 30 34
35 36 52 24 19 -14 18 -17 -18 -103 -21 -49 -54 -122 -73 -163 -32 -69 -37
-111 -13 -96 6 4 9 12 7 18 -3 7 11 41 29 77 18 36 52 104 74 153 37 80 42 87
60 77 26 -14 26 -22 -14 -174 -18 -72 -39 -158 -46 -191 -7 -33 -25 -102 -41
-152 -35 -114 -45 -168 -32 -160 18 11 75 189 93 292 6 33 17 80 25 105 7 25
25 91 40 148 22 82 31 102 46 102 10 0 21 -5 24 -10 5 -9 -7 -143 -39 -425
-16 -136 -18 -175 -9 -175 16 0 40 150 63 390 20 206 20 210 38 210 39 -1 40
-6 32 -325 -6 -288 -3 -345 15 -315 4 6 10 148 15 315 5 167 11 309 15 315 9
14 45 13 45 -2 1 -7 3 -74 6 -148 2 -74 10 -166 16 -205 6 -38 14 -122 17
-185 5 -94 9 -110 17 -90 7 17 8 67 3 150 -25 368 -28 487 -16 499 28 28 34 9
41 -136 3 -82 11 -177 16 -213 5 -36 10 -98 10 -138 0 -54 3 -73 12 -70 8 3
11 20 9 49 -1 24 1 40 6 36 4 -5 8 -463 8 -1018 0 -914 -1 -1009 -16 -1009
-17 0 -68 60 -86 102 -11 25 -48 46 -61 34 -3 -4 -11 -37 -18 -74 -31 -172
-46 -221 -70 -229 -12 -4 -34 39 -34 66 0 10 -6 24 -13 30 -20 16 -55 -25 -72
-83 -13 -43 -57 -95 -81 -96 -11 0 -34 42 -34 64 0 14 -31 46 -46 46 -5 0 -19
-35 -32 -78 -13 -42 -25 -83 -28 -91 -3 -9 -14 -11 -37 -7 -30 6 -34 4 -45
-28 -7 -19 -19 -40 -27 -46 -13 -11 -17 -7 -26 19 -6 17 -17 31 -23 31 -20 0
-45 -33 -52 -69 -9 -42 -29 -49 -58 -22 -12 11 -28 21 -34 21 -16 0 -31 -40
-42 -106 -11 -64 -60 -153 -107 -194 -26 -23 -33 -34 -24 -43 15 -15 61 19 83
64 14 26 24 34 48 35 16 1 30 -2 30 -6 0 -25 -53 -121 -77 -138 -29 -21 -27
-38 4 -28 24 8 59 61 82 122 9 27 30 68 44 91 15 24 27 49 27 57 0 8 11 36 25
61 13 26 27 62 31 81 8 42 23 44 30 4 7 -34 19 -46 55 -55 21 -5 32 2 71 43
39 41 47 57 53 103 12 99 44 153 53 91 4 -25 38 -52 64 -52 34 0 86 59 99 111
7 27 16 49 19 49 3 0 16 -18 29 -40 25 -45 31 -47 67 -24 29 20 54 73 59 127
2 21 9 62 16 92 l12 54 45 -54 c25 -30 58 -59 73 -64 l26 -9 1 -137 2 -136
-64 -29 c-110 -50 -214 -131 -218 -170 -5 -36 20 -35 35 2 8 18 27 45 43 60
30 27 142 91 182 103 21 6 22 4 22 -65 0 -68 -2 -74 -31 -101 -17 -16 -35 -29
-39 -29 -4 0 -10 -9 -13 -19 -5 -22 -114 -81 -147 -81 -12 0 -30 5 -42 11 -16
9 -19 17 -14 44 4 18 2 36 -3 39 -14 9 -34 -22 -33 -52 5 -89 20 -126 48 -115
11 4 13 -19 9 -148 -3 -84 -10 -167 -15 -184 -6 -16 -25 -40 -43 -52 -52 -36
-116 -67 -123 -60 -4 4 0 28 8 54 11 35 21 49 39 54 13 3 23 11 22 17 -2 7 2
12 7 12 19 0 10 31 -18 58 -15 15 -40 43 -54 63 -32 43 -82 69 -135 69 -21 0
-51 9 -68 20 -42 28 -52 25 -58 -14 -3 -19 -16 -45 -28 -57 l-22 -22 35 -31
c44 -38 55 -76 30 -100 -10 -9 -21 -13 -25 -10 -11 11 -39 -26 -34 -46 3 -11
-1 -24 -9 -31 -8 -6 -14 -24 -14 -38 0 -22 -8 -31 -38 -44 -21 -9 -46 -17 -56
-17 -17 0 -86 41 -86 51 0 4 23 30 50 58 64 66 65 89 8 139 -49 43 -65 59
-136 141 -90 102 -112 133 -112 158 0 37 -44 75 -82 71 -28 -3 -36 3 -68 49
-20 29 -47 65 -61 79 -28 30 -117 84 -140 84 -10 0 -22 19 -33 53 -9 28 -19
57 -21 62 -5 11 84 55 109 55 22 0 30 20 15 34 -8 7 -49 23 -92 36 -67 21 -80
22 -88 9 -7 -11 -9 -10 -9 6 0 15 -19 32 -65 59 -36 21 -68 42 -71 47 -10 17
-25 9 -19 -11 7 -22 -5 -26 -23 -8 -9 9 -8 14 4 23 14 10 11 15 -20 39 -20 15
-36 22 -36 16 0 -6 -5 -8 -10 -5 -6 4 -9 12 -8 18 3 12 -36 57 -49 57 -36 1
-204 442 -179 468 4 4 11 -19 37 -123 6 -22 17 -45 24 -51 8 -6 19 -33 26 -60
30 -129 117 -256 189 -279 11 -3 22 -15 25 -25 6 -20 103 -94 163 -124 19 -10
60 -22 93 -27 32 -5 71 -15 86 -21 84 -35 206 -3 253 65 13 20 28 33 32 31 4
-3 8 1 8 8 0 16 -55 42 -70 33 -5 -3 -10 -1 -10 6 0 8 11 9 33 5 30 -5 31 -5
13 9 -11 8 -34 15 -51 15 -30 0 -62 31 -57 57 1 6 -10 21 -24 32 -28 22 -50
28 -39 10 4 -5 -10 -3 -32 7 -21 9 -63 24 -93 34 -30 10 -46 18 -35 19 11 0
45 -8 75 -19 30 -10 56 -17 57 -16 2 2 -19 22 -47 45 -28 23 -69 70 -92 104
-69 104 -134 180 -181 215 -41 31 -45 38 -50 90 -3 31 -2 61 3 68 6 6 9 29 8
50 -1 46 22 93 79 160 87 101 125 148 140 170 19 30 49 31 59 2 4 -13 8 -54 9
-93 1 -63 3 -70 20 -67 16 2 17 1 5 -7 -12 -9 -10 -15 16 -43 16 -18 47 -67
67 -108 21 -41 60 -100 88 -130 28 -30 59 -65 70 -76 10 -12 19 -26 19 -31 0
-23 107 -125 166 -158 82 -46 286 -94 311 -73 9 7 44 5 110 -7 88 -16 97 -16
108 -2 8 12 15 13 22 6 15 -15 33 -3 33 21 0 15 5 17 28 11 34 -9 40 -8 77 10
42 20 75 50 75 68 0 9 -12 25 -27 35 -23 17 -32 18 -67 8 -33 -8 -44 -8 -57 4
-8 7 -31 17 -50 20 -38 8 -54 27 -54 64 0 24 -2 25 -62 22 -46 -3 -63 0 -63 9
0 7 -12 25 -27 41 l-27 28 22 23 c12 13 22 28 22 33 0 14 -57 64 -74 64 -24 0
-28 17 -11 49 19 38 19 81 0 107 -15 19 -19 61 -9 87 5 15 50 12 60 -4 7 -11
35 -11 52 -1 12 8 25 65 24 105 -1 9 3 17 9 17 5 0 9 6 9 13 0 8 11 23 24 36
20 19 31 21 82 17 32 -3 75 -9 94 -14 30 -7 127 7 134 20 23 41 36 83 26 86
-7 3 -3 10 9 19 27 18 27 43 1 43 -13 0 -18 -5 -14 -15 4 -9 1 -15 -7 -15 -8
0 -25 -6 -39 -13 -39 -20 -60 -27 -60 -19 0 4 20 15 45 25 49 21 47 30 -12 61
-45 23 -50 20 -22 -10 l24 -26 -28 13 c-22 10 -27 17 -22 33 4 12 7 28 7 36 2
18 22 40 38 40 6 0 13 7 16 15 9 22 21 18 28 -10 11 -42 36 -31 36 15 0 22 4
40 10 40 13 0 32 38 25 50 -4 6 -19 3 -38 -7 -18 -9 -39 -17 -47 -17 -9 -1
-14 -9 -13 -21 2 -19 -33 -52 -43 -42 -11 11 33 77 58 88 15 6 36 25 47 42 19
29 19 33 3 59 -9 15 -20 28 -25 28 -4 0 -5 -4 -2 -10 3 -5 -1 -10 -10 -10 -12
0 -15 5 -11 16 5 13 2 15 -15 11 -11 -3 -31 -1 -43 5 -31 13 -96 -13 -96 -40
0 -34 22 -82 42 -93 12 -7 17 -16 13 -26 -3 -9 -1 -19 4 -22 5 -3 7 -18 4 -33
-4 -22 -9 -26 -22 -19 -9 5 -22 6 -30 3 -10 -3 -12 4 -6 37 6 37 5 41 -14 41
-13 0 -21 -6 -21 -16 0 -11 -6 -15 -19 -11 -21 5 -80 -37 -69 -49 4 -4 21 -7
38 -6 18 0 30 -4 29 -11 -4 -30 2 -47 17 -47 9 0 18 9 21 20 6 23 28 26 49 6
12 -13 12 -17 -2 -30 -8 -9 -27 -16 -42 -16 -15 0 -50 -16 -79 -36 -29 -20
-67 -40 -85 -44 -18 -5 -66 -20 -107 -35 -72 -26 -75 -26 -125 -11 -49 15 -88
13 -113 -6 -15 -12 -66 -2 -117 24 -21 11 -47 17 -57 15 -11 -3 -19 -1 -19 4
0 5 -8 9 -17 9 -9 0 -24 7 -34 16 -24 22 -53 11 -44 -16 9 -30 -4 -24 -16 7
-7 20 -13 23 -21 15 -7 -7 -16 -12 -20 -12 -16 0 -7 20 15 34 20 14 27 14 66
0 43 -15 77 -12 67 5 -3 4 -20 11 -38 15 -20 4 -47 21 -68 44 -19 21 -69 60
-110 87 -41 27 -77 52 -80 56 -11 14 -124 69 -143 69 -21 0 -97 47 -97 59 0 3
4 13 9 20 8 13 13 11 28 -7 26 -32 71 -42 111 -25 17 7 32 18 32 23 0 6 11 10
24 10 40 0 40 19 1 36 -20 8 -33 19 -30 24 4 7 13 7 24 0 10 -5 21 -7 24 -3 3
3 13 -2 22 -11 20 -20 35 -13 28 14 -4 16 0 20 17 20 20 0 21 2 9 17 -8 10 -9
14 -2 10 6 -4 14 -3 17 2 8 12 -26 23 -46 16 -11 -5 -15 0 -13 17 1 13 3 29 4
36 0 6 8 12 17 12 11 0 13 6 9 20 -3 10 -10 42 -14 70 -7 46 -6 53 13 66 43
30 212 136 259 161 51 28 55 34 32 53 -8 7 -15 27 -14 44 l1 31 9 -33 c6 -18
16 -35 24 -38 10 -4 11 -13 4 -37 -5 -17 -13 -35 -19 -41 -16 -16 -12 -30 5
-16 9 7 18 10 21 8 9 -9 -46 -47 -60 -42 -9 4 -19 -10 -29 -40 -9 -25 -12 -46
-7 -46 4 0 10 6 13 13 3 8 7 6 12 -5 4 -11 -3 -34 -20 -64 -15 -25 -24 -48
-21 -51 8 -8 85 77 92 102 4 11 2 21 -5 23 -15 5 -14 23 2 20 6 -2 11 2 10 9
-2 7 8 24 22 37 24 24 29 44 25 96 -1 14 1 22 5 18 8 -7 13 -33 14 -69 1 -20
8 -28 25 -33 57 -14 149 46 141 93 -2 14 -7 47 -10 73 -4 26 -14 53 -22 59
-26 22 -34 48 -23 69 13 25 9 25 -32 0 -18 -11 -37 -20 -42 -20 -10 0 0 43 21
87 17 37 15 62 -9 76 -16 11 -22 9 -88 -23 -8 -4 -25 -26 -38 -48 -13 -23 -29
-42 -36 -42 -18 0 -46 -33 -46 -54 0 -14 -6 -16 -27 -12 -18 4 -41 0 -65 -12
-26 -14 -40 -16 -48 -8 -7 7 -19 7 -40 -1 -19 -7 -32 -8 -36 -2 -8 14 -111 0
-159 -22 -47 -21 -77 -46 -94 -77 -10 -19 -17 -21 -57 -15 -29 4 -54 1 -70 -7
-31 -17 -77 -97 -75 -132 1 -21 -6 -31 -27 -42 -16 -8 -35 -28 -41 -44 -7 -16
-26 -42 -42 -58 -40 -38 -38 -67 7 -95 33 -20 36 -25 30 -58 -3 -20 -9 -37
-14 -39 -4 -1 -41 -25 -81 -52 -44 -30 -85 -50 -101 -50 -39 0 -110 -27 -136
-51 -13 -12 -28 -33 -34 -49 -10 -24 -105 -96 -207 -156 -57 -34 -374 -232
-515 -323 -75 -48 -157 -98 -181 -111 -45 -24 -45 -24 -85 -6 -33 15 -44 16
-63 5 -33 -17 -81 -58 -94 -79 -5 -9 -20 -35 -33 -56 l-23 -39 7 920 c4 506 8
1024 8 1150 l1 230 425 1 c548 0 1904 15 1909 20 2 2 -532 4 -1187 4 l-1192 0
0 -3060z m27 2988 c-3 -8 -6 -5 -6 6 -1 11 2 17 5 13 3 -3 4 -12 1 -19z m0
-50 c-3 -7 -5 -2 -5 12 0 14 2 19 5 13 2 -7 2 -19 0 -25z m3459 -544 c1 -32 3
-116 4 -186 2 -70 1 -131 -3 -134 -4 -4 -7 1 -8 12 0 10 -2 28 -5 39 -2 11 -7
91 -11 179 -5 134 -4 158 8 154 10 -3 14 -22 15 -64z m-988 -56 c-2 -12 -8
-23 -15 -25 -6 -3 -10 4 -8 14 2 10 4 21 4 26 1 4 6 7 12 7 6 0 9 -10 7 -22z
m82 -41 c0 -26 -38 -56 -44 -35 -2 7 -7 21 -9 30 -6 16 -1 18 46 27 4 0 7 -9
7 -22z m-78 -38 c-4 -29 -3 -30 24 -26 16 3 42 12 59 21 35 18 38 15 49 -72 7
-56 -3 -82 -31 -82 -10 0 -11 5 -4 19 14 24 -28 66 -59 58 -15 -4 -20 0 -20
15 0 11 -8 22 -20 25 -20 5 -25 27 -14 57 10 27 21 18 16 -15z m-56 -14 c-3
-9 3 -24 14 -35 15 -15 16 -20 6 -20 -23 0 -42 42 -30 62 9 14 16 9 10 -7z
m-121 -53 c-28 -23 -85 -62 -120 -81 -22 -12 -60 -34 -85 -49 l-45 -28 -41 28
c-23 15 -47 28 -53 28 -11 0 -51 39 -51 51 0 4 63 6 140 5 133 -1 143 0 193
25 54 27 79 36 62 21z m250 -52 c4 -7 -3 -8 -22 -4 -38 9 -42 14 -10 14 14 0
29 -5 32 -10z m-800 -30 c-3 -5 -14 -10 -23 -10 -15 0 -15 2 -2 10 20 13 33
13 25 0z m785 -21 c0 -6 -4 -7 -10 -4 -5 3 -10 11 -10 16 0 6 5 7 10 4 6 -3
10 -11 10 -16z m-720 -70 c0 -7 8 -21 17 -31 12 -13 17 -37 18 -75 0 -44 4
-58 23 -73 12 -10 22 -23 22 -28 0 -5 7 -15 15 -22 8 -7 15 -23 15 -36 0 -13
5 -24 10 -24 6 0 10 -5 10 -11 0 -6 -7 -9 -15 -5 -24 9 -17 -21 10 -42 13 -11
22 -22 18 -26 -3 -3 -12 -1 -20 5 -10 9 -13 8 -13 -5 0 -9 -4 -16 -10 -16 -5
0 -10 -7 -10 -15 0 -8 -5 -15 -11 -15 -6 0 -8 8 -4 19 4 13 -4 28 -25 49 -29
30 -40 75 -20 87 5 3 7 12 3 20 -3 8 0 15 6 15 6 0 11 -4 11 -10 0 -5 5 -10
11 -10 8 0 8 4 1 13 -6 6 -11 14 -11 17 -9 38 -16 50 -28 50 -8 0 -11 -5 -8
-11 4 -5 1 -18 -7 -27 -34 -40 -49 -142 -20 -142 8 0 9 -5 3 -17 -27 -54 -33
-73 -27 -89 4 -9 9 -14 13 -10 4 3 17 -4 29 -15 l23 -22 -42 -26 c-92 -58
-152 -76 -181 -56 -29 21 -44 19 -23 -2 41 -42 169 -6 250 69 34 32 37 33 37
13 0 -18 -121 -96 -177 -114 -24 -8 -56 -11 -77 -7 -31 6 -37 4 -52 -21 -10
-15 -24 -33 -32 -40 -8 -6 -11 -16 -8 -21 12 -19 43 0 55 34 13 36 33 48 24
14 -6 -23 15 -28 23 -5 11 28 24 15 24 -25 0 -34 -4 -42 -29 -55 -17 -8 -36
-13 -43 -11 -7 2 -46 10 -87 17 -69 12 -99 31 -74 48 5 3 13 19 17 35 6 26 5
28 -8 17 -9 -8 -16 -21 -16 -30 0 -14 -2 -14 -10 -1 -5 8 -10 18 -10 23 0 10
51 31 71 28 14 -1 39 36 39 59 0 5 -16 14 -36 20 -30 10 -38 9 -55 -6 -23 -21
-30 -16 -22 14 4 17 10 21 26 16 16 -5 19 -3 14 10 -4 9 -1 16 6 16 7 1 32 18
57 40 l44 39 13 -29 c20 -48 26 -35 21 41 -5 61 -2 76 16 105 22 35 44 37 79
6 12 -11 21 -12 28 -5 12 12 -19 34 -73 52 -21 7 -40 17 -43 21 -3 5 -22 17
-41 26 l-35 17 22 23 c21 22 24 23 46 9 13 -9 28 -13 34 -10 11 8 2 47 -15 57
-7 5 -4 8 7 8 9 0 17 7 17 15 0 8 -4 15 -10 15 -24 0 -7 16 35 33 25 11 46 24
46 30 1 7 2 18 3 26 0 8 17 19 36 26 32 11 36 10 57 -16 13 -15 23 -33 23 -40z
m80 16 c0 -5 -5 -3 -10 5 -5 8 -10 20 -10 25 0 6 5 3 10 -5 5 -8 10 -19 10
-25z m10 -69 c0 -5 -7 -1 -15 10 -8 10 -14 24 -14 29 0 6 6 1 14 -9 8 -11 15
-24 15 -30z m89 -66 c1 -13 0 -13 -9 0 -5 8 -9 24 -9 35 l0 20 9 -20 c5 -11 9
-27 9 -35z m-20 -58 c1 -7 -3 -10 -9 -7 -5 3 -10 18 -9 33 0 24 1 25 9 7 5
-11 9 -26 9 -33z m71 22 c0 -8 -4 -12 -10 -9 -5 3 -10 10 -10 16 0 5 5 9 10 9
6 0 10 -7 10 -16z m-108 -36 c10 -20 27 -39 38 -43 18 -6 49 -45 35 -45 -9 0
-90 61 -96 73 -4 7 -10 23 -14 36 -11 37 17 21 37 -21z m78 -9 c0 -16 -4 -28
-9 -25 -8 5 -3 56 5 56 2 0 4 -14 4 -31z m-45 -79 c3 -5 2 -10 -4 -10 -5 0
-13 5 -16 10 -3 6 -2 10 4 10 5 0 13 -4 16 -10z m65 -35 c-14 -17 -40 -20 -40
-6 0 8 18 16 44 20 5 0 3 -6 -4 -14z m-70 -9 c0 -3 -4 -8 -10 -11 -5 -3 -10
-1 -10 4 0 6 5 11 10 11 6 0 10 -2 10 -4z m-120 -46 c0 -5 -5 -10 -11 -10 -5
0 -7 5 -4 10 3 6 8 10 11 10 2 0 4 -4 4 -10z m1334 -69 c3 -5 -4 -11 -16 -14
-25 -7 -33 -3 -23 12 8 13 32 14 39 2z m-58 -59 c1 -21 -3 -32 -12 -32 -16 0
-29 43 -19 60 12 20 29 4 31 -28z m68 28 c19 -7 24 -14 19 -27 -10 -29 -33
-51 -50 -49 -20 3 -29 66 -11 78 16 10 12 10 42 -2z m-1919 -20 c-10 -11 -20
-18 -23 -15 -7 6 18 35 31 35 5 0 2 -9 -8 -20z m1975 -14 c0 -7 -7 -19 -15
-26 -16 -13 -20 -3 -9 24 8 20 24 21 24 2z m-1310 -16 c0 -5 -2 -10 -4 -10 -3
0 -8 5 -11 10 -3 6 -1 10 4 10 6 0 11 -4 11 -10z m-570 -25 c0 -2 -15 -12 -32
-20 l-33 -16 25 20 c24 20 40 26 40 16z m88 -27 c-16 -24 -58 -37 -58 -19 0 6
6 11 14 11 7 0 19 7 26 15 20 24 34 17 18 -7z m426 -8 c-6 -6 -15 -6 -24 0
-13 9 -13 11 0 20 18 11 39 -5 24 -20z m-394 0 c-6 -11 -13 -20 -16 -20 -2 0
0 9 6 20 6 11 13 20 16 20 2 0 0 -9 -6 -20z m355 -10 c3 -5 2 -10 -4 -10 -5 0
-13 5 -16 10 -3 6 -2 10 4 10 5 0 13 -4 16 -10z m145 0 c0 -5 -9 -10 -21 -10
-11 0 -17 5 -14 10 3 6 13 10 21 10 8 0 14 -4 14 -10z m-61 -31 c-6 -11 -8
-27 -5 -34 3 -9 0 -12 -8 -9 -8 3 -16 -4 -19 -16 -3 -12 -10 -19 -15 -16 -6 3
-13 -2 -17 -11 -3 -10 -2 -19 3 -21 6 -2 5 -13 -2 -27 -12 -27 -26 -33 -26
-11 0 8 -6 16 -12 19 -20 7 13 61 38 65 17 2 20 8 16 28 -2 14 -1 24 4 23 23
-4 34 3 34 22 0 11 5 17 10 14 7 -4 6 -13 -1 -26z m-114 10 c11 -17 -1 -21
-15 -4 -8 9 -8 15 -2 15 6 0 14 -5 17 -11z m-455 -9 c0 -13 -11 -13 -30 0 -12
8 -11 10 8 10 12 0 22 -4 22 -10z m424 -42 c-11 -17 -24 -6 -24 19 0 26 1 26
14 8 8 -11 12 -23 10 -27z m233 10 c7 -5 17 -7 23 -3 19 12 40 -16 40 -56 0
-21 -4 -40 -9 -43 -11 -7 -23 22 -15 36 4 6 -6 21 -22 33 -22 17 -37 22 -63
17 -31 -5 -33 -4 -22 16 11 21 41 21 68 0z m123 3 c0 -5 -9 -11 -20 -14 -12
-3 -20 0 -20 7 0 6 9 12 20 13 11 1 20 -2 20 -6z m-870 -8 c-1 -16 -26 -40
-47 -47 -19 -6 -22 -4 -16 10 5 13 3 15 -7 9 -9 -5 -11 -4 -6 3 4 7 16 12 27
12 10 0 19 5 19 10 0 6 7 10 15 10 8 0 15 -3 15 -7z m437 -40 c-3 -10 -5 -4
-5 12 0 17 2 24 5 18 2 -7 2 -21 0 -30z m37 22 c3 -8 1 -15 -4 -15 -6 0 -10 7
-10 15 0 8 2 15 4 15 2 0 6 -7 10 -15z m442 -43 c-3 -3 -12 1 -20 7 -9 7 -25
10 -38 6 -22 -6 -22 -5 -4 9 16 13 21 13 42 -1 14 -9 22 -18 20 -21z m-1060
20 c-9 -14 -128 -93 -133 -88 -4 4 125 96 135 96 2 0 1 -4 -2 -8z m174 -27 c0
-21 27 -19 39 3 9 16 10 16 16 0 4 -10 -1 -25 -13 -38 -17 -18 -20 -19 -32 -5
-16 19 -30 19 -30 1 0 -8 15 -17 34 -20 19 -4 39 -12 45 -20 21 -25 24 -72 7
-102 l-17 -29 6 41 c6 41 -2 53 -40 59 -5 0 -18 5 -28 9 -22 10 -43 -7 -50
-39 -3 -18 0 -25 12 -25 14 -1 14 -2 -1 -11 -28 -16 -21 -39 15 -54 30 -13 31
-14 7 -15 -32 0 -50 17 -50 46 0 12 -7 27 -15 34 -8 7 -15 23 -15 35 0 12 7
28 15 35 21 18 19 29 -5 23 -23 -6 -27 12 -4 21 8 3 12 10 9 16 -6 10 13 15
53 11 16 -1 22 4 22 19 0 11 5 20 10 20 6 0 10 -7 10 -15z m485 -5 c3 -5 1
-10 -4 -10 -6 0 -11 5 -11 10 0 6 2 10 4 10 3 0 8 -4 11 -10z m378 -47 c-84
-72 -104 -83 -145 -83 -26 -1 -30 -3 -16 -10 22 -13 71 -100 52 -93 -8 3 -17
16 -20 29 -4 13 -17 33 -30 43 -34 27 -30 40 17 47 38 6 136 69 169 109 7 8
19 15 27 15 8 0 -17 -26 -54 -57z m-729 8 c-7 -9 -34 10 -34 24 0 13 3 12 18
-2 10 -10 17 -20 16 -22z m316 18 c0 -5 -4 -9 -10 -9 -5 0 -10 7 -10 16 0 8 5
12 10 9 6 -3 10 -10 10 -16z m417 15 c-3 -3 -12 -4 -19 -1 -8 3 -5 6 6 6 11 1
17 -2 13 -5z m-985 -22 c-5 -15 -54 -12 -59 4 -2 6 10 10 30 10 24 -1 33 -5
29 -14z m1898 -3 c-52 -23 -88 -65 -71 -82 8 -8 17 -5 34 11 23 21 64 31 52
13 -11 -19 13 -20 30 -1 10 11 23 20 28 20 6 0 2 -7 -9 -15 -16 -13 -17 -16
-4 -25 13 -8 13 -10 -2 -10 -25 0 -22 -15 5 -28 21 -10 21 -11 -7 -11 -21 -1
-27 -5 -22 -17 5 -14 -1 -15 -46 -8 -98 14 -139 9 -164 -20 -13 -14 -27 -26
-32 -26 -5 0 -15 -7 -22 -15 -16 -19 -30 -19 -30 -1 0 23 112 153 143 167 15
6 27 14 27 18 0 10 43 34 75 42 54 13 61 8 15 -12z m-1934 -68 c-7 -10 -44 -3
-63 12 -16 12 -17 44 -2 49 15 5 72 -49 65 -61z m338 63 c24 -9 19 -24 -9 -24
-18 0 -23 4 -19 15 7 17 7 17 28 9z m623 -16 c-3 -8 -6 -5 -6 6 -1 11 2 17 5
13 3 -3 4 -12 1 -19z m-305 0 c-16 -16 -15 -28 3 -28 8 0 15 -4 15 -9 0 -14
-23 -27 -53 -29 -21 -1 -30 4 -37 24 -13 33 -13 34 3 28 7 -2 21 2 32 10 25
19 55 22 37 4z m-122 -7 c0 -41 -106 -70 -118 -32 -3 10 0 12 12 8 11 -4 16
-1 16 10 0 14 2 14 19 -1 19 -17 20 -17 33 3 13 21 38 29 38 12z m225 -30 c0
-48 -9 -62 -12 -18 -2 30 3 57 9 57 2 0 3 -18 3 -39z m-957 1 c-56 -78 -126
-143 -179 -166 -32 -14 -63 -35 -70 -48 -18 -34 -48 -55 -104 -72 -27 -9 -63
-25 -80 -36 -16 -11 -42 -20 -57 -20 -15 0 -29 -4 -33 -9 -10 -18 -68 -42 -78
-32 -8 8 29 40 63 54 8 3 132 82 275 176 143 93 264 170 268 170 5 1 2 -7 -5
-17z m472 -3 c0 -5 -4 -9 -10 -9 -5 0 -10 7 -10 16 0 8 5 12 10 9 6 -3 10 -10
10 -16z m-383 -4 c45 -22 60 -43 38 -51 -9 -4 -20 -1 -25 6 -6 10 -9 9 -12 -1
-4 -12 -7 -12 -21 0 -10 7 -17 21 -17 29 0 13 -2 14 -12 3 -10 -11 -10 -14 0
-18 19 -7 15 -33 -5 -27 -13 4 -11 0 5 -13 22 -18 22 -20 7 -33 -22 -18 -34 0
-33 52 0 27 6 43 21 53 26 18 18 18 54 0z m503 -15 c0 -5 -5 -10 -11 -10 -5 0
-7 5 -4 10 3 6 8 10 11 10 2 0 4 -4 4 -10z m685 0 c-3 -5 -10 -10 -16 -10 -5
0 -9 5 -9 10 0 6 7 10 16 10 8 0 12 -4 9 -10z m660 0 c-28 -12 -37 -12 -30 0
3 6 16 10 28 9 21 0 21 -1 2 -9z m-1608 -22 c-3 -8 -6 -5 -6 6 -1 11 2 17 5
13 3 -3 4 -12 1 -19z m843 6 c0 -8 -4 -12 -10 -9 -5 3 -10 10 -10 16 0 5 5 9
10 9 6 0 10 -7 10 -16z m-659 -20 c-2 -10 -5 -42 -8 -71 -6 -67 -27 -88 -30
-30 -3 50 17 129 32 124 5 -2 8 -13 6 -23z m258 12 c12 -8 -2 -59 -17 -64 -7
-2 -12 3 -12 12 0 8 -4 17 -9 20 -4 3 -6 -6 -3 -19 5 -28 0 -30 -29 -15 -25
14 -24 45 2 64 20 14 47 14 68 2z m230 -16 c-12 -16 -26 -27 -31 -24 -10 6 29
54 44 54 5 0 -1 -13 -13 -30z m347 16 c-10 -6 -33 -20 -50 -32 -22 -14 -38
-18 -51 -13 -17 6 -17 8 -3 8 9 1 29 12 44 25 16 13 40 23 54 23 23 0 23 -1 6
-11z m124 5 c0 -5 -10 -11 -22 -13 -13 -2 -22 -9 -21 -15 2 -7 -4 -10 -12 -7
-18 7 -10 23 19 34 28 12 36 12 36 1z m-542 -30 c14 -8 22 -21 22 -38 0 -21
-3 -24 -12 -15 -20 20 -41 15 -35 -8 9 -35 -18 -22 -29 15 -9 28 -8 39 4 56 8
12 17 17 21 12 3 -6 16 -15 29 -22z m1347 19 c-3 -5 -11 -10 -16 -10 -6 0 -7
5 -4 10 3 6 11 10 16 10 6 0 7 -4 4 -10z m-1654 -27 c10 -8 15 -23 12 -34 -3
-10 -6 -19 -7 -19 -1 0 -16 -4 -34 -9 -30 -9 -32 -8 -27 9 4 12 -1 22 -12 29
-10 6 -13 11 -7 11 5 0 15 -5 21 -11 8 -8 13 -7 18 2 5 7 1 17 -8 24 -10 7
-17 15 -17 18 0 9 44 -5 61 -20z m194 -3 c15 -29 20 -72 9 -83 -9 -9 -34 3
-44 23 -8 16 4 90 15 90 3 0 11 -13 20 -30z m390 20 c3 -6 -1 -7 -9 -4 -18 7
-21 14 -7 14 6 0 13 -4 16 -10z m298 -10 c-3 -11 -10 -23 -15 -26 -16 -10
-128 -12 -128 -3 0 5 5 9 11 9 5 0 7 6 3 13 -6 10 -4 10 7 0 20 -19 64 -16 90
7 31 25 38 25 32 0z m-1337 -22 c-8 -39 -20 -53 -40 -45 -22 9 -20 37 2 38 15
0 14 1 -3 8 -19 8 -19 8 0 19 36 21 48 15 41 -20z m1654 -5 c-19 -24 -20 -29
-6 -39 30 -21 19 -50 -21 -60 -33 -8 -39 -13 -43 -44 -5 -31 -7 -33 -14 -12
-4 12 -14 22 -23 22 -12 0 -14 -8 -10 -35 7 -43 -8 -47 -16 -5 -6 27 -27 43
-27 20 0 -13 -37 -13 -45 1 -4 6 -13 8 -21 5 -7 -3 -18 3 -24 13 -8 16 -5 19
21 23 16 3 32 1 35 -3 6 -10 73 -4 86 9 18 18 5 56 -21 62 -34 8 -39 30 -7 30
14 0 26 5 26 10 0 6 11 10 24 10 14 0 28 5 31 10 3 6 22 10 41 10 l35 0 -21
-27z m-1590 -18 c-13 -15 -30 -12 -30 6 0 6 4 8 9 4 5 -3 13 0 16 6 4 5 9 8
12 5 3 -3 0 -12 -7 -21z m1106 8 c-1 -13 6 -18 23 -18 48 0 33 -36 -19 -48
-19 -5 -34 1 -55 19 l-30 25 30 -3 c25 -2 31 1 33 20 4 26 20 30 18 5z m249 7
c-3 -5 -11 -10 -16 -10 -6 0 -7 5 -4 10 3 6 11 10 16 10 6 0 7 -4 4 -10z m665
0 c-8 -5 -28 -9 -45 -9 -29 1 -29 1 -5 8 14 4 34 8 45 9 16 1 17 -1 5 -8z
m-2179 -27 c1 -16 2 -16 6 0 5 18 5 18 19 0 21 -28 17 -35 -22 -30 -44 6 -50
12 -34 32 17 20 30 19 31 -2z m623 5 c14 -6 28 -20 32 -30 8 -25 -22 -70 -44
-66 -30 6 -24 33 10 51 30 16 21 16 -17 1 -17 -7 -30 18 -21 41 7 18 8 18 40
3z m-706 -31 c2 -11 -3 -17 -17 -17 -25 0 -38 19 -20 31 19 12 33 6 37 -14z
m262 13 c0 -16 -38 -32 -46 -18 -4 6 -3 8 3 5 6 -4 16 0 23 8 14 17 20 19 20
5z m1348 -6 c33 -9 27 -21 -8 -16 -16 2 -30 8 -30 13 0 10 7 11 38 3z m-1245
-36 c-17 -11 -41 -17 -63 -16 -34 3 -35 2 -35 -31 0 -21 -6 -36 -15 -39 -13
-5 -13 -3 -1 12 8 9 10 20 6 24 -4 4 -10 2 -12 -5 -5 -13 -33 -6 -33 8 0 4 6
6 14 3 7 -3 16 2 20 11 3 9 2 13 -4 10 -6 -3 -15 -3 -21 0 -6 4 0 13 16 21 20
10 32 11 46 3 15 -8 27 -6 52 9 42 25 69 16 30 -10z m107 22 c0 -5 -4 -10 -10
-10 -5 0 -10 5 -10 10 0 6 5 10 10 10 6 0 10 -4 10 -10z m-285 -44 c-7 -37
-19 -46 -29 -23 -5 10 -7 10 -12 0 -7 -15 -24 -17 -24 -4 0 12 61 73 67 67 2
-2 1 -20 -2 -40z m620 30 c16 -12 17 -16 6 -30 -21 -25 -38 -19 -38 14 0 34 5
36 32 16z m185 -1 c16 -9 19 -14 9 -15 -8 0 -24 7 -35 15 -24 18 -7 19 26 0z
m259 -57 c1 -11 -6 -18 -17 -18 -10 0 -23 -5 -30 -12 -9 -9 -12 -7 -12 9 0 12
-3 28 -6 37 -4 12 0 16 15 16 12 0 25 8 28 18 6 14 8 13 14 -8 4 -14 7 -33 8
-42z m260 39 c21 5 23 3 18 -16 -6 -26 1 -51 15 -51 5 0 16 -7 25 -16 12 -12
13 -18 4 -27 -9 -9 -13 -6 -17 11 -5 16 -14 22 -35 22 -16 0 -28 3 -26 8 1 4
-2 8 -7 9 -4 1 -17 16 -27 33 -22 36 -16 59 10 36 10 -10 26 -13 40 -9z m-886
3 c11 0 17 -8 17 -24 0 -39 -12 -86 -22 -86 -5 0 -7 9 -3 19 8 27 -13 36 -36
15 -20 -18 -20 -17 -13 22 5 35 3 42 -18 52 -21 11 -19 12 17 7 22 -2 48 -5
58 -5z m138 -3 c-1 -4 -1 -16 -1 -27 0 -13 -7 -20 -20 -20 -23 0 -24 1 -8 35
10 23 31 31 29 12z m144 3 c3 -5 -1 -10 -11 -10 -12 0 -15 -6 -12 -25 3 -14
-1 -33 -8 -42 -12 -17 -13 -17 -19 0 -4 9 -12 17 -17 17 -6 0 -17 -8 -24 -17
-8 -11 -13 -13 -14 -6 0 7 12 20 26 30 14 9 30 27 35 40 9 24 33 31 44 13z
m-1057 -46 c-4 -60 19 -80 55 -46 13 12 28 22 34 22 6 0 14 6 17 13 3 6 5 3 4
-8 -1 -11 6 -33 17 -49 14 -21 16 -31 7 -34 -6 -2 -12 -16 -13 -30 -1 -25 -2
-24 -16 11 -18 43 -49 53 -39 11 22 -86 15 -114 -10 -41 -6 17 -16 33 -22 35
-15 5 -16 -42 -2 -69 8 -15 7 -19 -4 -19 -8 0 -16 14 -20 34 -6 33 -30 54 -41
36 -3 -4 -1 -20 5 -35 5 -14 10 -34 9 -43 0 -14 -2 -14 -6 -2 -22 68 -58 85
-48 23 l6 -38 -16 28 c-19 32 -52 34 -46 2 8 -41 6 -50 -11 -49 -11 1 -18 -5
-18 -17 0 -21 -20 -25 -38 -7 -15 15 -42 -7 -42 -33 0 -12 -11 -23 -26 -29
-39 -15 -43 -13 -37 26 5 31 2 46 -27 104 -4 8 -22 22 -40 31 -31 15 -32 16
-11 22 27 7 52 -15 99 -87 23 -37 32 -45 32 -29 0 38 -30 94 -60 111 -17 9
-30 21 -30 26 0 5 7 3 15 -4 8 -6 19 -9 24 -5 6 3 20 1 32 -5 28 -15 36 -5 16
18 -16 18 -16 19 8 30 14 7 33 12 41 12 37 0 116 55 147 103 9 15 27 27 38 27
18 0 20 -5 17 -46z m219 3 c2 -19 -1 -27 -6 -19 -4 7 -15 10 -23 7 -24 -10
-34 16 -13 32 29 21 40 16 42 -20z m393 17 c0 -8 -4 -12 -10 -9 -5 3 -10 10
-10 16 0 5 5 9 10 9 6 0 10 -7 10 -16z m515 -22 c-6 -7 -35 18 -35 31 0 5 9 2
20 -8 11 -10 18 -20 15 -23z m885 -18 c0 -2 -5 -4 -10 -4 -12 0 -30 41 -23 53
4 7 33 -36 33 -49z m-454 38 c16 -10 47 -79 40 -90 -6 -10 -56 -4 -56 7 0 4 5
12 10 19 7 9 7 9 -2 2 -21 -17 -28 -11 -30 28 l-1 37 -4 -34 -4 -33 -25 23
c-13 12 -24 26 -24 30 0 15 77 24 96 11z m-466 -27 c20 -24 6 -28 -15 -5 -10
11 -13 20 -8 20 6 0 16 -7 23 -15z m211 -41 c-2 -25 2 -51 8 -57 6 -6 11 -19
11 -28 0 -9 7 -22 15 -29 9 -7 13 -15 11 -18 -8 -7 -30 20 -50 61 -12 27 -16
49 -11 78 9 54 21 49 16 -7z m174 20 c20 -31 19 -33 -22 -27 -34 5 -42 20 -21
41 17 17 24 15 43 -14z m-950 -20 c25 9 29 -16 5 -36 -26 -21 -58 -23 -82 -4
-26 19 -22 36 8 36 18 0 28 6 32 22 l5 22 9 -23 c5 -15 14 -21 23 -17z m125
26 c0 -5 -4 -10 -10 -10 -5 0 -10 5 -10 10 0 6 5 10 10 10 6 0 10 -4 10 -10z
m-40 -10 c0 -5 -7 -10 -15 -10 -8 0 -15 5 -15 10 0 6 7 10 15 10 8 0 15 -4 15
-10z m290 -15 c17 -9 30 -23 29 -33 0 -10 -3 -12 -6 -4 -12 29 -45 8 -47 -31
-1 -11 -7 -22 -13 -25 -19 -6 -27 26 -12 44 10 13 10 17 -2 25 -8 5 -17 9 -21
9 -15 0 -8 19 10 23 29 8 32 7 62 -8z m-694 -33 c-18 -16 -18 -16 -6 6 6 13
14 21 18 18 3 -4 -2 -14 -12 -24z m164 8 c0 -5 -4 -10 -10 -10 -5 0 -10 5 -10
10 0 6 5 10 10 10 6 0 10 -4 10 -10z m1114 -11 c6 -5 2 -11 -7 -15 -9 -3 -17
-11 -17 -17 0 -7 4 -7 12 1 20 20 29 14 22 -15 -9 -36 -9 -36 -33 -23 -12 6
-19 15 -16 21 4 5 1 8 -7 7 -8 -2 -14 9 -16 30 -3 31 -2 32 25 26 15 -4 32
-10 37 -15z m196 11 c0 -5 -4 -10 -10 -10 -5 0 -10 5 -10 10 0 6 5 10 10 10 6
0 10 -4 10 -10z m100 0 c0 -5 -4 -10 -10 -10 -5 0 -10 5 -10 10 0 6 5 10 10
10 6 0 10 -4 10 -10z m-2408 -29 c-17 -17 -32 -35 -32 -40 0 -6 -5 -11 -10
-11 -7 0 -7 8 1 23 18 35 41 57 58 57 10 0 5 -10 -17 -29z m1277 15 c8 -9 8
-16 2 -20 -11 -7 -3 -37 13 -48 7 -5 7 -11 -2 -20 -10 -10 -18 -10 -40 2 -21
12 -28 24 -30 55 -3 32 -1 38 9 28 18 -18 30 -16 23 2 -8 19 10 20 25 1z m335
-30 c7 -34 5 -38 -6 -28 -9 7 -13 23 -10 42 5 38 7 36 16 -14z m614 19 c2 -2
-2 -14 -9 -26 l-12 -23 -18 23 c-27 33 -24 44 8 36 16 -4 29 -8 31 -10z m-41
-59 c-4 -9 -18 -16 -32 -16 -26 0 -31 13 -18 58 l6 24 25 -25 c15 -15 22 -31
19 -41z m-2072 3 c11 -2 26 0 33 5 9 5 24 -2 44 -23 20 -20 40 -31 58 -31 22
0 32 -7 44 -32 9 -17 16 -32 16 -33 0 -6 -73 -16 -129 -16 -53 -1 -65 3 -95
27 -19 16 -35 35 -35 42 -2 21 14 13 37 -18 19 -26 29 -30 67 -30 25 0 45 5
45 10 0 6 -17 10 -39 10 -33 0 -42 5 -63 38 -14 20 -33 53 -43 72 l-17 35 28
-27 c16 -14 38 -28 49 -29z m702 31 c2 -22 -5 -25 -27 -10 -13 9 -13 11 0 20
21 14 26 12 27 -10z m583 -5 c-7 -8 -19 -15 -27 -15 -10 0 -8 6 8 19 27 22 38
19 19 -4z m633 -5 c5 -21 14 -31 32 -36 14 -3 25 -10 25 -14 0 -13 -24 -28
-50 -32 -24 -3 -25 -1 -22 40 2 32 -1 42 -13 42 -28 0 -14 25 16 29 4 1 9 -12
12 -29z m244 10 c-3 -13 1 -24 14 -30 25 -14 24 -30 -1 -30 -12 0 -20 -7 -20
-17 0 -13 -5 -11 -23 8 -22 22 -23 25 -7 39 9 8 19 23 23 33 9 24 21 22 14 -3z
m-717 0 c0 -5 -2 -10 -4 -10 -3 0 -8 5 -11 10 -3 6 -1 10 4 10 6 0 11 -4 11
-10z m-538 -30 c6 0 9 -3 6 -6 -9 -8 -48 14 -48 27 0 6 7 3 16 -5 8 -9 20 -16
26 -16z m323 20 c3 -5 -1 -10 -9 -10 -8 0 -18 5 -21 10 -3 6 1 10 9 10 8 0 18
-4 21 -10z m-179 -14 c3 -7 -6 -26 -20 -41 -16 -17 -26 -22 -26 -14 0 8 -9 3
-23 -13 -13 -15 -35 -30 -50 -33 -27 -7 -28 -6 -31 33 -1 8 -12 20 -26 27 -31
17 -24 19 21 4 19 -6 40 -19 46 -27 7 -9 16 -12 20 -9 4 4 -3 14 -15 23 -18
12 -20 18 -10 28 36 35 104 49 114 22z m1374 4 c0 -5 -7 -7 -15 -4 -8 4 -15 8
-15 10 0 2 7 4 15 4 8 0 15 -4 15 -10z m-190 -14 c0 -8 6 -16 13 -19 6 -2 9
-8 5 -12 -4 -4 -14 -2 -23 5 -17 14 -20 40 -5 40 6 0 10 -6 10 -14z m55 -4
c-3 -3 -11 0 -18 7 -9 10 -8 11 6 5 10 -3 15 -9 12 -12z m61 -19 c-5 -13 -4
-14 9 -3 9 7 15 8 15 2 0 -6 6 -12 14 -14 12 -2 10 -12 -9 -52 -15 -30 -22
-61 -20 -85 2 -20 -1 -40 -5 -46 -4 -5 -11 -21 -14 -35 -4 -15 1 -9 13 14 11
21 18 43 14 49 -3 5 -1 7 5 3 6 -3 17 3 25 14 13 18 21 20 53 14 22 -5 43 -7
48 -6 5 2 6 -4 3 -13 -5 -10 0 -15 13 -15 24 0 25 -6 6 -26 -19 -18 -30 -18
-22 2 3 8 2 12 -4 9 -6 -3 -10 0 -10 7 0 9 -13 13 -39 12 -52 -2 -64 -11 -57
-45 3 -16 1 -31 -6 -35 -8 -5 -9 -1 -5 12 11 32 -37 -32 -50 -66 -15 -41 0
-29 22 16 9 19 20 33 23 29 3 -3 -5 -25 -18 -49 -22 -41 -25 -43 -54 -35 -17
5 -47 6 -66 3 -33 -6 -34 -5 -15 10 11 8 27 16 35 16 39 1 40 16 6 55 -27 30
-33 43 -25 56 6 11 5 20 -1 24 -5 3 -7 13 -4 23 3 10 -6 4 -21 -13 -23 -26
-25 -27 -13 -5 7 14 13 30 13 35 1 18 29 55 42 55 13 0 33 31 33 50 0 6 -5 8
-12 4 -7 -4 -8 -3 -4 4 7 12 36 5 36 -9 0 -11 36 -6 47 6 5 4 2 5 -5 1 -7 -4
-15 -1 -18 8 -3 9 -11 13 -18 9 -6 -3 -7 -2 -3 3 5 5 13 10 18 10 5 1 12 2 16
3 4 0 -2 8 -13 17 -18 14 -18 15 4 4 15 -8 21 -17 18 -27z m-1126 -8 c-6 -15
-13 -26 -16 -23 -2 3 0 18 6 33 6 15 13 26 16 23 2 -3 0 -18 -6 -33z m-1413
-12 c-17 -18 -22 -8 -11 22 5 12 10 13 17 6 8 -8 6 -16 -6 -28z m1553 21 c31
-3 32 -3 10 6 -21 8 -19 9 14 5 52 -6 73 -26 58 -57 -10 -21 -11 -21 -11 -3
-2 32 -17 51 -33 38 -19 -16 -108 -4 -108 14 0 10 6 13 18 8 9 -4 33 -9 52
-11z m-655 -31 c-2 -21 2 -41 8 -45 7 -4 8 -11 0 -20 -5 -7 -13 -22 -16 -33
-7 -19 -6 -19 7 -2 14 18 56 32 56 18 0 -10 -35 -51 -44 -51 -4 0 -4 5 -1 10
4 6 -8 2 -26 -7 -32 -18 -36 -36 -10 -40 8 -1 20 6 28 15 15 21 17 8 2 -21 -6
-12 2 -7 19 13 17 19 31 31 32 26 0 -5 7 -3 15 4 26 21 25 7 -2 -25 -24 -29
-24 -29 -18 -5 6 22 3 20 -19 -10 -22 -29 -24 -36 -11 -38 8 -2 12 -9 9 -15
-4 -7 5 -1 19 12 15 14 27 32 27 42 0 9 7 19 15 23 19 7 19 1 -2 -32 l-17 -27
27 24 c21 19 30 22 39 13 9 -9 9 -12 -2 -12 -20 0 -50 -31 -50 -52 0 -10 5
-18 11 -18 5 0 -2 -15 -16 -34 -15 -20 -22 -37 -16 -40 5 -4 18 7 27 24 23 38
31 38 29 -1 -2 -30 -21 -53 -36 -43 -4 2 -15 -6 -23 -18 -17 -23 -22 -14 -7
11 11 16 -9 41 -33 41 -8 0 -25 -14 -37 -32 -17 -24 -19 -30 -7 -26 12 5 17
-1 20 -22 3 -21 0 -30 -13 -33 -13 -4 -19 2 -21 22 -2 18 -9 26 -20 25 -25 -2
-23 36 3 82 11 20 19 48 17 63 -3 23 -7 26 -45 26 -42 1 -43 0 -43 -33 0 -22
-4 -32 -12 -29 -17 5 -17 34 -1 76 17 43 17 44 -6 38 -16 -4 -19 0 -15 25 5
44 14 68 25 68 5 0 9 -4 9 -9 0 -5 7 -11 16 -13 14 -3 13 -7 -6 -31 l-22 -28
27 7 c22 5 26 4 20 -6 -5 -9 -4 -11 3 -6 19 11 15 36 -4 29 -14 -5 -15 -3 -5
15 12 22 15 49 5 39 -9 -8 -44 11 -44 24 0 6 6 6 19 0 21 -12 34 -1 46 38 7
24 7 24 -19 -4 -18 -19 -26 -23 -26 -13 0 20 43 48 59 39 6 -4 9 -15 5 -24
-11 -28 5 -19 21 13 21 41 32 38 30 -7z m373 4 c3 -24 0 -27 -27 -27 -35 0
-39 14 -14 42 22 24 37 18 41 -15z m182 19 c0 -8 -4 -18 -10 -21 -5 -3 -10 3
-10 14 0 12 5 21 10 21 6 0 10 -6 10 -14z m1190 -11 c-7 -8 -16 -13 -20 -10
-11 7 -23 -32 -15 -45 4 -6 11 -8 16 -5 14 9 11 -9 -5 -31 -11 -14 -17 -16
-27 -7 -6 6 -19 9 -27 5 -12 -4 -10 2 6 25 12 17 22 37 22 45 0 20 21 38 43
38 16 0 17 -3 7 -15z m-335 -17 c6 -6 4 -7 -7 -3 -14 6 -18 2 -18 -14 0 -12
-3 -20 -7 -18 -5 1 -8 -2 -8 -8 0 -5 3 -9 8 -7 4 1 7 -2 7 -8 0 -15 -16 -12
-30 5 -9 11 -22 14 -42 10 -37 -8 -35 2 5 36 32 28 67 30 92 7z m-825 -8 c0
-5 -5 -10 -11 -10 -5 0 -7 5 -4 10 3 6 8 10 11 10 2 0 4 -4 4 -10z m-415 -10
c3 -5 2 -10 -4 -10 -5 0 -13 5 -16 10 -3 6 -2 10 4 10 5 0 13 -4 16 -10z m325
1 c0 -6 -5 -13 -11 -16 -6 -4 -7 -19 -4 -36 5 -20 3 -29 -7 -30 -7 -1 -20 -2
-28 -3 -8 0 -14 -6 -13 -13 2 -7 -4 -10 -12 -7 -18 7 -19 6 2 49 9 19 22 35
29 35 6 0 14 7 18 15 6 16 26 21 26 6z m1025 -1 c3 -5 -1 -10 -9 -10 -9 0 -16
5 -16 10 0 6 4 10 9 10 6 0 13 -4 16 -10z m-2285 -34 c29 -26 49 -35 93 -40
53 -7 57 -9 67 -42 14 -41 50 -68 79 -59 11 3 30 19 41 36 12 16 25 29 30 29
4 0 36 16 70 35 73 41 78 42 78 13 4 -143 17 -169 67 -130 39 31 55 28 55 -9
0 -17 5 -39 10 -50 12 -21 49 -26 67 -8 8 8 9 -7 6 -54 -5 -60 -3 -68 18 -89
14 -13 30 -36 37 -52 11 -24 17 -27 39 -22 20 6 24 4 20 -7 -3 -8 10 -30 29
-49 36 -38 47 -85 25 -111 -13 -16 -71 -254 -71 -291 0 -12 15 -37 33 -56 l32
-34 6 49 6 50 1 -47 c1 -27 5 -48 10 -49 26 -3 46 -9 55 -18 6 -6 26 -11 43
-11 18 0 36 -4 39 -10 3 -5 14 -10 23 -10 9 -1 27 -9 40 -20 19 -15 24 -33 31
-112 8 -75 17 -109 48 -178 22 -47 45 -112 52 -145 7 -33 17 -76 22 -95 30
-117 30 -120 14 -142 -24 -35 -19 -60 32 -155 44 -84 46 -93 51 -186 4 -82 2
-96 -10 -92 -10 4 -18 -6 -27 -35 -13 -46 -50 -70 -104 -70 -19 0 -53 -7 -76
-15 -23 -8 -56 -12 -74 -9 -17 2 -53 7 -79 10 -40 5 -51 11 -69 40 -11 19 -27
34 -35 34 -7 0 -11 6 -8 14 10 27 -81 92 -117 83 -11 -3 -22 1 -27 8 -13 22
-90 55 -130 55 -21 0 -76 -9 -123 -21 -76 -19 -88 -25 -126 -68 -24 -25 -43
-48 -44 -51 0 -3 -2 -16 -3 -29 -2 -13 -13 -32 -24 -42 -29 -23 -27 -42 11
-113 25 -45 40 -62 61 -67 37 -10 46 -24 46 -75 0 -33 6 -46 33 -70 19 -16 32
-35 29 -43 -3 -8 3 -18 12 -23 23 -13 20 -28 -14 -63 -40 -42 -32 -73 21 -81
22 -4 42 -11 45 -15 3 -5 28 -9 55 -9 47 0 51 -2 61 -31 10 -29 14 -31 45 -26
l35 6 -16 -24 c-15 -23 -15 -27 1 -52 28 -46 55 -63 102 -63 33 0 42 -3 38
-14 -9 -23 26 -48 54 -39 13 5 42 8 64 7 22 -1 52 -2 67 -3 20 -1 32 -9 43
-31 9 -18 26 -32 43 -36 41 -10 52 -23 52 -60 l0 -34 -92 6 c-51 4 -99 11
-106 17 -12 10 -20 12 -92 23 -19 2 -50 7 -68 10 -17 3 -40 14 -51 25 -15 16
-23 18 -45 9 -41 -15 -43 -14 -50 34 -13 87 -65 96 -86 15 -10 -36 -13 -39
-48 -39 -20 0 -46 -7 -56 -15 -11 -8 -27 -15 -36 -15 -9 0 -33 -9 -53 -19 -35
-18 -41 -18 -72 -5 -19 8 -52 14 -73 14 -39 0 -62 16 -75 52 -3 9 -20 19 -38
23 -30 7 -36 4 -78 -43 -42 -46 -52 -51 -113 -63 -37 -7 -70 -11 -72 -8 -2 2
-6 225 -8 496 l-3 492 32 6 c18 3 41 1 52 -5 43 -22 70 -12 141 55 38 36 81
70 94 75 14 5 45 35 70 67 35 43 45 65 44 90 -1 40 -20 39 -24 -1 -4 -42 -54
-102 -136 -163 -20 -16 -60 -47 -89 -71 -40 -33 -57 -42 -73 -36 -12 4 -41 8
-66 8 l-45 1 0 1065 0 1064 70 42 c39 24 76 43 84 43 7 1 30 -14 51 -33z
m1305 24 c3 -5 1 -10 -4 -10 -6 0 -11 5 -11 10 0 6 2 10 4 10 3 0 8 -4 11 -10z
m749 -88 c29 -13 44 -27 40 -33 -5 -8 -10 -6 -16 5 -5 9 -17 16 -27 16 -32 0
-71 46 -70 82 l1 33 12 -40 c11 -33 21 -44 60 -63z m16 43 c18 -6 36 -18 39
-26 3 -11 1 -12 -10 -2 -8 6 -27 13 -44 15 -27 3 -30 7 -32 38 -1 28 0 30 5
11 5 -16 20 -28 42 -36z m-1490 35 c0 -5 -2 -10 -4 -10 -3 0 -8 5 -11 10 -3 6
-1 10 4 10 6 0 11 -4 11 -10z m285 -1 c4 -5 0 -18 -8 -27 -8 -9 -17 -24 -20
-32 -5 -13 -6 -13 -6 1 -1 8 4 20 11 27 8 8 8 15 -2 27 -10 12 -10 15 3 15 9
0 19 -5 22 -11z m277 5 c10 -9 -4 -44 -17 -44 -6 0 -20 9 -29 19 -13 15 -14
20 -4 24 18 7 44 8 50 1z m313 -33 c0 -6 5 -10 10 -8 6 1 9 5 8 9 -2 4 4 5 12
2 8 -4 15 -7 15 -9 0 -6 -32 -65 -35 -65 -2 0 -9 18 -15 41 -6 22 -18 43 -26
46 -7 3 -14 10 -14 15 0 6 10 4 23 -4 12 -9 22 -21 22 -27z m-1650 20 c3 -5 1
-12 -5 -16 -5 -3 -10 1 -10 9 0 18 6 21 15 7z m721 -43 c-13 -19 -16 -19 -16
-5 0 9 6 26 13 37 9 16 13 17 15 6 2 -9 -4 -26 -12 -38z m-24 20 c-7 -7 -12
-8 -12 -2 0 14 12 26 19 19 2 -3 -1 -11 -7 -17z m508 -9 l-22 -30 -22 20 c-13
12 -27 18 -31 14 -5 -5 -3 0 4 10 9 11 27 17 53 17 l39 0 -21 -31z m324 4 c-7
-30 -34 -66 -34 -46 0 7 5 15 10 18 6 3 10 17 10 31 0 13 5 24 10 24 6 0 8
-11 4 -27z m-768 8 c-4 -5 -3 -11 1 -14 5 -2 2 -2 -4 -1 -7 2 -13 -2 -13 -8 0
-6 -2 -9 -5 -6 -8 8 6 38 17 38 5 0 7 -4 4 -9z m532 -13 l36 -22 -27 -9 c-29
-9 -37 -27 -12 -27 8 0 15 -4 15 -10 0 -14 -13 -12 -36 5 -10 8 -29 15 -41 15
-26 0 -29 16 -8 43 13 18 14 17 18 -5 4 -21 4 -20 6 5 1 33 4 33 49 5z m326 6
c5 -14 4 -15 -9 -4 -17 14 -19 20 -6 20 5 0 12 -7 15 -16z m831 6 c3 -5 1 -10
-4 -10 -6 0 -11 5 -11 10 0 6 2 10 4 10 3 0 8 -4 11 -10z m-885 -15 c0 -8 -14
-29 -31 -47 l-31 -33 26 33 c14 19 26 40 26 48 0 8 2 14 5 14 3 0 5 -7 5 -15z
m859 -9 c7 -8 8 -22 3 -36 -6 -15 -11 -19 -16 -12 -4 6 -13 9 -21 5 -8 -3 -15
0 -15 6 0 6 11 11 25 11 14 0 25 4 25 9 0 12 -30 22 -42 14 -7 -3 -8 -1 -4 5
10 16 31 15 45 -2z m-2006 -76 c7 0 18 5 25 12 6 6 14 9 18 6 3 -4 -6 -14 -21
-24 -27 -18 -28 -18 -51 10 -13 15 -24 37 -24 49 1 18 5 15 21 -15 11 -21 25
-38 32 -38z m1167 60 c0 -5 -5 -10 -11 -10 -5 0 -7 5 -4 10 3 6 8 10 11 10 2
0 4 -4 4 -10z m774 -15 c-4 -8 -11 -15 -16 -15 -6 0 -5 6 2 15 7 8 14 15 16
15 2 0 1 -7 -2 -15z m-1658 -19 c-4 -15 -1 -26 6 -28 13 -5 2 -28 -13 -28 -10
0 -13 63 -2 73 12 13 15 7 9 -17z m914 14 c0 -5 -5 -10 -11 -10 -5 0 -7 5 -4
10 3 6 8 10 11 10 2 0 4 -4 4 -10z m-410 -36 c0 -2 -6 -1 -14 2 -8 3 -17 1
-21 -5 -9 -16 -35 -13 -35 4 0 8 -6 15 -12 16 -7 1 -2 4 12 8 21 6 70 -11 70
-25z m194 -13 c10 -15 -19 -42 -37 -35 -16 6 -24 44 -11 57 7 7 40 -8 48 -22z
m109 11 c21 -2 23 -22 2 -22 -8 0 -15 -4 -15 -10 0 -16 -37 -12 -44 5 -3 8
-13 15 -21 15 -9 0 -14 4 -11 8 4 7 41 8 89 4z m93 -7 c6 -16 -12 -45 -27 -45
-12 0 -31 39 -24 50 10 15 45 12 51 -5z m-311 -5 c3 -5 12 -7 20 -3 8 3 15 0
15 -6 0 -6 -5 -11 -11 -11 -7 0 -17 -7 -24 -17 -16 -21 -35 -9 -35 23 0 24 23
34 35 14z m345 -6 c0 -8 -4 -12 -10 -9 -5 3 -10 10 -10 16 0 5 5 9 10 9 6 0
10 -7 10 -16z m695 -4 c-5 -14 -2 -20 9 -20 9 0 16 -4 16 -10 0 -5 -9 -10 -19
-10 -20 0 -37 32 -26 50 11 18 27 10 20 -10z m-1127 -26 c-4 -23 -34 -30 -41
-10 -8 20 22 51 35 38 6 -6 8 -18 6 -28z m1085 17 c-3 -12 5 -28 23 -44 15
-15 25 -29 21 -33 -4 -4 -15 1 -26 10 -14 13 -20 14 -23 4 -3 -7 -5 9 -6 35
-1 26 2 47 7 47 5 0 7 -8 4 -19z m438 9 c5 0 9 -4 9 -9 0 -12 -38 -2 -47 12
-4 7 0 8 11 4 10 -4 22 -7 27 -7z m-1604 -30 c13 0 13 -2 -1 -15 -20 -20 -36
-19 -36 3 0 22 13 38 18 23 2 -6 10 -11 19 -11z m121 2 c6 -18 -15 -14 -22 4
-4 10 -1 14 6 12 6 -2 14 -10 16 -16z m435 4 c6 -16 -2 -28 -14 -20 -12 7 -11
34 0 34 5 0 11 -6 14 -14z m-353 -10 c0 -3 -4 -8 -10 -11 -5 -3 -10 -1 -10 4
0 6 5 11 10 11 6 0 10 -2 10 -4z m35 -80 c4 -34 16 -86 26 -116 23 -65 23 -75
3 -37 -16 29 -34 36 -34 13 0 -8 -4 -17 -9 -20 -5 -4 -7 3 -4 14 3 11 9 23 14
26 5 3 9 17 9 31 0 24 -1 25 -17 11 -10 -8 -25 -19 -33 -23 -13 -8 -13 -6 -2
8 8 9 11 25 7 37 -4 11 -2 20 4 20 6 0 11 -4 11 -10 0 -5 5 -10 11 -10 11 0 5
87 -8 129 -4 13 -3 14 5 2 6 -8 14 -42 17 -75z m1344 68 c3 -2 -8 -17 -22 -32
-27 -28 -38 -70 -16 -56 7 4 10 1 7 -7 -3 -8 -11 -14 -19 -14 -7 0 -24 -20
-36 -45 -22 -43 -22 -44 -2 -20 12 14 32 26 45 27 29 2 29 1 4 -22 -20 -18
-21 -18 -14 1 4 13 -1 10 -18 -10 -16 -19 -30 -27 -41 -23 -18 7 -13 40 9 58
8 6 14 18 14 25 0 8 5 14 10 14 6 0 10 7 10 16 0 9 9 29 20 44 21 30 12 51
-10 25 -7 -8 -9 -15 -6 -15 4 0 -1 -13 -11 -30 -25 -43 -35 -37 -12 7 10 21
19 43 19 49 0 7 6 15 13 17 11 5 47 -1 56 -9z m-1289 -4 c0 -5 -2 -10 -4 -10
-3 0 -8 5 -11 10 -3 6 -1 10 4 10 6 0 11 -4 11 -10z m85 -49 c5 -16 4 -21 -4
-17 -6 4 -11 16 -11 27 0 10 -4 19 -10 19 -5 0 -10 5 -10 12 0 19 26 -12 35
-41z m1242 43 c-3 -3 -12 -4 -19 -1 -8 3 -5 6 6 6 11 1 17 -2 13 -5z m37 -19
c-12 -19 -23 -24 -41 -20 -14 2 -28 7 -32 11 -3 4 6 4 22 2 19 -4 27 -1 27 9
0 8 4 12 9 8 5 -3 12 -1 16 5 3 5 8 10 11 10 2 0 -3 -11 -12 -25z m-1584 -25
c0 -15 -5 -12 -26 11 -19 22 -19 22 4 10 12 -6 22 -16 22 -21z m110 20 c0 -5
-5 -10 -11 -10 -5 0 -7 5 -4 10 3 6 8 10 11 10 2 0 4 -4 4 -10z m1113 -19 c-3
-13 1 -21 14 -24 10 -3 5 -5 -14 -6 -17 0 -40 -4 -50 -7 -17 -6 -17 -6 1 8 11
8 17 22 14 29 -4 10 2 15 17 17 18 1 22 -2 18 -17z m-1146 -55 c2 -34 0 -38
-19 -33 -27 7 -58 -13 -58 -38 0 -11 -4 -26 -9 -33 -5 -8 -8 14 -8 55 0 37 2
58 4 46 6 -31 21 -29 29 5 14 57 58 56 61 -2z m313 34 c0 -5 -5 -10 -11 -10
-5 0 -7 5 -4 10 3 6 8 10 11 10 2 0 4 -4 4 -10z m73 -5 c-3 -9 -8 -14 -10 -11
-3 3 -2 9 2 15 9 16 15 13 8 -4z m1277 6 c0 -5 -11 -11 -25 -13 -20 -4 -23 -3
-14 8 13 16 39 19 39 5z m-66 -20 c-5 -5 -20 -12 -34 -16 -23 -6 -22 -5 5 13
29 19 48 21 29 3z m-1709 -1 c3 -5 2 -10 -2 -10 -5 0 -15 -21 -23 -47 -13 -46
-14 -46 -17 -17 -7 53 23 105 42 74z m1385 -20 c23 0 27 -15 6 -23 -8 -3 -20
1 -26 9 -7 8 -21 14 -31 14 -11 0 -19 4 -19 9 0 15 34 18 43 4 4 -7 17 -13 27
-13z m-848 -7 c-15 -16 -29 -24 -31 -20 -4 11 29 47 45 47 7 0 1 -12 -14 -27z
m1038 7 c0 -5 -4 -10 -10 -10 -5 0 -10 5 -10 10 0 6 5 10 10 10 6 0 10 -4 10
-10z m-1165 -50 l30 -35 -28 25 c-16 14 -33 34 -39 45 -11 21 -10 20 37 -35z
m212 42 c7 -5 -5 -14 -33 -26 -52 -21 -70 -13 -34 14 27 21 48 24 67 12z m683
-7 c37 -19 52 -47 44 -80 -3 -14 -8 -25 -10 -25 -10 0 -61 36 -91 64 -25 22
-30 33 -22 43 15 17 43 17 79 -2z m297 -5 c-3 -28 16 -27 30 1 10 19 13 20 13
6 0 -10 5 -15 10 -12 6 3 10 0 10 -7 1 -9 5 -7 14 5 14 18 52 25 41 7 -4 -6
-10 -8 -15 -5 -4 3 -11 -2 -14 -11 -3 -9 -13 -14 -21 -10 -8 3 -19 -3 -25 -12
-9 -14 -10 -13 -5 8 l6 25 -19 -24 c-17 -21 -20 -22 -26 -6 -6 16 -8 17 -24 1
-32 -28 -69 -17 -40 12 16 16 31 15 23 0 -4 -7 4 -1 17 14 28 33 28 33 25 8z
m-1691 -22 c-2 -18 -4 -39 -5 -47 0 -8 -4 -11 -8 -8 -3 4 -11 3 -17 -3 -8 -6
-12 -3 -13 11 -1 12 3 17 9 13 7 -4 8 -2 4 4 -6 9 21 60 31 62 2 0 1 -15 -1
-32z m454 7 l24 -26 -24 9 c-14 5 -26 17 -28 26 -5 22 0 20 28 -9z m100 5 c0
-5 -8 -10 -17 -10 -15 0 -16 2 -3 10 19 12 20 12 20 0z m-354 -36 c-23 -16
-36 -18 -36 -4 0 6 9 10 20 10 11 0 20 5 20 12 0 6 3 8 7 4 5 -4 -1 -14 -11
-22z m568 -8 c25 -53 21 -79 -15 -95 -33 -14 -55 -6 -26 10 21 12 22 32 2 49
-18 15 -19 42 -3 58 18 18 24 15 42 -22z m1177 10 c-21 -23 -21 -54 0 -41 5 4
9 1 9 -5 0 -7 -7 -10 -15 -7 -8 4 -24 -6 -40 -24 -14 -17 -25 -25 -25 -17 -1
8 -7 6 -16 -7 -10 -12 -18 -15 -20 -9 -3 6 -17 9 -32 6 -15 -3 -25 -2 -22 1 3
3 17 7 32 9 14 2 33 10 42 17 13 11 16 11 16 0 0 -7 8 -2 17 11 10 14 16 25
14 25 -3 0 1 11 8 25 11 22 10 21 -13 -5 -14 -16 -25 -24 -26 -17 0 7 -4 10
-10 7 -5 -3 -10 -1 -10 5 0 6 8 10 17 8 11 -2 22 6 28 20 7 15 18 22 39 22
l29 0 -22 -24z m116 -18 c-3 -8 -6 -5 -6 6 -1 11 2 17 5 13 3 -3 4 -12 1 -19z
m-1820 -20 c-3 -7 -5 -2 -5 12 0 14 2 19 5 13 2 -7 2 -19 0 -25z m1561 1 l-5
-30 23 28 c13 15 23 23 24 17 0 -7 -8 -22 -18 -34 -24 -29 -44 -18 -36 18 7
27 7 27 -15 8 -11 -11 -21 -16 -21 -11 0 4 -7 2 -15 -5 -20 -17 -19 -1 2 22 9
10 27 18 41 18 21 0 24 -4 20 -31z m-84 -3 c-3 -9 -10 -16 -15 -16 -6 0 -5 9
1 21 13 24 24 20 14 -5z m383 18 c-3 -3 -12 -4 -19 -1 -8 3 -5 6 6 6 11 1 17
-2 13 -5z m-2227 -14 c0 -5 -4 -10 -10 -10 -5 0 -10 5 -10 10 0 6 5 10 10 10
6 0 10 -4 10 -10z m641 -6 c14 -13 16 -21 8 -35 -14 -27 -29 -23 -29 7 0 14
-4 23 -9 20 -5 -3 -7 -15 -4 -26 6 -24 -9 -26 -28 -4 -11 14 -9 19 11 35 30
23 29 23 51 3z m1556 -16 c-3 -8 -6 -5 -6 6 -1 11 2 17 5 13 3 -3 4 -12 1 -19z
m-1981 -44 c-9 -24 -36 -16 -36 11 0 16 6 25 15 25 8 0 16 6 16 13 1 6 4 2 6
-11 3 -13 2 -30 -1 -38z m117 34 c-13 -12 -26 -19 -29 -15 -4 4 1 14 12 22 29
22 41 18 17 -7z m376 -8 c18 -30 18 -80 -1 -80 -14 0 -48 20 -48 28 0 5 12 13
28 19 27 11 27 11 -5 6 -18 -3 -33 -3 -33 0 0 17 14 37 27 37 8 0 11 5 8 10
-3 6 -4 10 0 10 3 0 14 -14 24 -30z m931 5 c0 -3 -11 -5 -25 -5 -17 0 -23 4
-19 15 5 11 11 12 25 4 10 -5 19 -12 19 -14z m-1374 -22 c-11 -11 -19 6 -11
24 8 17 8 17 12 0 3 -10 2 -21 -1 -24z m109 27 c3 -5 1 -10 -4 -10 -6 0 -11 5
-11 10 0 6 2 10 4 10 3 0 8 -4 11 -10z m1292 -12 c-3 -8 -6 -5 -6 6 -1 11 2
17 5 13 3 -3 4 -12 1 -19z m219 -3 c2 -12 -2 -12 -17 -5 -10 6 -19 13 -19 16
0 3 5 2 10 -1 6 -3 10 -1 10 6 0 16 13 3 16 -16z m-1726 -5 c0 -5 -4 -10 -10
-10 -5 0 -10 5 -10 10 0 6 5 10 10 10 6 0 10 -4 10 -10z m368 -125 c41 -85
116 -227 146 -273 19 -31 33 -41 63 -47 21 -4 53 -13 72 -21 30 -13 33 -17 27
-46 -9 -43 -25 -61 -42 -47 -19 16 -17 29 4 30 16 1 16 2 0 6 -10 2 -18 9 -18
14 0 6 -4 7 -10 4 -6 -3 -10 4 -10 17 0 18 -2 20 -10 8 -8 -12 -20 -4 -64 45
-30 33 -55 63 -56 66 0 3 -11 18 -25 33 -25 27 -34 53 -15 41 12 -7 13 5 2 23
-5 7 -16 10 -28 6 -16 -6 -17 -5 -6 7 17 19 15 27 -9 31 -23 3 -55 74 -36 81
6 2 6 9 -1 22 -5 11 -15 32 -21 48 -6 15 -17 27 -25 27 -22 0 -28 17 -14 40
12 19 14 19 30 -17 9 -21 30 -65 46 -98z m249 109 c-7 -7 -37 7 -37 17 0 6 9
5 21 -1 11 -7 19 -14 16 -16z m-671 -9 c-3 -28 -16 -47 -16 -22 0 16 10 47 15
47 2 0 2 -11 1 -25z m1669 7 c-3 -3 -11 0 -18 7 -9 10 -8 11 6 5 10 -3 15 -9
12 -12z m-1190 -12 c0 -7 -6 -15 -12 -17 -8 -3 -13 4 -13 17 0 13 5 20 13 18
6 -3 12 -11 12 -18z m341 -8 c-17 -16 -18 -16 -5 5 7 12 15 20 18 17 3 -2 -3
-12 -13 -22z m-68 -21 c34 -19 60 -36 57 -39 -2 -3 -16 3 -29 12 -32 20 -80
22 -73 2 10 -25 -4 -25 -29 1 -26 26 -31 49 -11 56 15 7 10 8 85 -32z m-638
-36 c0 -49 -16 -61 -26 -20 -3 14 -10 22 -15 19 -10 -6 -12 29 -2 39 3 4 15 7
25 7 15 0 18 -8 18 -45z m56 18 c-3 -8 -6 -23 -6 -34 0 -10 -4 -19 -10 -19 -5
0 -10 18 -10 40 0 32 3 38 16 33 8 -3 13 -12 10 -20z m84 -5 c0 -29 -2 -31
-15 -17 -9 9 -13 23 -9 32 10 28 24 19 24 -15z m240 20 c0 -7 -5 -20 -10 -28
-9 -13 -11 -13 -20 0 -14 21 -12 28 8 33 9 3 18 5 20 6 1 0 2 -5 2 -11z m90
-19 c0 -17 -57 -48 -78 -42 -26 6 -26 9 -7 43 l14 25 10 -25 c9 -20 11 -21 10
-5 -1 11 -1 23 0 27 1 10 51 -13 51 -23z m290 17 c0 -2 -9 -6 -20 -9 -11 -3
-18 -1 -14 4 5 9 34 13 34 5z m22 -28 c-7 -7 -12 -8 -12 -2 0 14 12 26 19 19
2 -3 -1 -11 -7 -17z m-532 -2 c0 -7 -7 -19 -16 -27 -8 -7 -13 -21 -11 -31 4
-13 0 -18 -14 -18 -15 0 -19 7 -19 39 0 40 0 40 53 50 4 0 7 -5 7 -13z m-316
-54 c-15 -14 -17 -21 -38 -122 l-14 -65 3 85 c2 47 4 91 5 98 0 6 5 12 11 12
5 0 7 -5 3 -12 -4 -7 -3 -8 4 -4 7 4 12 16 12 27 0 16 2 17 13 7 12 -10 12
-15 1 -26z m171 18 c3 -5 1 -10 -4 -10 -6 0 -11 5 -11 10 0 6 2 10 4 10 3 0 8
-4 11 -10z m442 -23 c13 0 20 -3 17 -8 -3 -5 -14 -9 -25 -9 -10 0 -19 -7 -19
-15 0 -8 5 -15 10 -15 13 0 13 -37 1 -45 -5 -3 -16 2 -24 10 -9 8 -24 15 -35
15 -28 0 -31 7 -13 45 14 29 20 33 41 27 14 -3 35 -6 47 -5z m198 3 c3 -5 -1
-10 -9 -10 -9 0 -16 5 -16 10 0 6 4 10 9 10 6 0 13 -4 16 -10z m-745 -27 c0
-26 -1 -26 -17 -10 -16 16 -16 19 -3 27 20 13 20 13 20 -17z m-50 -3 c0 -11
-4 -20 -10 -20 -5 0 -10 9 -10 20 0 11 5 20 10 20 6 0 10 -9 10 -20z m97 -25
c0 -25 -4 -45 -9 -45 -4 0 -8 20 -8 45 0 25 4 45 8 45 5 0 9 -20 9 -45z m96
31 c10 -8 17 -18 16 -22 -1 -5 0 -16 4 -24 10 -28 14 -70 7 -75 -4 -3 -14 2
-21 11 -10 13 -10 17 2 25 11 7 8 9 -10 9 -17 0 -22 4 -17 16 3 8 2 12 -4 9
-6 -3 -11 6 -11 22 l-2 28 -4 -27 c-5 -31 -18 -37 -27 -12 -10 26 -7 34 17 44
29 12 29 12 50 -4z m716 -36 l3 -25 -22 20 c-12 11 -24 19 -26 18 -2 -1 -14 2
-26 7 -19 8 -14 9 22 7 40 -2 45 -5 49 -27z m-859 -13 c0 -14 -28 -19 -47 -8
-10 6 -12 11 -5 11 6 0 12 7 12 15 0 13 3 13 20 3 11 -7 20 -16 20 -21z m224
8 c-4 -11 3 -19 25 -26 17 -6 31 -15 31 -21 0 -6 -7 -7 -16 -4 -9 3 -24 6 -35
6 -14 0 -19 7 -19 30 0 17 4 30 10 30 5 0 7 -7 4 -15z m447 -15 c5 0 9 -9 9
-20 0 -11 -4 -20 -10 -20 -5 0 -10 7 -10 15 0 17 -32 20 -61 5 -10 -6 -19 -7
-19 -2 0 11 52 31 68 26 8 -2 18 -4 23 -4z m282 -25 c-5 -16 -33 -21 -33 -7 0
13 22 32 31 26 5 -2 6 -11 2 -19z m-101 -14 c-8 -5 -14 -12 -15 -17 -3 -11
-47 -15 -47 -4 0 12 25 25 52 27 16 2 19 0 10 -6z m-865 -19 c-12 -13 -13 -22
-6 -29 6 -6 6 -19 -1 -37 -9 -24 -13 -26 -25 -16 -11 9 -12 16 -5 25 14 16 -2
28 -25 19 -10 -4 -15 -2 -13 7 5 22 41 48 67 49 23 0 23 -1 8 -18z m907 -1
c17 -19 17 -20 -14 -36 -18 -9 -33 -15 -35 -13 -4 3 25 68 30 68 1 0 10 -9 19
-19z m-751 -9 c13 -14 14 -21 5 -30 -18 -18 -28 -15 -28 8 0 11 -4 20 -9 20
-5 0 -7 -10 -3 -22 3 -14 2 -19 -6 -14 -16 10 -15 43 1 49 20 9 23 8 40 -11z
m97 8 c0 -5 -4 -10 -10 -10 -5 0 -10 5 -10 10 0 6 5 10 10 10 6 0 10 -4 10
-10z m521 -24 c-15 -16 -21 -31 -17 -43 5 -15 0 -23 -19 -31 -21 -10 -33 -8
-73 10 -26 13 -49 24 -51 25 -8 5 18 53 29 53 6 0 5 -8 -2 -20 -10 -16 -10
-22 1 -32 11 -10 14 -10 18 0 3 6 9 12 14 12 4 0 5 -8 2 -17 -6 -16 -5 -16 10
-4 15 12 17 12 11 -3 -7 -18 0 -20 26 -6 10 5 20 21 24 34 7 27 35 60 44 51 3
-3 -5 -16 -17 -29z m159 -32 c8 -20 16 -25 38 -24 41 3 52 1 52 -9 0 -5 -10
-7 -22 -4 -13 3 -20 3 -16 -2 8 -9 -15 -35 -31 -35 -6 0 -11 5 -11 10 0 6 5
10 10 10 6 0 10 5 10 10 0 18 -32 10 -62 -15 -32 -27 -63 -30 -63 -5 0 8 5 14
12 13 8 -2 10 4 6 14 -5 13 -1 15 23 9 23 -5 25 -4 12 4 -10 6 -18 15 -18 19
0 6 32 26 48 30 1 1 7 -11 12 -25z m-903 -156 c-2 -35 -3 -9 -3 57 0 66 1 94
3 63 2 -32 2 -86 0 -120z m297 159 c15 -11 12 -12 -23 -12 -31 0 -37 2 -29 12
13 16 29 16 52 0z m-431 -12 c-3 -9 -8 -14 -10 -11 -3 3 -2 9 2 15 9 16 15 13
8 -4z m346 -78 c1 -10 8 -29 17 -42 11 -17 12 -25 4 -25 -7 0 -9 -8 -5 -21 4
-13 3 -19 -3 -15 -5 3 -12 28 -16 55 -4 29 -12 51 -21 55 -17 6 -29 -9 -21
-29 3 -8 1 -15 -4 -15 -5 0 -12 9 -15 21 -5 14 -13 19 -26 16 -20 -5 -26 7 -9
18 6 3 10 13 10 22 0 15 27 42 42 43 3 0 9 -8 11 -17 3 -13 5 -11 7 7 2 21 4
19 15 -15 8 -22 14 -48 14 -58z m-172 67 c-3 -3 -12 -4 -19 -1 -8 3 -5 6 6 6
11 1 17 -2 13 -5z m437 -20 c3 -8 2 -12 -4 -9 -6 3 -10 10 -10 16 0 14 7 11
14 -7z m-614 -3 c0 -5 -11 -11 -25 -13 -24 -5 -32 2 -18 15 9 10 43 8 43 -2z
m920 -18 c0 -20 -24 -11 -28 10 -2 12 1 15 12 11 9 -3 16 -13 16 -21z m-750 2
c-7 -9 -15 -13 -19 -10 -3 3 1 10 9 15 21 14 24 12 10 -5z m361 -24 c17 -16
19 -23 9 -41 -6 -12 -9 -28 -6 -36 3 -9 -1 -14 -13 -14 -12 0 -17 7 -17 22 1
17 -6 24 -29 29 -16 4 -24 7 -17 8 6 0 14 0 15 -1 10 -7 35 25 30 38 -7 19 4
18 28 -5z m-491 -26 c0 -5 -5 -3 -10 5 -5 8 -10 20 -10 25 0 6 5 3 10 -5 5 -8
10 -19 10 -25z m575 -31 c19 -30 17 -35 -13 -27 -15 3 -22 13 -22 29 0 31 13
30 35 -2z m275 -35 c0 -6 -4 -7 -10 -4 -5 3 -10 11 -10 16 0 6 5 7 10 4 6 -3
10 -11 10 -16z m-454 -4 c10 -8 15 -14 9 -14 -5 0 -19 6 -29 14 -11 8 -15 15
-10 15 6 0 19 -7 30 -15z m178 -1 c18 -7 12 -24 -10 -24 -8 0 -14 7 -14 15 0
17 2 18 24 9z m169 -24 c-9 -11 -19 -17 -21 -15 -6 6 18 35 29 35 5 0 1 -9 -8
-20z m-140 -22 c7 -25 3 -33 -12 -23 -13 8 -15 45 -2 45 5 0 11 -10 14 -22z
m48 6 c10 -13 10 -17 -1 -24 -18 -11 -30 -3 -30 21 0 23 13 25 31 3z m-146
-18 c19 0 35 -12 35 -28 0 -5 -16 -8 -35 -8 -24 0 -35 5 -35 15 0 7 -8 19 -17
25 -15 9 -14 10 7 4 14 -4 34 -8 45 -8z m-180 -6 c3 -5 15 -10 27 -10 11 0 34
-12 51 -26 25 -21 39 -25 79 -22 48 3 49 2 43 -22 -19 -76 -17 -136 8 -215 16
-48 28 -118 32 -176 6 -85 5 -100 -13 -136 -19 -36 -71 -91 -90 -94 -47 -8
-63 -6 -71 9 -5 9 -21 73 -36 142 -30 137 -28 132 -79 242 -39 86 -43 100 -50
173 -2 28 -7 62 -11 77 -6 24 -2 29 32 47 42 22 69 26 78 11z m489 -37 c4 -16
9 -36 12 -46 4 -12 1 -18 -8 -16 -69 9 -60 -14 15 -37 119 -36 161 -70 226
-185 39 -70 48 -144 25 -205 -9 -24 -21 -44 -26 -44 -5 0 -46 31 -91 69 -45
37 -100 80 -122 94 -22 14 -71 51 -109 83 -37 33 -78 65 -91 71 -12 7 -30 34
-39 60 -10 27 -21 56 -27 66 -6 11 -5 28 5 50 13 33 15 34 76 36 35 1 77 8 94
16 45 20 53 18 60 -12z m935 -42 c17 -11 5 -51 -15 -51 -8 0 -14 -6 -14 -14 0
-18 -26 -39 -39 -31 -7 4 -2 24 14 56 26 51 31 54 54 40z m-1175 -111 c17 -57
23 -64 105 -128 47 -38 111 -86 141 -107 30 -21 87 -67 126 -102 54 -48 70
-69 67 -84 -3 -10 -8 -19 -12 -19 -3 0 -15 -3 -27 -6 -17 -4 -26 2 -43 31 -11
20 -26 33 -31 30 -6 -4 -26 -38 -45 -76 -38 -75 -60 -94 -130 -112 -25 -7 -45
-16 -43 -22 2 -5 8 -8 13 -6 6 2 30 11 55 20 25 9 52 21 60 26 19 12 65 82 74
113 10 31 22 27 43 -15 19 -40 55 -55 77 -33 8 9 5 11 -13 8 -14 -2 -26 3 -29
10 -6 20 73 10 106 -14 15 -11 39 -25 55 -32 69 -31 80 -38 90 -59 6 -13 14
-23 19 -23 4 0 8 -9 8 -20 0 -13 -5 -18 -15 -14 -8 4 -15 1 -15 -5 0 -13 48
-36 106 -51 23 -5 68 -32 103 -60 34 -27 68 -50 75 -50 7 0 35 11 62 25 27 14
50 25 50 25 1 0 -1 -11 -4 -25 -5 -28 -3 -29 32 -15 24 9 25 12 20 81 -2 39
-6 75 -9 79 -3 5 -1 11 5 15 5 3 10 -3 10 -14 0 -12 4 -21 9 -21 14 0 32 26
23 34 -4 4 6 18 22 31 29 23 29 24 16 65 -9 27 -23 46 -42 56 -15 8 -28 17
-28 19 0 8 53 -6 68 -18 9 -7 17 -6 25 3 9 10 9 14 -2 17 -24 9 -51 42 -51 63
0 19 2 20 30 5 16 -8 44 -15 63 -15 54 0 158 -86 127 -105 -16 -10 -1 -25 26
-25 13 0 24 -5 24 -11 0 -11 -25 -8 -66 8 -16 6 -16 4 1 -25 19 -31 19 -32 -8
-97 -26 -62 -26 -67 -12 -101 8 -20 15 -47 15 -60 0 -12 5 -26 11 -30 7 -4 10
-29 7 -65 -3 -44 -10 -65 -28 -84 -30 -32 -18 -44 20 -22 16 10 34 16 41 15 7
-2 15 6 17 17 7 33 22 42 22 12 0 -30 14 -36 25 -9 7 16 8 15 15 -3 4 -11 6
-33 3 -50 l-5 -30 19 23 c18 22 20 22 35 5 9 -10 20 -30 23 -46 4 -15 12 -30
19 -35 16 -10 60 -10 67 1 4 5 9 5 13 -2 4 -6 2 -11 -3 -11 -6 0 -11 -7 -11
-16 0 -9 -5 -12 -11 -8 -9 5 -10 -1 -4 -22 4 -16 9 -55 11 -87 1 -32 9 -65 16
-74 7 -9 14 -37 15 -62 5 -80 8 -106 17 -120 6 -10 5 -12 -3 -7 -8 6 -11 -3
-9 -28 1 -26 -4 -42 -22 -62 -33 -35 -53 -44 -70 -34 -11 7 -5 17 28 48 23 22
42 46 42 53 0 36 -33 117 -59 144 -39 41 -66 102 -97 223 -5 18 -24 15 -24 -5
0 -15 -1 -15 -18 0 -10 10 -24 17 -30 17 -7 0 -17 9 -24 20 -7 11 -20 20 -30
20 -9 0 -18 4 -20 8 -1 5 -15 12 -30 16 -33 7 -38 -12 -12 -39 15 -15 14 -15
-12 -9 -38 9 -39 11 -25 28 15 17 7 36 -15 36 -10 0 -14 8 -12 22 2 11 -3 23
-9 25 -8 3 -13 -4 -13 -16 0 -35 -17 -24 -32 21 -10 31 -18 42 -35 43 -23 2
-32 -19 -13 -30 6 -3 10 -14 9 -23 0 -13 -2 -12 -9 4 -11 27 -30 40 -39 26
-11 -17 -89 -36 -103 -25 -7 6 -48 9 -93 8 -98 -3 -91 -2 -109 -20 -8 -8 -28
-17 -45 -19 -26 -3 -29 -1 -27 23 3 23 11 28 62 42 32 9 76 23 96 32 38 16
146 25 165 14 6 -4 17 0 24 9 10 13 10 17 -2 25 -12 8 -12 10 0 18 8 5 11 16
8 25 -4 10 -1 16 8 16 8 0 15 5 15 10 0 15 -33 12 -58 -6 -14 -10 -21 -22 -17
-31 3 -9 -2 -21 -12 -29 -21 -16 -43 -18 -43 -4 0 6 7 10 15 10 8 0 15 5 15
11 0 6 -10 9 -22 7 -15 -2 -22 -9 -22 -21 1 -9 -2 -17 -7 -17 -5 0 -9 11 -9
24 0 22 -24 43 -33 28 -2 -4 -2 -1 0 6 3 16 -25 62 -39 62 -5 0 -6 -5 -2 -12
4 -7 3 -8 -4 -4 -7 4 -12 11 -12 16 0 5 -19 27 -42 49 -33 31 -59 44 -110 58
-37 9 -64 21 -61 26 3 5 -1 13 -8 18 -11 7 -10 11 6 23 11 9 15 16 8 16 -22 0
-44 -12 -54 -32 -12 -22 3 -39 59 -64 17 -8 32 -21 32 -30 0 -22 -30 -84 -41
-84 -4 0 -25 -17 -45 -37 -33 -33 -42 -36 -83 -34 -36 2 -55 -4 -84 -23 -21
-14 -42 -26 -48 -26 -5 0 -20 -10 -33 -22 -38 -38 -87 -57 -154 -60 -60 -3
-62 -2 -62 21 0 13 -9 38 -20 56 -18 29 -21 53 -23 187 -2 106 1 168 10 201 8
27 11 57 6 70 -4 12 -6 41 -4 64 2 37 -2 47 -28 74 -29 29 -32 39 -41 129 -5
54 -19 121 -30 151 -16 40 -20 65 -15 96 3 24 10 43 14 43 4 0 15 -27 25 -60z
m935 -3 c26 -21 27 -25 16 -57 -24 -68 -54 -107 -81 -107 -19 0 -24 3 -18 16
4 9 16 51 27 94 11 42 22 77 24 77 3 0 17 -10 32 -23z m861 -131 c0 -2 -7 -7
-16 -10 -8 -3 -12 -2 -9 4 6 10 25 14 25 6z m-1183 -37 c7 -7 8 -18 3 -28 -11
-21 -31 -153 -24 -161 11 -11 34 35 34 69 1 43 14 25 24 -31 6 -33 4 -38 -12
-38 -21 0 -42 -18 -42 -38 0 -24 -54 -74 -73 -66 -9 3 -17 10 -17 15 0 5 -9 9
-19 9 -11 0 -23 5 -26 11 -4 6 0 9 11 7 12 -2 27 13 49 52 26 46 32 69 34 125
1 38 5 73 7 77 8 12 38 10 51 -3z m1148 -34 c-42 -26 -60 -32 -50 -15 3 6 12
10 19 10 8 0 19 7 26 15 7 8 20 15 29 15 9 0 -2 -12 -24 -25z m-100 -12 c-16
-16 -16 -18 4 -34 15 -13 17 -18 7 -22 -11 -4 -11 -20 2 -92 l15 -86 -26 -55
c-15 -30 -35 -58 -45 -61 -9 -4 -25 -16 -35 -26 -9 -11 -19 -18 -21 -16 -2 2
0 42 5 89 5 47 8 122 7 168 -2 76 0 85 23 106 42 39 100 65 64 29z m134 -165
l-2 -93 -9 78 c-9 72 -7 107 7 107 3 0 4 -42 4 -92z m-59 52 c0 -11 -4 -20
-10 -20 -5 0 -10 9 -10 20 0 11 5 20 10 20 6 0 10 -9 10 -20z m-930 -136 c14
-16 44 -46 68 -67 48 -43 50 -50 22 -74 -12 -10 -35 -31 -52 -46 -30 -27 -32
-28 -84 -16 -53 12 -65 24 -43 46 8 8 7 17 -4 33 -8 12 -12 30 -10 41 3 12 -1
25 -11 32 -14 10 -16 25 -12 77 2 36 5 74 5 85 1 19 27 -5 121 -111z m-760 35
c0 -20 -43 -86 -72 -109 -14 -11 -17 -19 -10 -23 5 -4 24 4 40 18 16 14 35 25
41 25 20 0 -15 -66 -56 -104 -38 -36 -66 -45 -78 -25 -4 6 -23 10 -44 9 -61
-3 -69 -1 -51 10 13 9 11 13 -10 30 -14 12 -19 20 -10 18 9 -2 18 2 20 7 3 6
-5 11 -17 13 -13 2 -23 10 -23 18 0 15 5 16 35 5 28 -11 94 6 136 35 25 17 40
38 49 67 8 23 16 46 18 51 7 12 32 -23 32 -45z m1747 -86 c-3 -10 -5 -4 -5 12
0 17 2 24 5 18 2 -7 2 -21 0 -30z m-126 -136 c-6 -8 -8 -24 -6 -37 6 -29 -14
-58 -26 -38 -5 7 -1 21 9 33 14 17 13 17 -8 -2 -18 -16 -29 -19 -42 -12 -11 6
-19 6 -23 -1 -5 -9 23 -15 48 -11 4 0 7 -3 7 -9 0 -5 1 -13 3 -17 1 -3 -9 -8
-23 -10 -14 -2 -30 -10 -36 -18 -6 -8 -16 -15 -23 -15 -6 0 -14 -7 -18 -15 -3
-9 -13 -15 -22 -13 -9 1 -21 -1 -28 -5 -16 -10 -28 12 -14 26 6 6 11 7 11 2 0
-4 9 0 20 10 11 10 20 15 20 11 0 -4 5 -4 10 -1 8 5 8 11 0 20 -22 27 4 61 52
67 14 2 32 9 40 16 8 6 17 10 20 7 3 -3 11 1 18 10 7 8 15 15 17 15 3 0 1 -6
-6 -13z m-1641 -17 c0 -5 -9 -10 -20 -10 -11 0 -20 -4 -20 -9 0 -5 9 -11 20
-14 17 -4 20 -14 21 -64 0 -32 4 -91 8 -130 5 -57 4 -73 -6 -73 -19 0 -16 -17
4 -24 15 -6 15 -8 3 -16 -12 -8 -12 -10 3 -16 23 -9 22 -40 -3 -47 -11 -3 -17
-1 -14 4 6 11 -24 24 -34 15 -3 -4 0 -12 8 -17 12 -9 11 -9 -5 -3 -11 4 -35 8
-53 9 -28 1 -33 -1 -29 -17 4 -15 1 -17 -20 -12 -23 6 -25 5 -18 -17 6 -20 5
-22 -6 -11 -21 20 -41 15 -34 -8 4 -11 3 -19 -2 -18 -4 1 -20 -9 -35 -23 -29
-27 -143 -67 -156 -55 -4 4 3 16 15 25 11 10 44 45 72 79 29 34 58 62 65 62
21 0 43 31 61 84 12 36 16 75 13 152 -2 82 0 104 10 104 18 0 9 25 -9 26 -47
3 -48 7 -5 15 56 9 66 6 66 -22 0 -11 7 -22 15 -25 10 -4 13 -14 9 -29 -6 -25
14 -39 36 -25 11 7 11 11 0 25 -16 20 -14 76 4 87 16 11 36 10 36 -2z m1463
-25 c-10 -13 -22 -25 -27 -25 -5 0 1 11 14 25 30 32 36 32 13 0z m228 -46 c6
-11 15 -17 22 -13 7 4 8 3 4 -2 -5 -5 -14 -9 -20 -9 -7 -1 -11 -6 -10 -12 3
-13 -35 -25 -42 -13 -3 4 5 21 17 36 15 19 16 24 5 15 -13 -10 -17 -11 -17 -1
0 7 -10 0 -22 -16 -13 -16 -31 -36 -40 -44 -21 -18 -28 -61 -12 -67 7 -2 16 9
22 25 5 16 17 29 26 29 18 0 21 -13 6 -22 -15 -9 -2 -25 15 -18 8 3 15 0 15
-5 0 -6 -9 -14 -20 -17 -29 -9 -16 -23 17 -18 25 3 25 2 7 -6 -12 -5 -24 -16
-27 -25 -6 -15 16 -46 33 -46 9 0 24 -39 18 -46 -6 -5 -100 26 -112 36 -4 5
-4 16 2 25 10 20 5 55 -9 55 -5 0 -9 -10 -9 -22 0 -18 -2 -20 -9 -9 -6 9 -6
22 0 32 7 14 5 16 -11 12 -15 -4 -20 0 -20 16 0 13 5 19 14 15 11 -4 16 4 18
27 2 19 11 37 22 43 11 6 32 25 48 43 31 34 51 34 69 2z m-960 -32 c14 -17 15
-26 5 -56 -12 -33 -16 -36 -79 -47 -37 -7 -71 -16 -77 -19 -5 -3 -10 -2 -10 4
0 5 20 24 45 42 39 28 45 37 45 69 0 20 3 40 6 43 9 9 46 -11 65 -36z m1035
-14 c-3 -3 -12 -1 -19 5 -8 7 -16 11 -18 9 -2 -1 5 7 16 18 l20 20 3 -23 c2
-13 1 -26 -2 -29z m-403 40 c-7 -2 -19 -2 -25 0 -7 3 -2 5 12 5 14 0 19 -2 13
-5z m277 -24 c-7 -11 -14 -18 -17 -15 -3 3 0 12 7 21 18 21 23 19 10 -6z
m-235 -19 c-10 -11 -21 -18 -25 -15 -4 2 -5 -6 -3 -20 4 -18 13 -25 44 -30 21
-4 43 -4 49 0 6 4 10 -4 10 -19 0 -14 -4 -26 -10 -26 -5 0 -10 -9 -10 -19 0
-23 48 -64 63 -54 6 4 8 0 4 -9 -4 -12 -1 -14 13 -11 27 7 43 -28 28 -61 l-11
-26 -33 38 c-18 20 -33 43 -34 50 0 8 -14 27 -31 43 -31 29 -31 30 -14 49 10
11 15 23 12 27 -4 3 -7 1 -7 -5 0 -7 -5 -12 -11 -12 -5 0 -7 5 -3 12 4 7 3 8
-5 4 -6 -4 -8 -12 -4 -19 3 -6 -8 -1 -25 12 -29 20 -69 78 -60 86 2 2 15 5 30
7 15 2 30 7 34 11 17 16 16 5 -1 -13z m343 -45 c18 -5 22 -13 22 -50 0 -24 -5
-47 -10 -50 -6 -4 -8 -12 -4 -18 3 -7 -2 -3 -11 8 -18 23 -16 61 3 57 8 -1 11
2 7 8 -3 6 -11 7 -17 4 -5 -4 -20 -1 -33 6 -26 14 -23 54 4 46 9 -2 26 -7 39
-11z m-2638 -31 c22 -14 42 -36 46 -48 7 -22 7 -28 0 -23 -3 1 -16 -9 -30 -22
-14 -14 -26 -21 -26 -17 0 4 -9 2 -20 -4 -11 -6 -20 -18 -20 -26 0 -17 -4 -18
117 6 53 10 66 10 97 -5 20 -10 44 -27 54 -39 19 -25 59 -39 68 -25 3 6 11 6
20 -1 7 -7 35 -17 61 -24 l47 -12 -30 -11 c-51 -18 -148 -46 -174 -49 -122
-14 -140 -15 -140 -4 0 6 4 9 9 5 5 -3 12 -1 15 4 4 5 -5 8 -19 6 -22 -2 -23
0 -13 13 9 11 9 14 1 9 -6 -4 -15 -1 -20 7 -4 7 -22 17 -39 20 -37 8 -64 -12
-64 -47 0 -17 2 -19 9 -7 6 8 7 18 4 23 -3 5 5 3 18 -4 13 -7 26 -10 28 -8 2
2 7 -6 12 -18 5 -13 5 -23 1 -23 -4 0 0 -5 8 -11 13 -9 13 -10 -2 -6 -19 6
-48 -22 -48 -46 0 -9 6 -17 13 -17 18 0 80 31 89 44 11 16 34 15 34 -3 1 -9 3
-23 5 -31 3 -11 -3 -14 -19 -12 -13 2 -29 -2 -37 -8 -8 -6 -22 -10 -32 -8 -10
2 -22 -2 -28 -9 -5 -7 -27 -13 -48 -15 -21 -1 -41 -6 -43 -10 -3 -4 -14 -8
-26 -8 -18 0 -19 2 -7 18 7 9 0 5 -15 -10 -26 -27 -43 -37 -32 -19 3 5 -1 12
-10 15 -13 5 -14 9 -4 21 7 8 16 13 20 10 5 -3 11 -1 14 3 3 5 28 7 56 4 27
-2 50 0 51 4 5 62 3 75 -16 81 -27 9 -64 11 -63 4 2 -19 -4 -24 -12 -11 -5 8
-10 10 -10 3 0 -11 -25 -9 -60 4 -8 4 -18 5 -22 5 -21 -5 -4 16 27 32 33 18
40 28 36 50 -1 4 3 14 9 21 19 23 -6 25 -53 3 -44 -20 -46 -23 -31 -40 16 -16
15 -18 -10 -28 -48 -18 -60 -12 -86 42 -14 29 -26 55 -28 59 -4 9 90 54 133
65 17 4 42 16 57 27 15 11 33 17 41 14 10 -4 14 1 13 16 -1 18 -7 22 -36 23
-19 0 -57 -8 -83 -19 -26 -11 -49 -18 -52 -16 -2 2 12 21 31 41 29 33 43 39
101 48 37 6 69 13 72 16 12 12 56 1 91 -22z m1710 2 c0 -2 -3 -11 -6 -20 -5
-12 -10 -13 -30 -4 -13 6 -21 15 -18 19 5 9 54 13 54 5z m-71 -53 c54 -17 63
-28 31 -38 -26 -8 -43 3 -35 22 4 13 3 14 -10 3 -12 -10 -16 -9 -21 4 -3 9
-10 14 -15 11 -4 -3 -6 -12 -3 -19 3 -8 1 -17 -5 -21 -10 -6 -16 8 -11 30 1 5
-7 2 -17 -7 -10 -9 -30 -20 -45 -23 -16 -4 -25 -11 -22 -16 3 -5 -4 -9 -15 -9
-11 0 -23 4 -26 10 -3 6 1 7 9 4 9 -3 16 -2 16 4 0 14 -27 9 -43 -8 -9 -10 -9
-11 1 -6 6 4 12 2 12 -3 0 -15 -66 -14 -107 1 -32 12 -44 27 -23 29 6 1 40 3
78 5 93 4 113 8 147 26 39 21 44 21 104 1z m-1525 -15 c-4 -7 -3 -8 4 -4 7 4
22 0 34 -9 23 -15 23 -15 -9 -9 -18 3 -46 1 -63 -5 -24 -8 -31 -8 -27 2 2 6
12 12 22 12 10 0 20 6 23 13 2 6 8 12 13 12 6 0 7 -5 3 -12z m2302 -15 c-7 -7
-26 7 -26 19 0 6 6 6 15 -2 9 -7 13 -15 11 -17z m-169 -5 c-3 -8 -6 -5 -6 6
-1 11 2 17 5 13 3 -3 4 -12 1 -19z m-658 -4 c12 14 41 12 41 -4 0 -9 -79 -25
-86 -17 -2 2 -2 12 2 21 6 15 7 15 18 0 11 -14 13 -14 25 0z m-1549 -4 c0 -5
-5 -10 -11 -10 -5 0 -7 5 -4 10 3 6 8 10 11 10 2 0 4 -4 4 -10z m1316 -83 c5
-16 12 -18 43 -12 20 4 48 8 63 9 15 1 31 5 34 9 12 12 24 -3 24 -30 0 -23 -3
-25 -34 -21 -19 2 -32 0 -30 -4 3 -4 -3 -9 -13 -10 -10 0 -25 -2 -33 -2 -8 -1
-40 2 -70 6 -30 5 -71 10 -90 12 -19 2 -48 10 -65 16 -32 12 -25 21 26 34 21
5 28 2 32 -14 7 -26 32 -25 51 2 19 27 15 34 -29 42 -19 4 -35 11 -35 15 0 17
120 -33 126 -52z m1192 4 c12 -6 22 -16 22 -21 0 -15 -27 -12 -44 6 -9 8 -20
12 -26 9 -14 -9 -13 8 2 23 7 7 14 8 17 3 3 -4 16 -13 29 -20z m-737 -66 c-13
-17 -12 -16 9 2 17 15 30 19 40 13 17 -11 33 -3 24 12 -5 8 -1 9 10 5 10 -4
19 -1 22 8 5 12 12 10 37 -8 18 -12 38 -30 45 -40 11 -14 17 -15 27 -7 15 13
39 4 30 -10 -3 -5 -31 -7 -63 -4 -31 2 -81 4 -109 5 -37 1 -51 5 -46 13 5 7 2
7 -8 -1 -8 -7 -56 -15 -106 -18 -101 -5 -151 -12 -202 -25 -25 -7 -37 -5 -47
5 -12 12 -10 14 13 14 16 0 53 4 83 9 30 6 58 8 63 5 4 -2 7 1 7 7 0 13 44 31
86 35 17 1 40 8 51 14 11 5 24 7 28 3 3 -4 6 -2 5 3 -5 24 3 28 9 5 6 -17 3
-31 -8 -45z m847 -61 c0 -78 -3 -93 -14 -83 -7 6 -37 9 -69 7 -30 -1 -55 0
-55 3 0 4 -3 21 -6 38 -5 24 -3 31 10 31 19 0 21 -11 4 -29 -11 -11 -10 -12 1
-6 11 6 13 4 8 -9 -4 -11 -3 -15 4 -11 5 4 8 12 6 18 -2 7 0 20 5 31 7 14 7
16 -2 11 -7 -4 -4 4 5 19 19 28 30 35 22 12 -4 -10 0 -12 14 -9 14 4 19 14 19
39 0 19 5 34 11 34 5 0 7 -5 3 -12 -5 -7 -3 -8 5 -4 7 5 10 15 6 23 -4 13 -3
13 9 4 10 -8 14 -37 14 -107z m-1568 86 c3 -4 14 -10 25 -13 13 -3 9 -5 -12
-6 -18 0 -33 4 -33 10 0 5 -4 8 -8 5 -5 -3 -30 -6 -56 -7 -26 -2 -49 -6 -52
-11 -3 -4 -10 -8 -15 -8 -5 0 -1 9 9 20 10 11 27 18 38 16 12 -2 27 0 35 4 14
10 60 2 69 -10z m1450 -21 c0 -6 -4 -7 -10 -4 -5 3 -10 11 -10 16 0 6 5 7 10
4 6 -3 10 -11 10 -16z m-1620 -21 c0 -12 -3 -19 -6 -15 -3 3 -23 -1 -44 -8
-21 -7 -51 -16 -67 -18 -15 -3 -40 -8 -55 -12 -40 -10 -34 1 12 25 45 23 75
26 64 8 -4 -7 2 -4 14 6 12 11 22 16 22 11 0 -4 7 -2 15 5 8 7 15 9 15 4 0 -4
5 -3 12 4 16 16 18 15 18 -10z m393 -25 c34 -7 74 -16 90 -20 30 -6 37 -22 10
-24 -52 -3 -88 5 -120 27 -20 13 -42 24 -49 24 -8 0 -14 5 -14 11 0 5 5 7 11
3 6 -3 38 -13 72 -21z m-188 -3 c-4 -6 -11 -8 -16 -5 -5 3 -7 0 -4 -7 6 -16
-91 -18 -115 -3 -14 10 -3 12 123 23 10 1 15 -3 12 -8z m705 -22 c0 -7 4 -7
13 0 8 7 18 7 27 2 8 -5 17 -7 20 -5 15 9 60 13 60 5 0 -5 10 -7 22 -5 12 3
26 1 32 -4 21 -16 87 -20 136 -7 28 7 50 9 50 5 0 -5 -4 -9 -9 -9 -5 0 -11
-10 -14 -22 -5 -19 -8 -20 -24 -7 -10 7 -15 10 -11 5 4 -5 -12 -18 -35 -31
l-42 -22 -17 25 c-9 14 -14 31 -11 36 4 6 0 5 -9 -1 -15 -13 -28 -8 -28 9 0 5
5 6 12 2 7 -4 8 -3 4 5 -4 6 -13 8 -19 4 -15 -10 -67 -12 -67 -2 0 4 -8 6 -17
4 -10 -2 -18 -4 -18 -5 0 -1 -8 -3 -17 -5 -10 -2 -18 2 -18 8 0 5 -3 7 -7 4
-3 -4 -12 -2 -20 4 -9 8 -17 8 -26 0 -8 -6 -16 -9 -19 -6 -2 3 -4 -5 -3 -17 2
-25 52 -61 69 -50 32 19 112 11 99 -11 -5 -9 -4 -9 8 0 8 7 20 8 28 4 8 -5 9
-11 3 -15 -9 -5 -27 -7 -117 -8 -16 0 -73 3 -125 7 -52 4 -108 6 -124 6 -25
-1 -27 1 -16 14 7 9 15 13 18 10 3 -3 11 0 19 6 10 9 13 8 13 -1 0 -10 3 -10
15 0 8 7 15 9 15 5 0 -5 8 -1 18 7 9 9 25 14 36 12 14 -2 16 0 7 9 -9 9 -16 9
-31 -1 -23 -14 -33 -15 -25 -3 3 5 1 12 -5 16 -17 11 -11 25 11 25 11 0 17 -4
14 -10 -3 -5 -1 -10 4 -10 6 0 11 4 11 9 0 11 27 17 78 18 17 1 32 -4 32 -9z
m-547 -25 c28 -22 36 -33 32 -50 -7 -31 34 -57 99 -62 5 -1 2 -9 -5 -18 -10
-11 -10 -14 -1 -9 6 4 12 2 12 -3 0 -16 -20 -13 -26 4 -4 11 -21 15 -55 15
-46 0 -62 11 -39 25 18 11 11 25 -17 36 -30 11 -94 -2 -122 -25 -8 -6 -26 -11
-40 -11 -14 -1 -36 -4 -49 -9 -16 -5 -22 -4 -20 5 2 8 -14 16 -40 20 -46 9
-105 41 -67 38 50 -5 85 2 85 15 0 20 35 29 60 16 24 -13 41 -5 34 15 -6 15
16 21 82 24 30 1 50 -6 77 -26z m374 15 c0 -7 4 -22 9 -32 6 -16 4 -18 -9 -13
-9 3 -19 2 -22 -4 -4 -5 -10 -7 -14 -4 -5 2 -16 -4 -26 -15 -10 -11 -21 -17
-26 -15 -4 3 -10 1 -14 -5 -3 -5 -16 -10 -28 -9 -12 0 -16 3 -9 6 6 2 12 9 12
15 0 7 -5 7 -13 -1 -8 -6 -17 -8 -21 -4 -4 4 -4 -1 -1 -12 3 -11 -2 -5 -13 14
-18 33 -19 33 -33 14 -16 -23 -79 -28 -79 -6 0 11 49 19 64 11 3 -2 16 8 30
21 14 14 26 22 26 18 0 -3 16 1 35 9 43 18 79 19 69 2 -4 -7 2 -5 12 5 21 20
50 23 51 5z m626 -25 c35 -37 73 -126 81 -193 19 -140 19 -136 -18 -159 -29
-18 -38 -20 -60 -10 -36 17 -32 27 12 31 l37 3 3 58 c2 45 -2 66 -19 97 -13
22 -27 40 -31 40 -5 0 -7 4 -4 9 3 4 -3 16 -14 26 -11 10 -27 41 -35 68 -18
62 -19 57 3 57 10 0 30 -12 45 -27z m-1839 11 c8 -3 12 -12 9 -20 -3 -8 2 -23
12 -34 16 -18 15 -19 -22 -29 -73 -19 -113 -17 -113 4 0 18 -13 19 -80 4 -42
-9 -54 -8 -63 2 -7 8 -8 11 -3 7 4 -4 15 -1 22 7 7 7 33 16 56 20 24 4 48 10
53 14 11 6 82 27 102 30 6 0 18 -2 27 -5z m275 -30 c9 -8 -6 -12 -64 -17 l-60
-5 35 18 c30 16 73 18 89 4z m168 1 c0 -11 -13 -15 -54 -16 -115 -3 -124 0
-43 16 90 17 97 17 97 0z m1376 -125 c53 -82 57 -92 51 -129 -6 -38 -9 -41
-40 -41 -18 0 -37 -6 -41 -13 -10 -15 -59 -39 -90 -42 -13 -2 -41 -6 -64 -10
-55 -9 -49 15 7 31 44 12 55 41 14 36 -95 -10 -141 -5 -161 16 -12 13 -33 22
-52 23 -59 1 -97 12 -86 24 6 5 109 21 273 40 94 11 124 18 140 34 11 11 17
23 13 27 -14 14 -115 8 -170 -11 -43 -15 -62 -17 -75 -9 -26 17 -28 44 -3 44
19 0 67 20 131 55 14 7 41 13 60 14 33 0 38 -4 93 -89z m-1451 71 c47 -1 62
-6 85 -27 15 -14 40 -36 54 -48 31 -26 42 -71 23 -87 -8 -6 -14 -9 -14 -6 0 3
-20 -1 -45 -9 -43 -12 -45 -12 -45 6 0 25 -17 25 -72 1 -40 -17 -48 -17 -84
-5 -21 8 -51 14 -66 14 -15 0 -33 7 -42 15 -8 8 -32 15 -54 15 -22 0 -57 7
-77 16 -31 13 -46 13 -81 5 -56 -14 -81 -14 -67 0 5 5 39 17 74 25 96 22 121
33 114 54 -5 16 3 19 72 25 43 3 84 7 92 8 8 1 28 1 45 0 17 -1 57 -2 88 -2z
m1768 -18 c11 -17 11 -17 6 0 -4 13 0 17 20 17 20 0 25 -4 20 -16 -5 -14 -4
-15 8 -5 9 8 16 8 20 2 7 -11 -27 -34 -38 -26 -3 3 -3 2 0 -2 3 -4 13 -8 22
-8 14 0 17 -11 17 -70 0 -65 -2 -70 -22 -73 -15 -2 -23 2 -23 11 0 9 -6 18
-12 20 -8 3 -6 6 5 6 21 1 22 15 2 35 -19 18 -19 26 -1 26 7 0 19 6 25 14 13
16 -4 26 -45 26 -14 0 -22 4 -19 10 3 6 -3 10 -14 10 -11 0 -25 9 -31 20 -10
18 -8 20 19 20 18 0 35 -7 41 -17z m-2428 -12 c6 -11 19 -17 27 -14 14 4 14 3
1 -5 -8 -6 -17 -9 -21 -6 -4 2 -10 -5 -14 -16 -4 -11 -22 -27 -41 -35 -19 -8
-34 -19 -34 -24 0 -16 14 -14 74 14 58 27 81 31 71 15 -3 -5 -12 -10 -20 -10
-7 0 -41 -16 -74 -35 -52 -29 -100 -46 -146 -50 -5 -1 -22 2 -37 6 -21 6 -36
1 -64 -17 -20 -14 -38 -23 -41 -21 -2 3 5 20 16 38 26 42 26 44 1 69 -17 17
-17 20 -4 20 18 0 221 67 244 81 25 14 49 10 62 -10z m1696 -8 c39 -9 72 -19
72 -22 0 -4 -7 -17 -16 -30 -17 -23 -20 -23 -104 -6 -8 2 -19 4 -23 4 -5 1 -5
6 -2 11 10 16 -21 17 -115 2 -60 -10 -131 -15 -172 -13 -13 1 -15 7 -9 28 6
24 14 29 55 35 26 4 50 9 52 11 10 9 192 -5 262 -20z m-1378 7 c0 -5 -10 -10
-22 -9 -22 0 -22 1 -3 9 11 5 21 9 23 9 1 1 2 -3 2 -9z m543 -2 c16 1 26 -2
23 -7 -4 -5 2 -14 11 -20 17 -10 16 -10 -2 -7 -11 1 -29 6 -40 10 -11 5 -26
10 -32 12 -7 2 -13 8 -13 14 0 6 5 8 12 4 7 -5 25 -7 41 -6z m-776 -4 c-3 -3
-12 -4 -19 -1 -8 3 -5 6 6 6 11 1 17 -2 13 -5z m988 -4 c16 -6 14 -8 -12 -7
-18 0 -30 4 -27 9 6 10 12 9 39 -2z m-810 -10 c-3 -5 -16 -10 -28 -10 -18 0
-19 2 -7 10 20 13 43 13 35 0z m705 0 c-8 -5 -22 -9 -30 -9 -10 0 -8 3 5 9 27
12 43 12 25 0z m213 -29 c9 -1 17 -6 17 -12 0 -6 -10 -9 -22 -8 -13 2 -28 0
-35 -4 -8 -5 -11 -1 -10 12 1 11 7 17 17 16 8 -2 23 -4 33 -4z m-137 -19 c-16
-2 -32 0 -37 5 -5 5 7 7 29 4 34 -5 35 -6 8 -9z m954 -2 c-14 -4 -36 -8 -50
-8 -23 -1 -23 0 -5 8 11 5 34 8 50 8 29 0 29 0 5 -8z m-570 -19 c125 9 150 -1
170 -70 8 -28 6 -33 -13 -40 -12 -5 -33 -7 -47 -5 -14 1 -29 3 -33 3 -5 1 -5
7 -1 14 6 9 5 9 -8 0 -18 -15 -28 -7 -28 23 0 27 -31 40 -59 25 -25 -14 -97
-14 -122 -1 -21 12 -26 46 -6 53 6 2 21 1 32 -3 11 -4 63 -3 115 1z m-1373
-35 c-8 -20 10 -24 63 -13 25 5 59 11 75 15 55 11 201 0 240 -18 11 -5 36 -14
55 -19 l35 -9 -46 -1 c-70 -1 -88 -41 -25 -52 15 -3 10 -9 -20 -24 -24 -13
-40 -29 -42 -43 -2 -12 -11 -23 -20 -23 -51 -4 -64 -8 -85 -25 -12 -11 -17
-13 -11 -4 5 8 23 34 38 58 20 28 36 42 51 42 25 0 50 24 41 39 -4 6 -16 7
-29 2 -12 -4 -28 -6 -35 -4 -7 3 -23 -2 -35 -10 -19 -13 -31 -32 -66 -107 -17
-35 -165 -85 -180 -61 -4 6 -26 12 -49 14 -37 2 -40 4 -25 15 10 7 18 20 18
30 0 16 105 81 133 82 7 0 23 9 35 20 31 29 8 41 -46 24 -23 -8 -69 -21 -102
-31 -33 -9 -64 -19 -70 -23 -27 -19 -61 -19 -73 1 -13 21 -7 43 9 34 5 -3 6 1
2 10 -4 12 -8 13 -13 5 -5 -9 -9 -9 -14 -1 -4 6 -6 11 -4 11 2 1 20 3 42 6 29
5 37 3 31 -7 -5 -7 -4 -10 3 -5 6 4 9 12 7 19 -3 7 18 24 48 39 61 31 71 33
64 14z m1138 4 c-3 -5 -12 -7 -20 -3 -21 7 -19 13 6 13 11 0 18 -4 14 -10z
m1099 -56 c5 -23 2 -35 -14 -49 -19 -18 -20 -18 -20 2 0 11 -3 42 -6 69 l-6
49 20 -20 c11 -11 23 -34 26 -51z m-1221 49 c-13 -2 -33 -2 -45 0 -13 2 -3 4
22 4 25 0 35 -2 23 -4z m131 -44 c-3 -5 -11 -9 -19 -9 -8 0 -16 4 -19 9 -3 5
5 9 19 9 14 0 22 -4 19 -9z m-374 -14 c-7 -9 -15 -13 -19 -10 -3 3 1 10 9 15
21 14 24 12 10 -5z m238 8 c-10 -2 -28 -2 -40 0 -13 2 -5 4 17 4 22 1 32 -1
23 -4z m355 -16 c3 -8 -1 -14 -8 -14 -7 0 -11 6 -8 14 3 7 6 13 8 13 2 0 5 -6
8 -13z m-103 -9 c0 -11 -12 -10 -30 2 -12 7 -10 9 8 7 12 0 22 -5 22 -9z m34
4 c3 -5 -1 -9 -9 -9 -8 0 -12 4 -9 9 3 4 7 8 9 8 2 0 6 -4 9 -8z m-124 -22 c0
-5 -7 -10 -15 -10 -8 0 -15 5 -15 10 0 6 7 10 15 10 8 0 15 -4 15 -10z m1191
-14 c-7 -9 -3 -12 14 -12 13 0 22 2 20 5 -4 4 41 31 52 31 2 0 3 -18 1 -40 -2
-38 -4 -40 -42 -48 -58 -12 -66 -6 -66 44 0 35 3 42 15 38 11 -4 12 -10 6 -18z
m-1368 7 c-7 -2 -19 -2 -25 0 -7 3 -2 5 12 5 14 0 19 -2 13 -5z m446 -17 c10
-12 9 -14 -5 -12 -10 2 -20 8 -22 14 -5 17 13 15 27 -2z m288 -1 c49 -11 60
-30 29 -50 -34 -23 -33 -31 7 -44 33 -11 67 -7 67 9 0 4 18 10 39 14 22 3 47
9 57 13 10 4 15 2 11 -4 -3 -5 0 -10 8 -10 8 0 12 4 9 8 -2 4 0 10 5 13 16 10
23 -14 9 -31 -9 -12 -9 -15 0 -9 19 12 14 -9 -8 -29 -11 -10 -19 -23 -18 -29
3 -11 -4 -16 -23 -16 -8 0 -7 6 2 18 12 16 12 16 -4 1 -16 -14 -25 -14 -85 -2
-98 20 -123 32 -138 70 -11 24 -21 33 -39 34 -14 1 -34 3 -45 4 -11 1 -24 3
-30 4 -15 2 -12 21 4 21 7 0 19 7 26 15 12 15 51 15 117 0z m-1179 -35 c12
-11 27 -20 33 -20 19 0 -24 -29 -43 -30 -10 0 -61 -22 -114 -50 -53 -27 -103
-50 -111 -50 -7 0 -35 -11 -61 -24 -81 -40 -121 -42 -122 -5 0 8 114 76 195
117 33 16 82 41 109 56 59 31 85 33 114 6z m475 3 c-7 -2 -19 -2 -25 0 -7 3
-2 5 12 5 14 0 19 -2 13 -5z m1151 -35 c-5 -28 -1 -36 23 -51 15 -10 20 -16
10 -13 -11 3 -16 2 -12 -4 8 -13 45 -13 45 0 0 6 5 10 11 10 5 0 7 -6 3 -12
-4 -7 3 -4 16 7 13 11 20 15 17 8 -4 -6 -1 -13 5 -16 27 -9 -2 -17 -68 -18
-66 -1 -111 5 -122 16 -3 3 3 14 13 25 20 22 35 19 17 -3 -9 -10 -8 -14 3 -14
8 0 12 4 9 8 -2 4 1 11 7 15 8 4 7 9 -2 15 -9 5 -21 1 -35 -12 -18 -17 -22
-18 -27 -5 -8 22 29 64 61 69 15 2 28 5 29 6 1 0 -1 -14 -3 -31z m-123 6 c17
-8 28 -21 26 -27 -2 -7 0 -21 6 -32 5 -11 6 -17 2 -13 -5 4 -13 4 -19 -1 -6
-4 -26 -13 -43 -19 -32 -11 -39 -7 -34 21 2 12 -6 8 -20 -10 -10 -11 -10 -14
-1 -9 6 4 12 2 12 -3 0 -14 -17 -14 -25 0 -8 12 24 51 35 44 9 -5 5 39 -5 54
-10 16 32 13 66 -5z m-808 -7 c4 3 7 1 7 -5 0 -17 -16 -15 -31 6 -12 15 -12
16 2 5 9 -7 19 -10 22 -6z m-463 -1 c0 -2 -9 -6 -20 -9 -11 -3 -20 -1 -20 4 0
5 9 9 20 9 11 0 20 -2 20 -4z m273 -13 c-7 -2 -19 -2 -25 0 -7 3 -2 5 12 5 14
0 19 -2 13 -5z m1257 -13 c0 -5 -5 -10 -11 -10 -5 0 -7 5 -4 10 3 6 8 10 11
10 2 0 4 -4 4 -10z m-1710 -22 c0 -4 -4 -8 -9 -8 -6 0 -12 4 -15 8 -3 5 1 9 9
9 8 0 15 -4 15 -9z m190 3 c0 -5 -13 -8 -30 -7 -16 0 -30 4 -30 8 0 5 14 8 30
8 17 0 30 -4 30 -9z m177 -13 c-3 -8 -6 -5 -6 6 -1 11 2 17 5 13 3 -3 4 -12 1
-19z m1426 5 c-7 -2 -21 -2 -30 0 -10 3 -4 5 12 5 17 0 24 -2 18 -5z m-1343
-13 c12 -7 10 -9 -8 -7 -12 0 -22 5 -22 9 0 11 12 10 30 -2z m530 -11 c0 -4
-9 -7 -19 -6 -11 0 -18 4 -16 7 6 9 35 8 35 -1z m39 2 c9 -6 10 -11 2 -15 -13
-8 -31 1 -31 15 0 11 11 11 29 0z m-579 -37 c0 -2 -7 -4 -15 -4 -8 0 -15 4
-15 10 0 5 7 7 15 4 8 -4 15 -8 15 -10z m1343 9 c-7 -2 -21 -2 -30 0 -10 3 -4
5 12 5 17 0 24 -2 18 -5z m-703 -23 c0 -5 -5 -10 -11 -10 -5 0 -7 5 -4 10 3 6
8 10 11 10 2 0 4 -4 4 -10z m25 -9 c3 -5 1 -12 -5 -16 -5 -3 -10 1 -10 9 0 18
6 21 15 7z m345 1 c0 -4 -10 -9 -22 -9 -18 -2 -20 0 -8 7 18 12 30 13 30 2z
m80 4 c0 -3 -4 -8 -10 -11 -5 -3 -10 -1 -10 4 0 6 5 11 10 11 6 0 10 -2 10 -4z
m-1140 -18 c0 -5 -16 -8 -35 -8 -19 0 -35 4 -35 8 0 4 16 7 35 7 19 0 35 -3
35 -7z m-636 -34 c5 -14 4 -15 -9 -4 -17 14 -19 20 -6 20 5 0 12 -7 15 -16z
m2096 -9 c0 -9 -6 -12 -15 -9 -8 4 -12 10 -9 15 8 14 24 10 24 -6z m-2146 -11
c3 -8 2 -12 -4 -9 -6 3 -10 10 -10 16 0 14 7 11 14 -7z m216 6 c0 -5 -5 -10
-11 -10 -5 0 -7 5 -4 10 3 6 8 10 11 10 2 0 4 -4 4 -10z m535 0 l20 -9 -20 0
c-11 0 -27 4 -35 9 -13 9 -13 10 0 9 8 0 24 -4 35 -9z m1355 1 c0 -6 -9 -9
-19 -8 -11 0 -17 5 -15 9 7 11 34 10 34 -1z m-1817 -14 c7 3 8 2 4 -2 -10 -11
-37 -15 -37 -6 0 14 14 23 18 12 2 -6 9 -8 15 -4z m282 -15 c-8 -8 -25 10 -19
20 4 6 9 5 15 -3 4 -7 6 -15 4 -17z m506 13 c5 4 6 -1 3 -9 -7 -17 -55 -20
-89 -6 -13 6 -3 7 28 3 37 -5 47 -3 44 8 -2 8 -2 11 0 6 3 -4 9 -5 14 -2z
m976 8 c-11 -10 -45 -14 -51 -5 -2 4 9 9 27 10 17 2 28 -1 24 -5z m-2597 -44
c0 -22 5 -49 10 -60 12 -21 50 -25 68 -7 9 9 15 10 20 2 12 -20 89 -52 103
-43 7 4 20 4 29 -1 9 -5 27 -8 41 -6 13 1 32 -6 42 -17 19 -19 18 -19 -4 -12
-12 4 -63 6 -113 5 -179 -5 -205 -4 -245 10 -23 7 -41 15 -41 17 0 2 16 26 35
54 19 28 35 62 35 75 0 13 5 24 10 24 6 0 10 -18 10 -41z m1723 29 c20 1 37
-3 37 -9 0 -5 -5 -7 -11 -3 -8 5 -8 1 0 -14 10 -19 8 -22 -23 -28 -19 -3 -41
-4 -48 -1 -7 3 -1 6 15 6 39 1 35 30 -5 38 -18 4 -36 6 -40 5 -5 -1 -8 3 -8 9
0 6 9 8 23 3 12 -4 39 -6 60 -6z m-970 -35 c-7 -2 -19 -2 -25 0 -7 3 -2 5 12
5 14 0 19 -2 13 -5z m567 3 c0 -2 -7 -6 -15 -10 -8 -3 -15 -1 -15 4 0 6 7 10
15 10 8 0 15 -2 15 -4z m-1814 -28 c17 -54 36 -67 95 -68 51 0 79 -12 79 -33
0 -5 -11 -6 -24 -3 -26 6 -52 -15 -41 -34 9 -15 72 -7 117 14 21 10 44 16 51
13 8 -3 29 -2 48 2 25 5 46 2 79 -13 44 -20 85 -22 270 -13 41 2 182 -12 189
-19 2 -2 -49 -4 -115 -4 -65 0 -325 -1 -577 -2 -377 -3 -456 -1 -452 10 3 8 5
21 5 29 0 11 8 14 29 11 17 -2 28 -1 25 4 -6 9 44 23 53 14 3 -3 12 -1 20 6 7
6 16 8 19 5 9 -8 64 44 80 76 18 33 40 35 50 5z m1531 6 c0 -10 -7 -14 -19
-11 -10 3 -21 1 -24 -4 -3 -5 -13 -5 -23 1 -10 5 -21 7 -25 5 -3 -3 -4 -2 -1
2 9 12 35 12 35 0 0 -8 4 -7 9 2 5 7 13 11 19 7 6 -3 13 -2 17 4 9 14 12 13
12 -6z m606 9 c10 -10 -42 -33 -74 -33 -16 0 -29 5 -29 11 0 7 12 9 35 5 27
-5 37 -3 41 9 6 16 16 19 27 8z m-113 -15 c0 -4 -7 -8 -15 -8 -8 0 -15 4 -15
8 0 5 7 9 15 9 8 0 15 -4 15 -9z m1160 -8 c0 -5 -17 -10 -37 -9 -34 1 -35 2
-13 9 36 11 50 11 50 0z m-1936 -8 c3 -5 -1 -9 -9 -9 -8 0 -12 4 -9 9 3 4 7 8
9 8 2 0 6 -4 9 -8z m1749 1 c-13 -2 -33 -2 -45 0 -13 2 -3 4 22 4 25 0 35 -2
23 -4z m47 3 c0 -3 -4 -8 -10 -11 -5 -3 -10 -1 -10 4 0 6 5 11 10 11 6 0 10
-2 10 -4z m-1240 -16 c0 -5 -4 -10 -10 -10 -5 0 -10 5 -10 10 0 6 5 10 10 10
6 0 10 -4 10 -10z m-1425 -19 c-19 -18 -48 -25 -85 -22 -23 3 51 40 80 41 24
0 24 0 5 -19z m1388 12 c-7 -2 -19 -2 -25 0 -7 3 -2 5 12 5 14 0 19 -2 13 -5z
m-433 -13 c0 -5 -8 -10 -17 -10 -15 0 -16 2 -3 10 19 12 20 12 20 0z m983 3
c-7 -2 -19 -2 -25 0 -7 3 -2 5 12 5 14 0 19 -2 13 -5z m564 -9 c-3 -3 -12 -4
-19 -1 -8 3 -5 6 6 6 11 1 17 -2 13 -5z m-1694 -11 c-7 -2 -21 -2 -30 0 -10 3
-4 5 12 5 17 0 24 -2 18 -5z m67 3 c0 -2 -7 -7 -16 -10 -8 -3 -12 -2 -9 4 6
10 25 14 25 6z m233 -3 c-7 -2 -21 -2 -30 0 -10 3 -4 5 12 5 17 0 24 -2 18 -5z
m44 1 c-3 -3 -12 -4 -19 -1 -8 3 -5 6 6 6 11 1 17 -2 13 -5z m1652 2 c-2 -2
-29 -6 -60 -8 -30 -3 -61 -8 -67 -12 -7 -4 -12 -3 -12 2 0 5 -16 8 -35 7 -19
-2 -37 0 -39 4 -3 4 45 8 107 9 61 1 109 0 106 -2z m-945 -36 c-22 -9 -29 -6
-20 9 4 6 14 7 23 4 15 -6 14 -7 -3 -13z m-104 6 c0 -2 -8 -10 -17 -17 -16
-13 -17 -12 -4 4 13 16 21 21 21 13z m70 -3 c0 -5 -13 -8 -30 -8 -16 0 -30 3
-30 8 0 4 14 7 30 7 17 0 30 -3 30 -7z m155 -3 c3 -6 -1 -7 -9 -4 -18 7 -21
14 -7 14 6 0 13 -4 16 -10z m-1028 -6 c-3 -3 -12 -4 -19 -1 -8 3 -5 6 6 6 11
1 17 -2 13 -5z m93 -10 c0 -2 -9 -4 -21 -4 -11 0 -18 4 -14 10 5 8 35 3 35 -6z
m50 1 c0 -2 -9 -3 -19 -2 -11 0 -18 5 -15 9 4 6 34 0 34 -7z m60 -7 c0 -5 -8
-4 -19 1 -10 6 -22 7 -26 3 -5 -4 -5 -2 -2 5 8 13 47 6 47 -9z m1650 12 c0 -5
-8 -10 -17 -10 -15 0 -16 2 -3 10 19 12 20 12 20 0z m-2250 -9 c0 -5 -9 -7
-20 -4 -11 3 -20 7 -20 9 0 2 9 4 20 4 11 0 20 -4 20 -9z m78 -11 c17 0 32 -6
36 -15 10 -27 -50 -18 -81 11 -22 21 -23 24 -6 15 12 -6 35 -11 51 -11z m1977
10 c-28 -12 -47 -12 -40 0 3 6 18 10 33 9 24 0 25 -1 7 -9z m148 3 c-7 -2 -19
-2 -25 0 -7 3 -2 5 12 5 14 0 19 -2 13 -5z m-1300 -20 c-3 -7 -6 -13 -8 -13
-2 0 -5 6 -8 13 -3 8 1 14 8 14 7 0 11 -6 8 -14z m1060 10 c-7 -2 -19 -2 -25
0 -7 3 -2 5 12 5 14 0 19 -2 13 -5z m-1723 -23 c20 -6 15 -8 -22 -7 -27 0 -48
4 -48 9 0 10 36 9 70 -2z m-237 -7 c-7 -2 -19 -2 -25 0 -7 3 -2 5 12 5 14 0
19 -2 13 -5z"/>
<path d="M1743 5072 c-6 -4 -14 -19 -18 -34 -6 -24 -3 -29 29 -44 29 -14 38
-15 51 -4 18 15 19 41 3 62 -16 20 -49 30 -65 20z"/>
<path d="M1490 4576 c0 -3 12 -11 28 -18 15 -8 39 -22 55 -32 21 -14 26 -15
22 -4 -9 23 -105 72 -105 54z"/>
<path d="M1542 4488 c-14 -14 -16 -38 -2 -38 9 0 30 31 30 44 0 10 -15 7 -28
-6z"/>
<path d="M1590 4473 c-19 -7 -40 -33 -40 -50 0 -19 20 -16 27 5 3 9 13 25 21
35 16 18 16 18 -8 10z"/>
<path d="M1633 4375 c-16 -17 -17 -35 -3 -35 6 0 10 7 10 15 0 8 7 15 15 15 8
0 15 5 15 10 0 15 -23 12 -37 -5z"/>
<path d="M2986 4221 c-9 -14 4 -19 47 -19 21 0 44 -5 52 -12 8 -7 20 -10 27
-8 20 7 -32 35 -78 43 -25 4 -44 2 -48 -4z"/>
<path d="M2662 3807 c-6 -7 -16 -26 -22 -42 -10 -26 -9 -28 3 -15 13 15 40 70
33 70 -2 0 -8 -6 -14 -13z"/>
<path d="M2610 3769 c-6 -11 -10 -25 -8 -30 2 -5 8 4 15 21 13 34 9 40 -7 9z"/>
<path d="M2531 3737 c-19 -19 -12 -28 15 -21 17 4 29 2 35 -7 5 -8 9 -9 9 -4
0 28 -41 50 -59 32z"/>
<path d="M2616 3723 c-11 -11 -6 -34 6 -27 8 5 9 1 4 -12 -7 -18 -6 -18 10 -2
15 15 15 18 2 32 -9 8 -18 12 -22 9z"/>
<path d="M2589 3663 c-13 -16 -12 -17 4 -4 9 7 17 15 17 17 0 8 -8 3 -21 -13z"/>
<path d="M2550 3654 c0 -8 5 -12 10 -9 6 3 10 10 10 16 0 5 -4 9 -10 9 -5 0
-10 -7 -10 -16z"/>
<path d="M2560 3614 c0 -8 5 -12 10 -9 6 4 8 11 5 16 -9 14 -15 11 -15 -7z"/>
<path d="M2606 3555 c-9 -26 -7 -32 5 -12 6 10 9 21 6 23 -2 3 -7 -2 -11 -11z"/>
<path d="M974 3797 c-5 -8 -18 -16 -29 -19 -24 -4 -27 -30 -3 -34 21 -3 58 40
48 56 -6 10 -10 9 -16 -3z"/>
<path d="M971 3734 c-22 -28 -27 -44 -12 -44 7 0 22 22 25 40 1 3 5 11 9 18
15 22 -1 12 -22 -14z"/>
<path d="M863 3716 c3 -7 0 -20 -6 -27 -7 -7 -2 -5 10 5 22 18 22 36 1 36 -5
0 -8 -6 -5 -14z"/>
<path d="M986 3593 c-6 -14 -5 -15 5 -6 7 7 10 15 7 18 -3 3 -9 -2 -12 -12z"/>
<path d="M1053 3576 c-12 -14 -29 -23 -43 -22 -17 1 -26 -5 -28 -19 -3 -16 -1
-18 9 -7 19 18 42 15 35 -4 -5 -14 -4 -15 9 -4 8 7 15 19 15 28 0 8 7 24 17
34 9 10 13 18 10 18 -3 0 -14 -11 -24 -24z"/>
<path d="M837 2013 c-4 -3 -7 -22 -7 -41 0 -43 -42 -85 -120 -120 -30 -13 -57
-28 -60 -33 -3 -4 -24 -2 -45 6 -22 8 -50 14 -62 15 -12 0 -25 5 -28 10 -3 6
-11 10 -18 10 -26 0 32 -37 85 -55 59 -19 66 -18 118 14 8 5 40 24 72 42 57
32 78 61 78 103 0 33 10 38 39 17 14 -10 38 -21 52 -24 14 -4 48 -31 76 -60
43 -47 61 -58 129 -81 96 -32 177 -41 278 -31 56 5 76 10 76 21 0 11 -11 13
-57 7 -32 -5 -92 -8 -133 -8 -97 1 -213 46 -280 109 -25 23 -73 57 -108 74
-65 34 -74 36 -85 25z"/>
<path d="M2924 2115 c-7 -18 3 -35 21 -35 18 0 26 15 19 34 -8 20 -33 21 -40
1z"/>
<path d="M2910 2040 c0 -5 5 -10 10 -10 6 0 10 5 10 10 0 6 -4 10 -10 10 -5 0
-10 -4 -10 -10z"/>
<path d="M2922 2000 c-17 -28 -15 -32 8 -20 11 6 20 17 20 25 0 21 -13 19 -28
-5z"/>
<path d="M2954 1845 c-24 -36 -18 -145 7 -129 5 3 6 10 3 16 -4 6 1 8 15 3 29
-9 28 18 -1 37 -23 15 -23 16 -6 51 21 43 6 59 -18 22z"/>
<path d="M2910 1721 c0 -10 -13 -33 -30 -51 -34 -36 -35 -40 -17 -40 23 0 67
55 67 83 0 15 -4 27 -10 27 -5 0 -10 -9 -10 -19z"/>
<path d="M2827 1693 c-4 -3 -7 -12 -7 -20 0 -11 4 -11 20 -1 11 7 20 16 20 20
0 10 -24 10 -33 1z"/>
<path d="M2937 1668 c-4 -12 -4 -24 -2 -26 7 -8 35 20 35 34 0 23 -27 16 -33
-8z"/>
<path d="M2812 1613 c-6 -2 -10 -9 -7 -13 7 -11 35 -2 35 11 0 10 -8 10 -28 2z"/>
<path d="M2972 1588 c-19 -19 -14 -30 11 -26 12 2 22 9 22 17 0 19 -18 24 -33
9z"/>
<path d="M2715 1550 c-3 -5 1 -10 9 -10 9 0 16 5 16 10 0 6 -4 10 -9 10 -6 0
-13 -4 -16 -10z"/>
<path d="M3253 1796 c9 -7 13 -17 9 -22 -4 -4 0 -3 9 4 9 6 20 8 24 4 5 -4 5
-2 2 4 -4 7 -19 14 -34 17 -24 4 -25 4 -10 -7z"/>
<path d="M1661 1716 c-8 -10 -7 -21 5 -45 19 -38 35 -36 46 4 12 45 -24 74
-51 41z"/>
<path d="M1681 1616 c-9 -11 -10 -20 -1 -36 15 -28 35 -20 35 15 0 32 -16 42
-34 21z"/>
<path d="M3322 1578 c-19 -19 -14 -30 8 -18 11 6 20 15 20 20 0 14 -14 12 -28
-2z"/>
<path d="M3457 1679 c7 -7 15 -10 18 -7 3 3 -2 9 -12 12 -14 6 -15 5 -6 -5z"/>
<path d="M773 1612 c-31 -5 -30 -32 1 -32 27 0 44 17 30 29 -5 4 -19 5 -31 3z"/>
<path d="M705 1507 c-29 -22 -10 -38 25 -20 17 8 30 19 30 24 0 14 -34 11 -55
-4z"/>
<path d="M809 1346 c0 -1 -2 -11 -3 -24 -3 -21 -2 -21 16 -5 22 20 23 30 3 30
-8 0 -15 -1 -16 -1z"/>
<path d="M2160 1576 c0 -3 9 -10 20 -16 11 -6 20 -8 20 -6 0 3 -9 10 -20 16
-11 6 -20 8 -20 6z"/>
<path d="M3465 1400 c-3 -5 -1 -10 4 -10 6 0 11 5 11 10 0 6 -2 10 -4 10 -3 0
-8 -4 -11 -10z"/>
<path d="M3460 1320 c0 -5 5 -10 10 -10 6 0 10 5 10 10 0 6 -4 10 -10 10 -5 0
-10 -4 -10 -10z"/>
<path d="M1630 1379 c0 -5 5 -7 10 -4 6 3 10 8 10 11 0 2 -4 4 -10 4 -5 0 -10
-5 -10 -11z"/>
<path d="M2887 1313 c3 -7 6 -13 8 -13 2 0 5 6 8 13 3 8 -1 14 -8 14 -7 0 -11
-6 -8 -14z"/>
<path d="M2450 1328 c-33 -29 -55 -35 -46 -12 5 14 4 15 -8 5 -9 -8 -16 -8
-20 -2 -8 13 -33 4 -40 -15 -4 -10 -2 -13 7 -7 21 13 35 12 41 -4 5 -11 10
-12 20 -4 7 6 15 9 18 6 2 -3 17 9 33 25 34 35 31 40 -5 8z"/>
<path d="M3466 1142 c-2 -4 -1 -14 4 -22 7 -11 9 -9 7 8 -1 24 -3 26 -11 14z"/>
<path d="M1042 1030 c0 -14 2 -19 5 -12 2 6 2 18 0 25 -3 6 -5 1 -5 -13z"/>
<path d="M2981 877 c-8 -10 -7 -14 2 -14 8 0 14 6 14 14 0 7 -1 13 -2 13 -2 0
-8 -6 -14 -13z"/>
<path d="M170 495 c-7 -9 -10 -18 -6 -22 3 -3 6 -1 6 6 0 7 4 10 8 7 5 -3 9 1
9 9 0 19 -2 19 -17 0z"/>
<path d="M2543 6113 c15 -2 37 -2 50 0 12 2 0 4 -28 4 -27 0 -38 -2 -22 -4z"/>
<path d="M1690 5933 c-52 -21 -70 -42 -70 -80 0 -77 107 -125 158 -70 46 50
36 122 -22 149 -28 14 -36 14 -66 1z m68 -56 c25 -51 -10 -107 -57 -92 -20 6
-41 45 -41 75 0 53 75 66 98 17z"/>
<path d="M2675 5494 c-38 -20 -35 -15 -41 -66 -4 -35 -1 -49 16 -68 11 -12 20
-32 20 -43 0 -33 23 -87 37 -87 7 0 12 5 11 11 -2 6 3 14 10 16 16 6 16 -31
-1 -46 -10 -7 -17 -7 -24 0 -8 8 -13 7 -18 -1 -4 -7 -1 -16 6 -21 12 -8 11
-12 -3 -23 -22 -16 -23 -26 -4 -26 20 0 28 -27 9 -34 -13 -5 -13 -9 -2 -22 11
-14 10 -18 -6 -30 -22 -17 -41 -18 -50 -4 -9 14 -28 1 -21 -15 2 -7 0 -17 -5
-22 -11 -11 -59 -5 -59 7 0 5 8 6 18 3 12 -3 22 4 30 21 6 14 7 28 3 31 -8 5
-63 -32 -69 -47 -6 -14 -20 -8 -25 10 -3 15 -5 15 -12 -3 -5 -11 -13 -23 -19
-27 -15 -11 11 -27 33 -21 9 2 27 0 40 -5 22 -8 22 -9 -18 -35 -23 -15 -41
-34 -41 -42 0 -26 -1 -30 -16 -46 -13 -15 -11 -19 20 -37 20 -12 38 -17 41
-12 3 4 13 6 23 3 10 -2 44 8 75 22 52 25 63 39 58 69 -3 15 22 26 36 15 7 -6
18 -7 24 -3 9 5 10 2 6 -10 -4 -10 -10 -28 -13 -41 -7 -28 -12 -30 -139 -61
-84 -21 -103 -23 -123 -12 -25 13 -57 62 -57 88 0 21 -29 19 -33 -2 -6 -29 28
-87 64 -109 32 -20 36 -20 86 -5 29 8 101 19 159 24 119 10 166 30 200 86 32
52 22 286 -12 286 -5 0 -14 11 -19 25 -6 14 -25 32 -42 40 -42 19 -85 52 -76
60 3 4 25 1 47 -6 46 -14 56 -10 46 20 -7 24 -53 51 -86 51 -22 0 -22 1 -5 13
16 11 18 22 12 59 -6 41 -20 63 -52 81 -6 3 -23 -1 -39 -9z m63 -60 c-10 -10
-28 6 -28 24 0 15 1 15 17 -1 9 -9 14 -19 11 -23z m-50 -7 c15 -40 15 -57 2
-57 -17 0 -39 45 -33 68 8 31 17 28 31 -11z m81 -102 c46 -3 51 -5 51 -15 0
-5 -7 -7 -16 -3 -14 5 -25 7 -71 12 -7 0 -13 6 -13 12 0 5 5 7 11 3 7 -4 24
-8 38 -9z m36 -129 c36 -15 44 -29 24 -42 -6 -3 -25 8 -42 25 -35 35 -32 38
18 17z m-27 -208 c-12 -46 -28 -73 -28 -45 0 9 -6 17 -12 18 -31 2 -52 9 -58
20 -5 7 -19 10 -34 7 -26 -5 -26 -5 -10 13 9 11 27 19 40 19 13 0 33 13 49 32
23 27 26 38 21 77 -5 42 -3 39 18 -26 21 -61 23 -77 14 -115z m78 113 c-8 -12
-46 -21 -46 -11 0 5 8 11 18 13 29 8 33 7 28 -2z m10 -37 c-19 -14 -56 -20
-43 -8 12 12 52 31 57 27 3 -3 -4 -11 -14 -19z m-2 -39 c-10 -8 -23 -14 -29
-14 -5 -1 1 8 15 19 14 10 27 17 29 14 3 -2 -4 -11 -15 -19z m-19 -45 c-10
-11 -21 -17 -24 -14 -3 3 3 12 13 20 28 20 32 17 11 -6z m-15 -45 c-7 -8 -17
-15 -22 -15 -6 0 -5 7 2 15 7 8 17 15 22 15 6 0 5 -7 -2 -15z m45 -5 c-10 -11
-34 -29 -54 -41 -42 -24 -33 -13 24 30 47 36 55 39 30 11z m-105 -94 c0 -3 -4
-8 -10 -11 -5 -3 -10 -1 -10 4 0 6 5 11 10 11 6 0 10 -2 10 -4z"/>
<path d="M2655 5069 c-4 -6 -5 -13 -2 -16 7 -7 27 6 27 18 0 12 -17 12 -25 -2z"/>
<path d="M2302 339 c-34 -17 -66 -39 -72 -48 -16 -31 -14 -84 4 -123 15 -32
27 -40 73 -55 46 -14 62 -15 111 -5 97 20 123 54 107 139 -8 45 -58 100 -98
108 -18 4 -39 8 -48 11 -8 2 -43 -10 -77 -27z m138 -29 c31 -31 30 -108 -2
-152 -23 -32 -62 -37 -109 -13 -55 29 -61 108 -13 160 30 32 94 35 124 5z"/>
<path d="M2575 352 c-10 -10 -5 -22 9 -22 9 0 15 -20 20 -61 10 -95 7 -125
-10 -140 -15 -12 -13 -14 17 -21 19 -4 66 -4 105 -1 70 6 70 6 92 47 26 48 27
56 8 56 -7 0 -24 -16 -37 -35 -19 -28 -31 -35 -57 -35 -38 0 -39 1 -46 106 -6
78 -5 82 16 88 13 4 19 9 13 11 -18 6 -125 12 -130 7z"/>
<path d="M1640 342 c-82 -3 -108 -15 -67 -31 24 -9 26 -14 29 -97 3 -83 2 -87
-20 -95 -40 -15 -13 -29 56 -29 67 0 104 12 88 27 -4 4 -18 8 -29 8 -19 0 -22
6 -22 40 0 38 2 40 28 37 24 -2 27 1 27 27 0 35 -29 52 -37 21 -3 -11 -9 -20
-13 -20 -13 0 -20 30 -14 55 5 18 14 24 52 28 26 3 50 3 54 1 4 -3 12 -23 18
-46 14 -49 26 -40 35 25 l7 47 -33 1 c-19 1 -45 2 -59 3 -14 1 -59 0 -100 -2z"/>
<path d="M1945 328 c-26 -15 -49 -40 -65 -70 l-25 -47 20 -37 c29 -54 68 -74
143 -74 131 0 182 66 133 173 -22 49 -46 64 -116 72 -41 4 -58 1 -90 -17z
m135 -40 c24 -26 26 -74 6 -123 -14 -33 -18 -35 -60 -35 -51 0 -71 15 -81 60
-8 37 2 85 22 105 23 23 88 19 113 -7z"/>
<path d="M330 330 c-4 -3 -6 -16 -4 -30 1 -14 3 -28 3 -32 2 -17 33 -7 38 13
4 15 12 19 32 17 25 -3 26 -5 25 -73 0 -38 -3 -85 -7 -102 -6 -33 -6 -33 31
-33 48 0 69 12 49 28 -15 13 -21 87 -12 144 6 35 9 38 40 38 25 0 34 -5 38
-21 3 -12 12 -19 19 -17 18 6 23 57 6 63 -18 7 -248 11 -258 5z"/>
<path d="M868 333 c-21 -2 -38 -8 -38 -14 0 -5 5 -9 10 -9 6 0 10 -18 10 -40
l0 -39 -55 0 -55 1 0 39 c0 21 5 39 10 39 6 0 10 5 10 10 0 6 -27 10 -60 10
-63 0 -71 -5 -43 -25 14 -11 18 -31 19 -104 1 -50 -2 -91 -7 -91 -5 0 -9 -6
-9 -13 0 -12 24 -14 98 -8 17 1 15 31 -3 31 -11 0 -15 12 -15 45 l0 45 58 0
58 0 -3 -60 -2 -60 39 -2 c22 0 45 -1 52 -2 22 -2 19 22 -3 26 -21 3 -22 7
-20 93 1 50 3 99 4 109 2 22 -4 24 -55 19z"/>
<path d="M970 329 c0 -6 9 -13 20 -16 19 -5 21 -12 18 -105 -1 -74 -6 -101
-16 -107 -24 -13 1 -21 86 -26 89 -6 112 5 112 51 0 17 -5 24 -20 24 -11 0
-20 -7 -20 -15 0 -18 -28 -33 -60 -31 -22 1 -25 5 -24 39 2 46 9 55 34 39 33
-20 41 -14 38 25 -2 27 -8 39 -20 41 -11 2 -18 -3 -18 -12 0 -9 -6 -16 -14
-16 -17 0 -28 81 -12 92 6 4 23 8 39 8 20 0 27 -5 27 -18 0 -10 3 -22 7 -25
11 -12 33 14 33 39 0 24 -1 24 -105 24 -69 0 -105 -4 -105 -11z"/>
<path d="M2990 150 c-8 -15 -6 -21 9 -30 41 -22 68 -4 49 33 -12 23 -45 22
-58 -3z"/>
<path d="M268 3 c45 -2 119 -2 165 0 45 1 8 3 -83 3 -91 0 -128 -2 -82 -3z"/>
</g>
</svg>
